<svg version="1.2" xmlns="http://www.w3.org/2000/svg" viewBox="0 0 91 52" width="91" height="52"><style>.a{fill:#232221}.b{fill:#b78150}</style><path fill-rule="evenodd" class="a" d="m32 0.3c2.2 0 4.1 0 4.1 0.1 0 0 1.9 8 4.2 17.8 2.4 9.8 4.3 17.8 4.3 17.8q0 0.1 0 0c0 0 1.9-8 4.2-17.7 2.3-9.8 4.1-17.8 4.1-17.9 0.1-0.1 0.3-0.1 8.4-0.1v1.2l-1.1 0.8v45l1.1 0.8v1.1h-9.3v-1.1l1.5-0.8v-17c0-11.2 0-16.9 0-16.9q-0.1 0-0.1 0.1c0 0-1.9 8.1-4.2 17.8-2.2 9.8-4.1 17.8-4.1 17.8 0 0-1 0-4.4 0l-4.2-17.9c-2.3-9.8-4.2-17.9-4.2-17.9 0 0 0 7.6 0 34l1.4 0.8 0.1 1.1h-6v-1.1l1-0.8v-17.5l-0.3 0.3c-0.3 0.3-0.5 0.4-0.7 0.5-0.4 0.1-0.4 0.1-0.1 0.3l-0.1 0.2c-0.1 0-0.3 0.1-0.4 0.2-0.1 0-0.3 0.1-0.5 0.1-0.2 0-0.5-0.1-0.7-0.1-0.2-0.1-0.4-0.1-0.4-0.1 0 0 0.1 0.1 0.2 0.2 0 0.1 0.2 0.2 0.2 0.2 0.2 0.1 0.1 0.1 0 0.2-0.1 0.1-0.3 0.2-0.4 0.2-0.2 0-0.3 0-0.5 0-0.2 0-0.4-0.1-0.5-0.2-0.2-0.1-0.4-0.2-0.5-0.3-0.1-0.1-0.2-0.2-0.3-0.2 0 0.1 0 0.1 0.1 0.2 0.1 0.1 0.2 0.3 0.3 0.4 0.1 0.1 0.2 0.2 0.2 0.2 0 0-0.2 0.1-0.3 0.1-0.2 0.1-0.5 0.1-0.6 0.1-0.1 0-0.4 0-0.5-0.1-0.2 0-0.5-0.2-0.7-0.3-0.1-0.2-0.3-0.3-0.3-0.3 0 0 0.1 0.2 0.2 0.3 0.1 0.1 0.1 0.2 0.1 0.3 0 0-0.1 0-0.6-0.1v0.3c0 0.1-0.1 0.4-0.1 0.7-0.1 0.3-0.2 0.7-0.3 0.9-0.1 0.2-0.4 0.5-0.5 0.7-0.2 0.2-0.3 0.3-0.3 0.4 0 0 0.2 0.1 0.4 0.2q0.4 0.2 0.7 0.5c0.2 0.2 0.3 0.4 0.4 0.6 0 0.2 0.1 0.4 0.1 1l-0.2-0.2c-0.1-0.1-0.3-0.2-0.4-0.3-0.1 0-0.3-0.1-0.4-0.1q-0.1 0-0.1 0.1c0 0 0.1 0.2 0.3 0.4 0.3 0.2 0.5 0.5 0.6 0.7 0.1 0.1 0.3 0.5 0.3 0.7 0.1 0.3 0.1 0.4 0 0.7q-0.1 0.3-0.4 0.6c-0.1 0.1-0.2 0.2-0.2 0.2 0 0-0.1-0.1-0.1-0.2-0.1-0.2-0.2-0.4-0.2-0.5-0.1-0.1-0.2-0.1-0.3-0.1 0 0 0 0 0.1 0.3 0.1 0.2 0.2 0.5 0.2 0.7 0 0.1-0.1 0.4-0.1 0.5q-0.2 0.4-0.4 0.7c-0.2 0.1-0.4 0.2-0.4 0.2q-0.1 0-0.1-0.1c0-0.1-0.1-0.2-0.2-0.2q-0.2-0.1-0.3 0c-0.1 0-0.2 0.1-0.3 0.2-0.1 0.1-0.3 0.4-0.4 0.7-0.1 0.2-0.2 0.6-0.3 0.7 0 0.2 0.2 0.6 1.5 4l1.5 0.9h0.7c0.5 0.1 1 0.2 1.2 0.2q0.4 0.1 0.7 0.4c0.2 0.1 0.3 0.3 0.4 0.5 0.1 0.1 0.1 0.4 0.2 0.7 0 0.2 0 0.6 0.1 0.7 0 0.2 0 0.3-0.1 0.4-0.1 0.1-0.3 0.1-0.7 0.2v-0.2c0-0.2 0-0.2-0.2-0.2q-0.2 0-0.3 0.1c-0.1 0.1-0.2 0.2-0.7 0.2v-0.2q0-0.2 0-0.2c-0.1 0-0.2 0.1-0.3 0.2-0.2 0.1-0.3 0.2-0.4 0.2q-0.1 0-0.2-0.1c0-0.1-0.1-0.2-0.1-0.2-0.1 0-0.6-0.1-1.3-0.1-0.9 0-1.1 0-1.3-0.1-0.2 0-0.3-0.2-0.4-0.3-0.1-0.1-0.9-1.3-1.7-2.7-0.8-1.4-1.5-2.7-1.6-2.9-0.1-0.1-0.4-0.4-0.6-0.5-0.2-0.2-0.4-0.4-0.4-0.5 0-0.1 0-0.2 0.1-0.3 0-0.1 0.5-0.7 0.9-1.3 0.9-1.1 0.9-1.1 0.9-1.4 0-0.2 0-0.4-0.1-0.5 0-0.1-0.2-0.2-0.3-0.3-0.1-0.1-0.7-0.4-1.5-0.8-1-0.4-1.3-0.6-1.4-0.5 0 0 0 0.1-0.1 0.2 0 0.1 0 0.3 0 0.4 0.1 0.2 0.2 0.4 0.4 0.5 0.1 0.2 0.3 0.5 0.3 0.6 0.1 0.1 0.1 0.3 0.1 0.5 0 0.2 0 0.2-0.1 0.2-0.1 0-0.1 0 0 0.3 0.1 0.1 0.1 0.4 0.1 0.6 0 0.2 0 0.3-0.1 0.3 0-0.1 0 0 0 0.2 0 0.2 0 0.7 0 1.1 0 0.5 0 0.8-0.1 1 0 0.2-0.2 0.5-0.3 0.7-0.1 0.1-0.2 0.2-0.2 0.3q-0.1 0-0.1-0.3c0-0.2 0-0.3-0.2-0.5q-0.1-0.3-0.5-0.7l0.1 0.5c0 0.3 0 0.5-0.1 0.8 0 0.2-0.2 0.5-0.3 0.6-0.1 0.2-0.3 0.4-0.5 0.5-0.1 0.1-0.4 0.2-0.5 0.3-0.1 0-0.3 0-0.5 0.1-0.2 0-0.3 0-0.2-0.1 0.1 0 0.1-0.2 0.2-0.3 0-0.1 0-0.3 0-0.6l-0.3 0.2c-0.2 0.2-0.5 0.4-0.6 0.4-0.2 0.1-0.6 0.2-0.8 0.3-0.2 0-0.5 0.1-0.7 0.1-0.1 0-0.2 0-0.2-0.1 0 0 0-0.1 0.2-0.2q0.2-0.2 0.2-0.3c0-0.1-0.1-0.2-0.3-0.3-0.1 0-0.3-0.1-0.5-0.1-0.1 0-0.4 0.1-0.7 0.1-0.2 0.1-0.6 0.3-0.9 0.4-0.4 0.2-0.6 0.3-1 0.7-0.2 0.2-0.5 0.6-0.7 0.8-0.1 0.2-0.2 0.4-0.2 0.6-0.1 0.2 0 0.2 0.1 0.4 0.2 0.2 0.3 0.2 0.7 0.3 0.3 0 0.7 0.1 0.8 0.2 0.1 0.1 0.4 0.2 0.5 0.4 0.1 0.1 0.3 0.3 0.3 0.5 0 0.1 0 0.3 0 0.3 0 0 0 0.1 0.1 0.2q0.1 0.2 0.1 0.4c0 0.2 0 0.4-0.1 0.4 0 0.1-0.1 0.2-0.2 0.2 0 0-0.2-0.1-0.6-0.5l-0.1 0.2c0 0.2-0.2 0.3-0.3 0.4-0.1 0-0.2 0.1-0.3 0.1q-0.1 0-0.1-0.2c0-0.1 0-0.2 0-0.3q-0.1 0-0.1 0-0.1 0-0.1 0.1c0 0-0.1 0.1-0.2 0.2-0.1 0-0.3 0.1-0.4 0.1-0.3 0-0.3 0-0.3-0.1 0-0.1 0-0.2-0.1-0.2q-0.1-0.1-0.7 0c-0.4 0-0.8 0-1.1 0q-0.5 0-0.8-0.2-0.3-0.1-0.5-0.4c-0.1-0.1-0.3-0.4-0.3-0.6q-0.1-0.3-0.1-0.7c0-0.2 0.1-0.6 0.2-0.8 0.1-0.2 0.3-0.6 0.5-0.9 0.2-0.3 0.6-0.9 0.9-1.3 0.3-0.4 0.6-0.9 0.8-1.2 0.1-0.3 0.3-0.7 0.3-1q0.2-0.5 0.2-1.2h1.5c0.9 0 1.7 0 1.8 0 0.2 0 0.3-0.1 0.4-0.2 0.1-0.1 0.3-0.2 0.3-0.3 0.1-0.2 0.2-0.3 0.2-0.7 0-0.2-0.1-0.7-0.2-1.1 0-0.3-0.1-0.9-0.1-1.1 0-0.3 0-0.5 0-0.5-0.1 0-0.3 0.2-0.6 0.5-0.3 0.2-0.7 0.6-1 0.8-0.3 0.2-0.7 0.4-0.9 0.5-0.2 0.1-0.6 0.2-0.9 0.3-0.2 0.1-0.6 0.1-1 0.1-0.3 0-0.7 0-0.8-0.1-0.2 0-0.4-0.2-0.6-0.3-0.1-0.1-0.3-0.3-0.5-0.5-0.1-0.1-0.2-0.3-0.2-0.3q0-0.1 0.2 0c0.1 0 0.4 0 0.6 0 0.3 0 0.5 0 0.5 0 0 0-0.1-0.2-0.2-0.3-0.1-0.1-0.3-0.3-0.3-0.4-0.1-0.2-0.2-0.4-0.2-0.6q0-0.4 0.1-0.8c0-0.2 0.1-0.5 0.2-0.7 0.1-0.1 0.5-0.6 0.8-1.1 0.3-0.4 0.7-0.9 0.9-1.2 0.2-0.3 0.4-0.6 0.4-0.8 0.1-0.2 0.1-0.5 0.1-0.8q0-0.4-0.1-0.9h0.2c0.1 0 0.3 0.1 0.4 0.1 0.1 0.1 0.3 0.2 0.4 0.3 0.1 0.1 0.3 0.3 0.6 0.7l0.1-0.2c0.1-0.1 0.3-0.3 0.3-0.4 0.1-0.2 0.1-0.5 0.2-1.5l0.3 0.2c0.2 0.1 0.4 0.4 0.4 0.5 0.1 0.1 0.2 0.3 0.2 0.5 0 0.1 0.1 0.2 0.1 0.2 0 0 0.2-0.2 0.5-0.5 0.3-0.3 0.5-0.5 0.6-0.9 0.2-0.4 0.2-0.5 0.2-1.1 0-0.5 0-0.6-0.2-1-0.1-0.2-0.3-0.5-0.5-0.7-0.3-0.3-0.6-0.5-0.9-0.6-0.3-0.2-0.8-0.4-1.1-0.5-0.3-0.1-0.8-0.4-1.1-0.5-0.2-0.2-0.6-0.4-0.8-0.6-0.1-0.2-0.3-0.5-0.4-0.7-0.1-0.2-0.1-0.5-0.1-0.6 0-0.2 0-0.5 0.1-0.7 0-0.3 0-0.4-0.1-0.8-0.1-0.4-0.2-0.7-0.2-1 0-0.4 0-0.5 0.2-0.8 0.2-0.4 0.2-0.5 0.2-0.9 0-0.3 0-0.5 0-0.5 0 0 0.1 0.1 0.2 0.2 0 0.2 0.1 0.5 0.2 0.7 0 0.3 0.1 0.5 0.1 0.7 0.1 0.1 0.2 0.2 0.3 0.3q0 0.1 0.1 0c0 0-0.1-0.2-0.1-0.5-0.1-0.2-0.2-0.6-0.2-0.7-0.1-0.3 0-0.4 0-0.7 0.1-0.2 0.3-0.6 0.5-0.8 0.1-0.3 0.3-0.5 0.4-0.5q0 0 0 0.1c0 0.1 0.1 0.2 0.1 0.2 0 0 0.2-0.1 0.3-0.3 0.2-0.1 0.5-0.4 0.7-0.5 0.2-0.2 0.5-0.3 0.7-0.4 0.2-0.1 0.3-0.1 0.3-0.1 0.1 0.1 0 0.2-0.2 0.4-0.1 0.2-0.3 0.5-0.4 0.7-0.1 0.2-0.2 0.5-0.2 0.9l0.2-0.2c0.2-0.1 0.4-0.3 0.6-0.3 0.2-0.1 0.4-0.2 0.7-0.2 0.3 0 0.6 0.1 0.7 0.1 0.1 0 0.2 0.1 0.3 0.1 0 0-0.1 0.1-0.2 0.2-0.1 0-0.3 0.3-0.5 0.5-0.2 0.2-0.4 0.5-0.5 0.7 0 0.2-0.1 0.5-0.2 0.7q0 0.4 0 0.8c0.1 0.3 0.2 0.7 0.2 1 0.1 0.2 0.5 1.1 0.9 1.9 0.4 0.7 0.8 1.6 0.9 2 0.2 0.3 0.3 0.8 0.4 1.1 0.1 0.3 0.1 0.8 0.2 1.2 0 0.6 0 0.9-0.1 1.2-0.1 0.2-0.2 0.7-0.4 0.9-0.1 0.3-0.4 0.8-0.6 1.1-0.3 0.2-0.6 0.6-0.8 0.8-0.2 0.1-1.2 0.8-2.2 1.5-1.1 0.7-2.1 1.4-2.3 1.6-0.1 0.2-0.3 0.4-0.4 0.5-0.1 0.2-0.1 0.4-0.1 0.6-0.1 0.2 0 0.3 0.1 0.5 0 0.2 0.2 0.4 0.3 0.5 0.2 0.2 0.3 0.3 0.6 0.3 0.2 0.1 0.4 0.1 0.8 0q0.4 0 0.9-0.3c0.3-0.1 0.8-0.4 1.1-0.6 0.4-0.4 0.7-0.6 1.1-1 0.2-0.4 0.7-0.9 1-1.1 0.3-0.3 0.9-0.8 1.2-1 0.3-0.3 0.9-0.7 1.1-1 0.3-0.3 0.7-0.7 0.9-0.9 0.1-0.3 0.4-0.7 0.8-1.5v-0.7c-0.1-0.6-0.1-0.9-0.2-1.3-0.1-0.3-0.2-0.7-0.3-0.8 0-0.2 0-0.6-0.1-1.4h-0.2c-0.1 0-0.2-0.1-0.2-0.1-0.1-0.1 0-0.2 0.1-0.2 0.1-0.1 0.2-0.3 0.3-0.5 0-0.1 0.1-0.4 0.1-0.7 0-0.2 0-0.5 0-0.6 0-0.2 0-0.2-0.3-0.2-0.1 0-0.4 0-0.6-0.1-0.2-0.1-0.4-0.2-0.6-0.2-0.1-0.1-0.2-0.2-0.2-0.3q0 0 0.1 0c0.1-0.1 0.3-0.2 0.5-0.3 0.1-0.1 0.3-0.2 0.3-0.3 0.1-0.1 0.2-0.3 0.3-0.4 0-0.2 0-0.3 0-0.4 0-0.1 0-0.1-0.3-0.2-0.2 0-0.5-0.1-1-0.3l0.2-0.2c0.2-0.1 0.4-0.3 0.5-0.4 0.1-0.2 0.2-0.4 0.2-0.5 0.1-0.1 0.2-0.6 0.2-1 0.1-0.4 0.1-0.8 0.1-0.8q0-0.1-0.1-0.1c-0.1 0-0.3 0-0.5 0-0.1-0.1-0.3-0.1-0.3-0.1-0.1-0.1 0-0.2 0.4-0.4 0.3-0.2 0.5-0.4 0.6-0.6 0-0.2 0.1-0.4 0.1-0.5 0-0.1 0-0.2-0.5-0.3l0.2-0.2c0.1-0.1 0.3-0.4 0.4-0.6 0.1-0.2 0.3-0.5 0.4-0.7 0.2-0.2 0.2-0.3 0.1-0.6 0-0.2 0-0.4 0.1-0.5 0-0.1 0.2-0.3 0.3-0.4 0.1-0.2 0.3-0.3 0.5-0.3 0.1 0 0.3-0.1 0.4 0 0 0 0.1 0 0.2 0 0 0.1 0.1 0 0.1-0.3 0-0.1 0.1-0.3 0.1-0.3 0.1-0.1 0.3-0.1 0.7-0.1l0.3-0.3c0.2-0.3 0.4-0.4 0.4-0.4q0.1 0 0.1 0c0 0.1 0.1 0.2 0.3 0.2 0.1 0.1 0.3 0.2 0.4 0.2 0.1 0 0.1-0.1 0.2-0.4 0.1-0.2 0.1-0.4 0.1-0.4 0 0 0.3 0 0.6 0.2 0.3 0.1 0.6 0.2 0.7 0.4 0.3 0.2 0.3 0.2 0.7 0.2 0.3 0 0.5 0 0.6 0.1 0.1 0.1 0.3 0.1 0.4 0.1 0.1 0.1 0.4 0.2 0.7 0.3 0.2 0.1 0.6 0.3 0.7 0.5 0.2 0.1 0.4 0.4 0.4 0.5 0 0.1 0.1 0.3 0 0.5 0 0.1 0 0.3-0.2 0.6l0.1 0.5c0.1 0.2 0.3 0.7 0.4 1.1 0 0.5 0.2 0.9 0.2 1 0 0.1 0.1 0.3 0.2 0.4 0.2 0.3 0.2 0.3 0.1 0.3-0.1 0.1-0.3 0.1-0.9 0.1l0.1 0.2c0.1 0.1 0.3 0.6 1 2.1l2-2.1c1.3-1.4 2-2.2 2.1-2.4q0.2-0.3 0.2-0.6c0-0.2 0-0.5-0.1-0.8 0-0.3 0-0.6 0-0.8 0-0.2 0.1-0.4 0.3-0.5 0.2-0.2 0.3-0.3 0.6-0.4 0.3 0 0.5-0.1 0.7-0.3 0.1-0.2 0.3-0.3 0.3-0.3 0.1 0 0.1-0.7 0.1-11.7l-1-0.8v-0.5c0-0.3 0-0.5 0-0.5 0-0.1 1.9-0.1 4.2-0.1zm-3.9 20.1c0 0.1-0.1 0.3-0.1 0.4v0.1c0.2-0.2 0.3-0.3 0.3-0.2 0 0 0 0.2 0 0.3 0 0.2 0 0.5-0.1 0.6 0 0.2-0.2 0.4-0.4 0.5-0.1 0.2-0.5 0.4-0.9 0.6-0.3 0.1-0.7 0.3-0.7 0.4-0.1 0.1-0.1 0.1 0.1 0 0.1 0 0.4-0.1 0.6-0.2l0.4-0.2c0 0.3-0.1 0.6-0.3 0.9-0.1 0.3-0.3 0.6-0.5 0.7-0.1 0.2-0.4 0.3-0.5 0.4-0.2 0-0.4 0.1-0.4 0.2q0 0 0.3 0c0.3-0.1 0.3-0.1 0.3 0.1 0 0-0.1 0.3-0.2 0.5-0.1 0.2-0.3 0.4-0.4 0.5-0.1 0.1-0.4 0.3-0.6 0.4l-0.3 0.2c0.4-0.1 0.5-0.1 0.5 0 0 0 0 0.2-0.1 0.3 0 0.1-0.2 0.3-0.3 0.5-0.2 0.2-0.3 0.3-0.2 0.4 0 0 0.3 0 0.6 0 0.3 0.1 0.6 0.1 0.8 0.1 0.1-0.1 0.3-0.2 0.4-0.2 0.1-0.1 0.2-0.3 0.3-0.5 0.1-0.2 0.2-0.5 0.3-0.8 0-0.2 0.1-0.6 0.2-0.8 0.1-0.3 0.2-0.5 0.3-0.6 0-0.1 0.2-0.2 0.4-0.3 0.1-0.1 0.4-0.1 0.6-0.1h0.3c0-4.1 0-5.2 0-5.2 0 0-0.1 0.2-0.3 0.4-0.1 0.2-0.3 0.5-0.4 0.6zm46.4-7.5l0.1 0.5c0.1 0.3 0.1 0.4 0.3 0.4 0 0 0.2-0.1 0.4-0.2 0.2-0.1 0.4-0.2 0.4-0.2 0 0 0.1 0.2 0.3 0.4 0.2 0.3 0.3 0.3 0.5 0.3 0.1 0 0.3 0 0.4 0 0.1 0.1 0.1 0.1 0.2 0.4 0 0.3 0 0.4 0.1 0.3 0.1 0 0.2 0 0.3 0 0-0.1 0.2 0 0.4 0 0.1 0 0.3 0.1 0.4 0.2 0.1 0.1 0.2 0.3 0.3 0.5q0.1 0.3 0.1 0.5c-0.1 0.3-0.1 0.4 0.2 0.7 0.1 0.1 0.3 0.5 0.4 0.7 0.1 0.2 0.2 0.4 0.5 0.7l-0.5 0.1v0.3q0 0.3 0.2 0.5c0.1 0.1 0.3 0.4 0.6 0.5 0.2 0.2 0.3 0.3 0.3 0.3 0 0-0.1 0.1-0.2 0.1-0.1 0.1-0.3 0.1-0.4 0.1-0.3 0-0.3 0-0.3 0.1 0 0.1 0 0.5 0.1 0.9 0 0.5 0.1 0.8 0.2 1 0.1 0.2 0.3 0.4 0.4 0.5 0.1 0.1 0.2 0.3 0.3 0.3 0.2 0.1 0.2 0.1 0.1 0.2 0 0.1-0.2 0.1-0.5 0.2-0.2 0.1-0.4 0.1-0.5 0.2-0.3 0-0.3 0-0.2 0.2 0 0.2 0.1 0.4 0.2 0.5 0.1 0.2 0.2 0.4 0.4 0.5 0.1 0.1 0.3 0.2 0.7 0.3l-0.2 0.2c-0.1 0-0.3 0.1-0.5 0.2-0.1 0.1-0.5 0.2-1.1 0.2v0.7c0 0.6 0 0.7 0.2 1 0.1 0.1 0.2 0.3 0.3 0.3q0.1 0 0.1 0.1c0 0-0.1 0.1-0.1 0.1-0.1 0.1-0.2 0.1-0.3 0.1-0.1 0-0.1 0.2-0.1 0.5-0.1 0.3-0.1 0.7-0.2 0.9 0 0.2-0.1 0.6-0.2 1-0.1 0.4-0.2 0.8-0.2 1.2 0 0.5 0 0.7 0.1 0.9 0.1 0.2 0.3 0.6 0.5 0.9 0.2 0.3 0.7 0.8 1 1.1 0.3 0.3 0.9 0.8 1.2 1.1 0.4 0.3 1.1 0.9 1.5 1.3 0.4 0.4 0.9 0.9 1 1.1 0.2 0.2 0.6 0.5 1 0.8 0.4 0.3 0.9 0.5 1.1 0.6 0.2 0.1 0.5 0.2 0.7 0.2 0.3 0.1 0.6 0.1 0.7 0 0.2 0 0.4-0.1 0.5-0.1 0.1-0.1 0.3-0.3 0.4-0.4 0.1-0.1 0.2-0.4 0.2-0.5 0.1-0.1 0.1-0.3 0-0.5 0-0.1-0.1-0.3-0.1-0.4-0.1-0.2-0.3-0.4-0.5-0.5-0.1-0.2-1.1-0.9-2.2-1.6-1.5-1-2.1-1.4-2.5-1.8-0.3-0.3-0.6-0.7-0.8-0.9-0.1-0.2-0.3-0.6-0.4-0.8-0.1-0.2-0.2-0.5-0.3-0.8-0.1-0.3-0.1-0.5-0.1-1.2 0.1-0.5 0.1-1 0.2-1.4 0.1-0.3 0.3-0.7 0.4-1 0.1-0.2 0.4-1.1 0.8-1.8 0.4-0.8 0.8-1.7 1-2.1 0.1-0.5 0.2-0.6 0.2-1.3 0-0.7 0-0.7-0.3-1.2-0.2-0.3-0.3-0.6-1.1-1.3l0.2-0.1c0.1 0 0.4 0 0.6-0.1 0.3 0 0.6 0 0.7 0.1 0.2 0 0.4 0.2 0.6 0.3 0.2 0.1 0.4 0.2 0.4 0.2 0 0 0-0.1 0-0.2 0-0.2-0.1-0.4-0.2-0.6-0.1-0.2-0.3-0.5-0.4-0.6-0.1-0.2-0.3-0.4-0.3-0.4q0.1-0.1 0.1-0.1c0 0 0.2 0.1 0.4 0.1 0.1 0.1 0.4 0.2 0.6 0.4 0.2 0.1 0.5 0.4 0.7 0.5 0.2 0.2 0.3 0.3 0.3 0.3 0.1 0 0.1-0.1 0.1-0.4l0.2 0.3c0.2 0.1 0.4 0.5 0.5 0.7 0.2 0.3 0.2 0.5 0.2 0.8 0 0.2 0 0.5-0.1 0.7 0 0.2-0.1 0.4-0.1 0.6-0.1 0.2-0.2 0.2-0.1 0.2 0.1 0 0.2-0.1 0.3-0.2 0.1-0.1 0.2-0.4 0.2-0.7 0.1-0.3 0.2-0.6 0.2-0.7 0.1-0.1 0.1-0.2 0.2-0.2 0 0 0 0.2 0 0.5 0 0.4 0 0.5 0.2 0.8 0.2 0.3 0.2 0.5 0.2 0.8 0 0.2 0 0.5-0.1 0.6 0 0.2-0.1 0.5-0.1 0.6-0.1 0.3-0.1 0.4 0 0.8 0 0.3 0 0.5 0 0.7-0.1 0.2-0.1 0.5-0.2 0.6-0.1 0.1-0.3 0.4-0.5 0.6-0.2 0.2-0.5 0.4-0.9 0.6-0.3 0.2-0.9 0.4-1.3 0.6-0.3 0.1-0.8 0.4-1 0.5-0.2 0.1-0.5 0.4-0.6 0.5-0.2 0.2-0.4 0.5-0.5 0.7-0.1 0.3-0.1 0.4-0.2 0.8q0 0.5 0.1 0.9c0.1 0.1 0.2 0.5 0.4 0.7 0.1 0.2 0.4 0.5 0.6 0.7 0.1 0.2 0.3 0.3 0.3 0.3q0.1 0 0.1-0.1c0-0.1 0-0.2 0-0.4 0.1-0.1 0.2-0.3 0.4-0.5 0.2-0.2 0.4-0.4 0.5-0.4 0 0 0 0.2 0 0.6 0 0.4 0.1 0.6 0.2 0.9q0.1 0.2 0.4 0.6l0.2-0.2c0-0.2 0.2-0.4 0.4-0.5 0.2-0.1 0.4-0.3 0.6-0.3 0.1-0.1 0.3-0.1 0.3-0.1 0 0 0 0.1 0 0.2 0 0.1 0 0.4 0 0.7 0 0.2 0 0.6 0 0.7 0.1 0.1 0.2 0.5 0.4 0.7 0.1 0.3 0.6 0.9 0.9 1.4 0.4 0.5 0.8 1 0.9 1.2 0.1 0.2 0.2 0.6 0.3 0.8q0 0.4 0 0.7c-0.1 0.2-0.1 0.4-0.2 0.5-0.1 0.2-0.2 0.4-0.3 0.5-0.1 0.1-0.2 0.2-0.2 0.2 0 0 0.2 0 0.4 0 0.3 0 0.5 0 0.7 0 0.2-0.1 0.2-0.1 0.2 0 0 0.1-0.2 0.3-0.4 0.5q-0.3 0.4-0.7 0.5c-0.3 0.2-0.4 0.2-1 0.2q-0.6 0-1.1-0.1c-0.2-0.1-0.7-0.3-1-0.4-0.3-0.2-0.8-0.4-1-0.6-0.3-0.2-0.6-0.5-1.3-1.1v0.6c0 0.4-0.1 0.9-0.2 1.1 0 0.3-0.1 0.7-0.1 0.9 0 0.4 0 0.6 0.1 0.8q0.2 0.2 0.5 0.4c0.2 0.1 0.2 0.1 3.6 0.1v0.4c0 0.1 0.1 0.5 0.1 0.7 0.1 0.3 0.3 0.7 0.4 1 0.1 0.3 0.5 0.9 0.8 1.3 0.3 0.4 0.7 0.9 0.8 1.1 0.2 0.3 0.4 0.8 0.6 1.1 0.2 0.6 0.2 0.6 0.2 1 0 0.2-0.1 0.6-0.2 0.7-0.1 0.2-0.2 0.5-0.4 0.6-0.1 0.1-0.4 0.3-0.5 0.3-0.2 0.1-0.6 0.1-1 0.1-0.4 0-0.9 0-1.1 0-0.4 0-0.4 0-0.4 0.1 0 0.1-0.1 0.2-0.1 0.2-0.1 0.1-0.3 0-0.4 0-0.2-0.1-0.3-0.2-0.3-0.3-0.1-0.1-0.2-0.1-0.2-0.1 0 0-0.1 0.1-0.1 0.2 0 0.2 0 0.3-0.1 0.3-0.1 0-0.3-0.1-0.4-0.2-0.1 0-0.2-0.2-0.2-0.3-0.1-0.1-0.1-0.2-0.2-0.2 0 0-0.1 0.1-0.2 0.2-0.1 0.2-0.3 0.3-0.3 0.3-0.1 0-0.2-0.1-0.2-0.2q-0.2-0.1-0.2-0.3c0-0.1 0.1-0.3 0.2-0.4 0-0.1 0.1-0.3 0.1-0.5 0-0.1 0.1-0.3 0.1-0.4 0.1-0.1 0.3-0.3 0.4-0.4 0.1-0.1 0.3-0.2 0.5-0.3 0.1 0 0.3-0.1 0.6-0.1 0.2 0 0.4-0.1 0.5-0.1 0.1-0.1 0.2-0.2 0.3-0.3 0-0.1 0-0.2 0-0.4 0-0.2-0.1-0.4-0.2-0.5-0.2-0.2-0.4-0.5-0.6-0.7-0.2-0.2-0.5-0.5-0.8-0.6-0.2-0.2-0.6-0.4-0.9-0.4-0.2-0.1-0.7-0.2-0.9-0.2-0.3-0.1-0.5 0-0.7 0q-0.2 0.1-0.2 0.3 0 0.1 0.3 0.3c0.1 0.1 0.2 0.2 0.1 0.2 0 0.1-0.1 0.1-0.2 0.1-0.1 0-0.4-0.1-0.7-0.1-0.3-0.1-0.6-0.2-0.8-0.3-0.2-0.1-0.5-0.3-0.8-0.6l-0.1 0.2c0 0 0 0.2 0 0.3 0.1 0.2 0.1 0.3 0.2 0.4 0 0.1 0 0.1-0.3 0.1-0.2-0.1-0.5-0.2-0.7-0.3-0.2-0.1-0.5-0.2-0.6-0.4-0.1-0.1-0.3-0.4-0.3-0.5-0.1-0.3-0.2-0.5-0.2-0.9 0-0.3 0-0.6 0-0.6 0 0-0.2 0.2-0.3 0.4-0.3 0.3-0.3 0.4-0.3 1l-0.2-0.2c-0.2-0.2-0.3-0.5-0.4-0.7-0.1-0.3-0.1-0.5-0.1-1.1 0-0.5 0-0.9 0-1.1 0-0.1 0-0.2 0-0.2-0.1 0-0.1-0.1-0.1-0.1-0.1-0.1-0.1-0.3 0-0.4 0-0.1 0.1-0.3 0.3-0.7h-0.2c-0.1 0.1-0.1 0.1-0.1-0.2 0-0.2 0-0.4 0.1-0.5 0-0.1 0.1-0.3 0.3-0.5 0.1-0.1 0.2-0.3 0.3-0.4q0.1-0.3 0.1-0.5c-0.1-0.2-0.1-0.3-0.1-0.3-0.1-0.1-0.4 0.1-1.5 0.5-1.1 0.6-1.4 0.8-1.6 0.9-0.1 0.2-0.2 0.4-0.2 0.5 0 0.1 0 0.3 0 0.5 0.1 0.1 0.5 0.7 1 1.3q0.9 1.2 0.9 1.3c0 0.2-0.1 0.3-0.4 0.6-0.4 0.3-0.5 0.5-0.9 1.1-0.3 0.5-1 1.7-1.7 2.9-0.6 1.1-1.2 2.1-1.3 2.2-0.1 0-0.2 0.2-0.4 0.2-0.2 0.1-0.4 0.1-1.4 0.1-1 0-1.1 0-1.2 0.2-0.1 0-0.2 0.1-0.2 0.1 0 0.1 0 0.1-0.1 0.1q-0.2 0-0.4-0.2c-0.1-0.1-0.2-0.2-0.3-0.2-0.1 0-0.1 0.1 0 0.4h-0.3c-0.1 0-0.3-0.1-0.4-0.2-0.1 0-0.3-0.1-0.4-0.1-0.1 0-0.1 0-0.1 0.2 0 0.2 0 0.2-0.1 0.2-0.1 0-0.3-0.1-0.4-0.1-0.1 0-0.2-0.1-0.3-0.2-0.1-0.2-0.1-0.2 0-0.5 0.1-0.2 0.1-0.4 0.2-0.6 0-0.2 0-0.4 0.1-0.6 0-0.1 0.2-0.3 0.3-0.4 0.1-0.2 0.4-0.3 0.5-0.4 0.2-0.1 0.5-0.2 0.8-0.2 0.2 0 0.6-0.1 0.8-0.1 0.1 0 0.4 0 0.5 0 0.1 0 0.5-0.3 1.6-0.9l0.7-2c0.8-1.9 0.8-1.9 0.7-2.2 0-0.1-0.2-0.4-0.3-0.7-0.1-0.2-0.3-0.5-0.4-0.6q-0.2-0.2-0.4-0.1c-0.1 0-0.2 0-0.2 0.1-0.1 0-0.1 0.1-0.1 0.2-0.1 0.1-0.1 0-0.4-0.2-0.1-0.1-0.3-0.4-0.4-0.5-0.1-0.2-0.2-0.4-0.2-0.7 0-0.2 0.1-0.5 0.2-0.7 0-0.2 0.1-0.3 0.1-0.3-0.1 0-0.2 0-0.3 0.1-0.1 0.2-0.2 0.4-0.2 0.5 0 0.1-0.1 0.2-0.1 0.2 0 0-0.1-0.1-0.3-0.2-0.1-0.2-0.2-0.4-0.3-0.6 0-0.1-0.1-0.4 0-0.6 0-0.1 0.1-0.4 0.2-0.7 0.1-0.3 0.3-0.5 0.6-0.8 0.3-0.2 0.4-0.4 0.4-0.4 0-0.1-0.2 0-0.3 0q-0.3 0-0.5 0.2c-0.2 0.2-0.3 0.2-0.3 0.1 0 0 0-0.2 0-0.4 0-0.1 0.1-0.4 0.2-0.5 0.1-0.2 0.2-0.5 0.4-0.6 0.2-0.2 0.5-0.4 0.6-0.5 0.2 0 0.4-0.1 0.4-0.1q0.1 0 0.1 0c0 0-0.2-0.2-0.4-0.4-0.1-0.2-0.4-0.6-0.5-0.8-0.1-0.2-0.2-0.6-0.3-0.8q-0.1-0.4-0.2-1l-0.2 0.1c-0.2 0-0.3 0-0.3 0 0-0.1 0-0.2 0.1-0.3 0.1-0.1 0.2-0.2 0.1-0.2 0-0.1-0.1 0-0.2 0.1-0.1 0.1-0.3 0.3-0.5 0.4-0.1 0-0.4 0.1-0.6 0.1-0.2 0-0.5 0-1-0.2l0.3-0.3c0.1-0.2 0.3-0.4 0.3-0.4q0-0.1-0.1-0.1 0 0-0.1 0.1c-0.1 0.1-0.2 0.2-0.4 0.3-0.1 0.1-0.4 0.2-0.6 0.3-0.2 0.1-0.3 0.1-0.6 0q-0.2 0-0.5-0.3l0.2-0.2c0.2-0.1 0.3-0.2 0.3-0.3 0 0-0.1 0-0.4 0.1-0.1 0-0.4 0.1-0.6 0.1-0.2 0-0.5-0.1-0.6-0.1-0.1 0-0.3-0.2-0.5-0.4l0.1-0.1c0.2 0 0.2-0.1-0.1-0.2-0.2 0-0.4-0.2-0.6-0.3-0.1 0-0.3-0.2-0.4-0.4-0.1-0.1-0.2-0.4-0.2-0.6-0.1-0.2-0.1-0.6-0.2-0.9 0-0.2-0.1-0.6-0.2-0.7-0.1-0.2-0.1-0.3-0.3-0.3q-0.2 0-0.2 0.1-0.1 0.2-0.1 0.2c0-0.1-0.1-0.2-0.1-0.3 0-0.1 0-0.3 0-0.4 0-0.2 0.1-0.3 0.2-0.5 0.1 0 0.3-0.1 0.4-0.1q0.1 0 0.1-0.1 0 0 0-0.1c-0.1 0-0.2-0.1-0.3-0.1-0.1 0-0.2 0.1-0.2 0.1q0 0.1-0.1 0.1c-0.1 0-0.1-0.1-0.1-0.3 0-0.2 0-0.3 0.2-0.4q0.1-0.2 0.4-0.2c0.3 0 0.3-0.1 0.2-0.1 0-0.1-0.2-0.2-0.3-0.2-0.1 0-0.3-0.1-0.3-0.1q0-0.1 0.1-0.2c0 0 0.1-0.1 0.2-0.1 0.2-0.1 0.4-0.1 0.8-0.1 0.4 0 0.7 0 0.9 0.1 0.1 0.1 0.3 0.2 0.4 0.4 0.1 0.1 0.2 0.5 0.3 1 0.1 0.4 0.3 0.9 0.3 1 0.1 0.1 0.2 0.3 0.2 0.4 0.1 0.1 0.2 0.2 0.3 0.3 0.1 0 0.2 0 0.4 0.1 0.1 0 0.4 0 0.7-0.1 0.3 0 0.6 0 0.6 0 0.1-0.1 0-0.2-0.1-0.3-0.1-0.2-0.3-0.4-0.3-0.5q-0.1-0.1-0.3-0.5l0.6 0.1-0.4-0.2c-0.2-0.2-0.5-0.4-0.7-0.5-0.1-0.1-0.2-0.4-0.3-0.5 0-0.1-0.1-0.3-0.1-0.4 0-0.2 0-0.2 0.3-0.1q0.3 0 0.3 0c0-0.1-0.2-0.1-0.3-0.2-0.2-0.1-0.4-0.2-0.7-0.4-0.2-0.3-0.4-0.5-0.5-0.9-0.1-0.2-0.2-0.5-0.2-0.5q0-0.1 0.1-0.1c0 0 0.2 0.1 0.4 0.2 0.3 0.1 0.5 0.2 0.6 0.1 0.1 0 0-0.1-0.6-0.4-0.7-0.3-0.9-0.5-1.1-0.7q-0.3-0.3-0.4-0.6c-0.1-0.2-0.1-0.4-0.1-0.6 0.1-0.1 0.1-0.2 0.1-0.2q0.1 0 0.2 0.1 0 0.1 0.1 0c0 0 0-0.1-0.1-0.2 0-0.1-0.2-0.4-0.4-0.7-0.2-0.2-0.4-0.6-0.4-0.8-0.1-0.1-0.1-0.5-0.1-0.8 0-0.4 0-0.6-0.1-0.7-0.1 0-0.1 0-0.2 0 0 0-0.1 0-0.2 0.1-0.2 0.1-0.2 0.1-0.3 0 0-0.1 0-0.2 0-0.3 0-0.2 0-0.3 0.1-0.4 0.1-0.1 0.2-0.2 0.2-0.2 0.1 0 0.2 0 0.2-0.1q0.2-0.1 0.2-0.4 0-0.2-0.1-0.3c-0.1-0.1-0.2-0.1-0.4 0-0.2 0-0.2 0-0.2-0.2 0-0.1 0.1-0.2 0.1-0.3 0.1 0 0.2-0.2 0.4-0.2q0.2-0.1 0.2-0.3c0 0-0.1-0.2-0.2-0.3 0-0.1-0.2-0.2-0.3-0.3q-0.2-0.1-0.1-0.2c0 0 0.1-0.1 0.2-0.1 0.1-0.1 0.3-0.1 0.4-0.1 0.1 0 0.3 0 0.4 0.1 0.1 0 0.3 0.1 0.4 0.3 0.2 0.1 0.3 0.2 0.6 0.3 0.3 0 0.5 0.1 0.6 0.2 0.1 0.1 0.2 0.3 0.3 0.5 0 0.2 0 0.4 0 1-0.1 0.5-0.1 0.8-0.1 1 0.1 0.1 0.1 0.3 0.2 0.4 0.1 0.1 1 1.1 2.1 2.3 1.1 1.1 1.9 2 2 2 0 0 0.2-0.4 0.5-0.9 0.3-0.6 0.5-1.1 0.5-1.2 0-0.1 0-0.1-0.4-0.1-0.2 0-0.4 0-0.4-0.1q-0.1 0 0.1-0.3c0.1-0.2 0.2-0.4 0.2-0.5 0.1-0.1 0.2-0.7 0.3-1.2 0.1-0.5 0.3-1 0.3-1.1 0.1-0.2 0.1-0.2 0-0.4-0.1-0.1-0.2-0.3-0.2-0.5 0-0.2 0.1-0.4 0.2-0.6 0.1-0.1 0.3-0.3 0.4-0.4 0.1-0.1 0.4-0.3 0.6-0.4 0.3-0.1 0.6-0.2 0.7-0.2 0.1 0 0.3-0.1 0.4-0.2 0.2-0.1 0.3-0.2 0.6-0.1 0.3 0 0.4 0 0.6-0.2 0.1-0.1 0.5-0.3 0.8-0.4z"/><path fill-rule="evenodd" class="b" d="m63.5 2.5v1.1l-1 0.8v9.5h-0.3c-0.1 0-0.3 0-0.4 0.1-0.1 0-0.2 0.1-0.2 0.1q-0.1 0.1 0.1 0.2c0.1 0.1 0.3 0.2 0.3 0.3 0.1 0.1 0.2 0.3 0.2 0.4q0 0.1-0.2 0.2c-0.2 0-0.3 0.2-0.4 0.2 0 0.1-0.1 0.2-0.1 0.3 0 0.2 0 0.2 0.2 0.2 0.2-0.1 0.3-0.1 0.4 0q0.1 0.1 0.1 0.3c0 0.2-0.1 0.3-0.1 0.4-0.1 0.1-0.2 0.1-0.3 0.1 0 0-0.1 0.1-0.2 0.2-0.1 0.1-0.1 0.2-0.1 0.4 0 0.1 0 0.2 0 0.3 0.1 0.1 0.1 0.1 0.3 0 0.1-0.1 0.2-0.1 0.2-0.1 0.1 0 0.1 0 0.2 0.1 0.1 0 0.1 0.2 0.1 0.6 0 0.3 0 0.7 0.1 0.8 0.1 0.3 0.1 0.7 0 5.5l-0.2 0.1c-0.2 0-0.3 0-0.4 0.1-0.1 0-0.2 0.1-0.2 0.1q-0.1 0.1-0.1 0.2c0 0 0.2 0.1 0.3 0.1 0.1 0 0.3 0.1 0.3 0.2 0.1 0 0.1 0.1-0.2 0.1-0.2 0-0.3 0.1-0.6 0.3v-23l0.1-0.1c0.1 0 0.4-0.1 2.1-0.1zm-1.8 23.6c0.1 0 0.2 0.1 0.3 0.1q0 0.1 0 0.1 0 0.1-0.1 0.1c-0.1 0-0.3 0.1-0.6 0.3v-0.2q0-0.2 0.1-0.2 0.1 0 0.1-0.1c0 0 0.1-0.1 0.2-0.1zm0 1.3c0.2 0 0.2 0.1 0.3 0.2 0.1 0.1 0.2 0.5 0.3 0.9 0.1 0.6 0.1 0.9 0.1 9.8 0 5 0 9.2 0 9.2-0.1 0-0.3-0.1-1.1-0.7v-9.6c0-8.4 0-9.5 0.1-9.5q0.1 0 0.1-0.2 0-0.1 0.2-0.1zm-24-24.9h0.6c0.5 0 0.6 0.1 0.6 0.1 0 0.1 1.5 6.1 6.2 26.6l-0.2 1.1c-0.1 0.5-0.3 1-0.3 1q0 0-0.1 0c0 0-1.4-5.9-3.1-13-1.6-7.2-3.2-13.6-3.3-14.4zm-20.6 10.9l0.2 0.1c0.1 0.1 0.3 0.2 0.4 0.3 0.1 0.1 0.2 0.2 0.3 0.3q0 0.2 0.1 0.1c0.1 0 0.2 0 0.3-0.1 0.2 0 0.3-0.1 0.4-0.1q0.1 0 0.2 0.1c0 0 0 0.1-0.1 0.2 0 0.1-0.1 0.2-0.1 0.2 0 0 0.1 0 0.3-0.1q0.2-0.1 0.6-0.1l-0.1 0.2c-0.1 0.1-0.2 0.2-0.2 0.3 0 0.1 0 0.2 0 0.3 0 0.1 0 0.1 0.1 0 0-0.1 0.2-0.2 0.3-0.2 0.1-0.1 0.3-0.1 0.5-0.1 0.1 0 0.3 0 0.4 0.1 0.2 0 0.3 0.1 0.4 0.3 0 0.1 0.1 0.3 0.1 0.4 0 0.2 0 0.4-0.1 0.4 0 0.1-0.2 0.3-0.3 0.3-0.2 0.1-0.3 0.1-0.3 0.1q-0.1 0.1-0.1 0.1c0 0.1 0.2 0.1 0.4 0.2q0.3 0.1 0.4 0.3c0 0.1 0.1 0.4 0.1 0.8 0.1 0.3 0.2 0.7 0.2 0.9 0.1 0.2 0.1 0.4 0.2 0.5q0 0.1-0.1 0.1c-0.1 0-0.2-0.1-0.3-0.2-0.1-0.1-0.2-0.2-0.2-0.2 0 0 0 0.2 0 0.4 0 0.2 0 0.4 0.1 0.6 0.1 0.2 0.3 0.7 0.4 1 0.2 0.4 0.4 0.8 0.4 1.1 0.1 0.2 0.1 0.5 0.1 0.7 0 0.1 0 0.4-0.1 0.6q0 0.2-0.3 0.6h0.2c0.2 0.1 0.3 0.1 0.4 0.2 0.1 0.1 0.3 0.3 0.4 0.5q0.1 0.4 0.2 0.8c0 0.3 0 0.5-0.1 0.7-0.1 0.1-0.2 0.4-0.3 0.5-0.1 0.2-0.2 0.3-0.3 0.3 0 0-0.3-0.1-1.4-0.5l-0.2-0.7c-0.1-0.5-0.2-0.9-0.2-1.1 0-0.3 0.1-0.6 0.1-0.8 0.1-0.3 0.1-0.4 0.1-0.5q0.1 0 0.1 0.2c0 0 0 0.2 0.1 0.3 0.1 0.2 0.2 0.4 0.4 0.6 0.1 0.2 0.3 0.4 0.3 0.6q0.1 0.3 0 0.6 0 0.3 0 0.3c0.1 0 0.1-0.2 0.2-0.3q0.1-0.3 0.1-0.6c0-0.2-0.1-0.4-0.2-0.5 0-0.1-0.1-0.3-0.3-0.4-0.1-0.2-0.2-0.3-0.2-0.4-0.1-0.1-0.1-0.5-0.2-1 0-0.5-0.1-1-0.1-1.3-0.1-0.2-0.1-0.4-0.2-0.4 0 0 0 0.3 0 0.6 0 0.5 0 0.7-0.3 1.7-0.2 0.8-0.3 1.2-0.3 1.5 0 0.2 0 0.5 0.1 0.7 0 0.1 0.1 0.4 0.2 0.5 0.1 0.2 0.1 0.2 0 0.2-0.1 0-0.3-0.1-0.5-0.1-0.4-0.2-0.5-0.2-0.7-0.6-0.1-0.2-0.2-0.5-0.2-0.7 0-0.3 0-0.5 0.1-1 0.1-0.3 0.2-0.6 0.2-0.6-0.1 0-0.1 0.1-0.2 0.2-0.1 0.1-0.2 0.4-0.5 1l-0.3-0.5v0.3c0 0.1 0 0.4 0.1 0.6 0 0.3 0.1 0.5 0.1 0.6 0.1 0.1 0 0.1-0.1 0.1-0.1-0.1-0.3-0.1-0.4-0.2-0.1 0-0.3-0.2-0.3-0.3-0.1-0.1-0.2-0.3-0.3-0.6-0.1-0.2-0.1-0.3-0.2-0.3 0 0 0 0.2 0 0.4 0 0.3-0.1 0.5-0.1 0.5 0 0-0.1-0.1-0.3-0.2-0.1-0.1-0.2-0.5-0.4-0.7-0.1-0.3-0.2-0.5-0.2-0.5q0-0.1 0-0.1c-0.1 0-0.1 0.1-0.1 0.3-0.1 0.2-0.1 0.3-0.1 0.4-0.1 0.1-0.1 0-0.3-0.4-0.3-0.5-0.3-0.5-0.3-0.3 0 0.2 0 0.4 0.1 0.6 0.1 0.2 0.1 0.3 0 0.3 0 0-0.2-0.1-0.3-0.1-0.2 0-0.2-0.1-0.4-0.4-0.1-0.2-0.2-0.6-0.2-0.9-0.1-0.4-0.1-0.6-0.1-0.9 0.1-0.3 0.2-0.6 0.3-0.9 0.2-0.2 0.3-0.4 0.3-0.4 0 0 0.1 0.1 0.1 0.2 0.1 0.2 0.2 0.3 0.6 0.7l-0.1 0.4c0 0.3 0 0.4 0.1 0.6 0.1 0.1 0.3 0.2 0.5 0.3q0.3 0.1 0.5 0.1c0.2 0 0.3 0 0.4-0.1 0 0 0.2 0.1 0.7 0.5l0.1-0.1c0.1-0.1 0.2-0.3 0.2-0.4 0.2-0.2 0.2-0.2 0.4-0.2 0.3 0.1 0.3 0.1 0.5-0.1 0.1-0.1 0.3-0.4 0.3-0.6q0.1-0.3 0.1-0.5c0-0.2 0-0.2 0.1-0.3 0.1 0 0.2-0.1 0.3-0.2 0.1-0.2 0.1-0.3 0.1-0.6 0-0.3 0-0.6 0-0.7 0-0.2 0-0.4 0.2-0.7 0.2-0.2 0.3-0.5 0.3-0.6 0-0.2 0-0.4 0-0.5 0-0.2-0.1-0.5-0.2-0.7-0.2-0.3-0.2-0.4-0.2-0.8q0-0.5 0.1-0.7c0.1-0.1 0.1-0.2 0.3-0.1 0.2 0 0.2 0 0.2-0.2q0-0.1-0.2-0.2c-0.1-0.1-0.2-0.1-0.4 0q-0.2 0.1-0.3 0.4-0.2 0.2-0.2 0.5 0 0.3 0.3 1c0.2 0.4 0.3 0.7 0.3 0.9 0 0.2-0.1 0.4-0.1 0.5-0.1 0.1-0.2 0.3-0.3 0.4-0.2 0.1-0.3 0.3-0.3 0.4 0 0.1 0 0.3 0.1 0.5 0 0.1 0.1 0.4 0.1 0.6 0 0.3-0.1 0.4-0.2 0.5-0.2 0.2-0.3 0.2-0.6 0.2-0.2 0-0.5-0.1-0.7-0.2-0.1-0.1-0.3-0.2-0.4-0.3q-0.1-0.2-0.1-0.5c0.1-0.2 0.1-0.2 0.4-0.4 0.2-0.1 0.4-0.2 0.4-0.2q0.1-0.1 0.1-0.2c0 0-0.5 0-1.1 0-0.7 0-1.2 0-1.2 0 0 0 0.1 0.1 0.2 0.2 0 0 0.2 0.2 0.4 0.3 0.2 0 0.4 0.2 0.5 0.2 0 0.1 0 0.2 0 0.4 0 0.2 0 0.3-0.1 0.4-0.1 0.1-0.2 0.1-0.3 0.2-0.1 0-0.4 0.1-0.6 0.1-0.2 0-0.5 0-0.6 0q-0.1-0.1-0.2-0.2c-0.1-0.2-0.1-0.4-0.1-1.2l-1.2-1.2 0.1-0.4c0-0.1 0-0.5 0.1-0.8 0.1-0.3 0.1-0.5 0.1-0.7-0.1-0.1-0.1-0.3-0.2-0.5-0.1-0.1-0.2-0.3-0.3-0.3-0.1-0.1-0.2-0.1-0.3-0.1q-0.3 0.1-0.3 0.2c0 0.1 0 0.2 0 0.3q0 0.1 0.1 0c0.1 0 0.1 0 0.2 0 0.1 0 0.2 0 0.2 0.1 0.1 0.1 0.1 0.2 0.1 0.4 0 0.1 0 0.3-0.1 0.4 0 0-0.1 0.1-0.2 0.2-0.1 0-0.3 0.1-0.4 0.2-0.1 0.1-0.3 0.4-0.4 0.6-0.1 0.2-0.3 0.5-0.5 0.6-0.1 0.1-0.2 0.2-0.2 0.2 0 0 0-0.1 0.1-0.4 0-0.2 0.1-0.6 0.2-0.9q0.1-0.4 0.2-0.6c0.1-0.1 0.3-0.2 0.4-0.2 0.2 0 0.3-0.1 0.3-0.1 0 0-0.1-0.1-0.2-0.2 0 0-0.1-0.3-0.2-0.4 0-0.2-0.1-0.4-0.1-0.5q0-0.2 0.2-0.4c0.1-0.1 0.2-0.2 0.4-0.2q0.3 0 0.5 0.2c0.2 0.1 0.3 0.2 0.3 0.2 0.1 0 0.1-0.1 0.1-0.3 0-0.1 0-0.3 0-0.5q0.1-0.2 0.2-0.2c0 0 0.1 0 0.2 0 0.1 0.1 0.2 0.2 0.5 0.4v-0.2c0-0.2 0.1-0.4 0.1-0.5 0.1-0.2 0.2-0.3 0.3-0.3 0 0 0.2 0.1 0.3 0.1 0.2 0.1 0.4 0.2 0.5 0.3 0 0.1 0.1 0.2 0.2 0.1 0 0 0-0.1 0.1-0.2 0-0.2 0.1-0.4 0.1-0.5zm57.1 0c0 0.1 0.1 0.2 0.2 0.4 0 0.2 0.1 0.5 0.1 0.5q0 0.1 0 0.1c0.1 0 0.2-0.1 0.4-0.2 0.1-0.1 0.3-0.2 0.5-0.3 0.2 0 0.2 0 0.3 0.1 0.1 0.1 0.2 0.3 0.2 0.5 0 0.2 0 0.3 0 0.3 0 0 0.2-0.1 0.3-0.2 0.1-0.1 0.3-0.2 0.4-0.2 0 0 0.1 0.1 0.1 0.2 0.1 0.1 0.1 0.3 0.2 0.9l0.2-0.2c0.1-0.1 0.3-0.1 0.4-0.2 0.2 0 0.4 0 0.5 0.1 0.1 0 0.2 0.1 0.2 0.2q0.1 0.1 0.1 0.4c0 0.2-0.1 0.4-0.2 0.6-0.1 0.1-0.2 0.3-0.2 0.3-0.1 0.1-0.1 0.1 0.2 0.2 0.2 0 0.3 0 0.4 0.2q0.2 0.2 0.3 0.7c0 0.2 0.1 0.6 0.2 0.7 0 0.2 0.1 0.4 0.1 0.5q0 0.1-0.2-0.1c-0.1-0.1-0.4-0.5-0.6-0.7-0.2-0.4-0.4-0.6-0.6-0.7-0.2-0.1-0.3-0.2-0.4-0.3 0 0-0.1-0.2-0.1-0.4 0-0.3 0.1-0.5 0.1-0.5 0.1 0 0.1-0.1 0.2-0.1 0.1 0 0.2 0.1 0.2 0.1q0.1 0.1 0.1-0.1c0.1-0.1 0-0.2 0-0.3-0.1-0.1-0.2-0.1-0.3-0.1q-0.2-0.1-0.3 0c-0.1 0.1-0.3 0.3-0.3 0.5-0.1 0.2-0.2 0.5-0.2 0.6 0 0.1 0.1 0.5 0.2 0.7 0 0.3 0.1 0.6 0.1 0.7 0 0.1 0 0.2-0.1 0.3 0 0.1-0.3 0.3-1 1.1v0.6c-0.1 0.5-0.1 0.6-0.2 0.7-0.2 0.2-0.2 0.2-0.7 0.2q-0.5-0.1-0.7-0.2c-0.2-0.1-0.3-0.2-0.4-0.3 0-0.1 0-0.3 0-0.4 0-0.1 0.1-0.3 0.1-0.3 0.1-0.1 0.3-0.1 0.4-0.2 0.2-0.1 0.4-0.2 0.6-0.5h-1.1c-0.6 0-1.1 0-1.2 0.1q0 0 0.1 0.1c0 0 0.2 0.2 0.4 0.3 0.3 0.1 0.4 0.2 0.4 0.3 0 0.1 0 0.2 0 0.3 0 0.1-0.1 0.2-0.3 0.4-0.1 0.1-0.2 0.2-0.3 0.2-0.1 0.1-0.4 0.1-0.6 0.2-0.3 0-0.3 0-0.5-0.2-0.2-0.2-0.2-0.2-0.2-0.5 0-0.2 0-0.5 0.1-0.7 0-0.2 0-0.4 0-0.5 0-0.1-0.2-0.3-0.3-0.5-0.3-0.3-0.3-0.3-0.3-0.7 0-0.2 0-0.5 0.2-0.9 0.1-0.3 0.2-0.7 0.3-0.8q0-0.3-0.1-0.5c0-0.2-0.1-0.4-0.2-0.5-0.1-0.1-0.3-0.2-0.4-0.2q-0.1 0-0.3 0.1c0 0-0.1 0.2-0.1 0.2-0.1 0.2-0.1 0.2 0.1 0.1 0.1 0 0.2 0 0.3 0 0.1 0.1 0.1 0.2 0.2 0.3 0 0.1 0.1 0.4 0.1 0.6 0 0.3-0.1 0.5-0.2 0.8-0.2 0.2-0.3 0.5-0.3 0.7 0 0.2 0 0.5 0.1 0.6 0 0.1 0.1 0.4 0.2 0.5 0.1 0.2 0.3 0.4 0.3 0.5q0 0.2-0.1 0.5c0 0.3-0.1 0.4 0 0.7 0 0.1 0.1 0.3 0.2 0.4 0.1 0 0.2 0.1 0.3 0.1 0 0 0.1 0 0 0.3 0 0.2 0 0.3 0.2 0.6 0.1 0.2 0.2 0.5 0.3 0.5q0.1 0.1 0.4 0.1c0.3 0 0.3 0 0.5 0.3 0 0.1 0.1 0.3 0.2 0.3q0 0.1 0.2-0.1c0.1-0.1 0.3-0.2 0.4-0.3q0.1 0 0.2 0c0.1 0.1 0.3 0.1 0.4 0.1 0.1 0 0.4-0.1 0.5-0.1 0.2-0.1 0.3-0.3 0.4-0.4 0.1-0.2 0.1-0.3 0.1-0.6-0.1-0.4-0.1-0.4 0.1-0.5 0.1-0.1 0.3-0.3 0.5-0.8l0.1 0.2c0.1 0.1 0.2 0.3 0.3 0.5 0.1 0.2 0.2 0.5 0.2 0.7 0 0.2 0 0.5 0 0.7 0 0.3-0.1 0.6-0.2 0.9-0.1 0.2-0.2 0.4-0.3 0.5 0 0-0.1 0.1-0.5 0.1l0.1-0.4c0-0.2 0-0.4 0-0.5 0-0.1-0.1-0.1-0.2 0.3-0.2 0.3-0.3 0.5-0.3 0.5-0.1 0-0.1-0.2-0.1-0.4 0-0.1-0.1-0.3-0.1-0.3 0 0-0.2 0.3-0.3 0.5-0.2 0.3-0.3 0.6-0.4 0.8-0.1 0.1-0.2 0.2-0.3 0.2 0 0 0-0.3 0-0.5 0-0.3-0.1-0.5-0.1-0.5 0 0-0.1 0.1-0.1 0.3-0.1 0.2-0.2 0.5-0.3 0.6-0.2 0.3-0.2 0.3-0.5 0.5-0.2 0-0.4 0.1-0.4 0 0 0 0-0.2 0.1-0.4 0-0.2 0.1-0.5 0.1-0.7 0.1-0.3 0.1-0.4 0-0.4 0 0-0.1 0.1-0.2 0.2q-0.1 0.2-0.1 0.2c0 0-0.1-0.2-0.2-0.3 0-0.2-0.2-0.4-0.3-0.6-0.1-0.1-0.1-0.2-0.1-0.2 0 0.1 0 0.4 0.1 0.7 0.1 0.5 0.2 0.6 0.1 0.9 0 0.2-0.1 0.4-0.2 0.6 0 0.1-0.2 0.3-0.2 0.4-0.1 0.1-0.4 0.2-0.6 0.3-0.2 0-0.4 0.1-0.4 0.1 0 0 0-0.2 0.1-0.5 0.1-0.2 0.2-0.6 0.2-0.8 0-0.4 0-0.6-0.3-1.6-0.3-1.1-0.3-1.2-0.3-1.7 0-0.3 0-0.6 0-0.5-0.1 0-0.1 0.2-0.2 0.3 0 0.2-0.1 0.7-0.1 1.2 0 0.5-0.1 0.9-0.1 1-0.1 0.1-0.2 0.3-0.3 0.4-0.2 0.2-0.3 0.4-0.4 0.6q-0.1 0.4-0.1 0.6c0.1 0.2 0.1 0.4 0.2 0.4 0 0.1 0.1 0.2 0.1 0.2 0 0 0-0.1 0-0.3q0-0.4 0-0.6c0.1-0.2 0.3-0.5 0.5-0.7 0.1-0.3 0.3-0.5 0.3-0.6 0 0 0-0.1 0-0.2q0.1-0.1 0.1 0c0.1 0.1 0.1 0.2 0.1 0.4 0.1 0.1 0.1 0.5 0.1 0.7 0 0.4-0.1 0.7-0.4 1.8l-0.7 0.3c-0.3 0.2-0.7 0.3-0.7 0.3 0 0-0.2-0.2-0.3-0.3-0.1-0.2-0.2-0.4-0.3-0.5 0-0.2-0.1-0.4-0.1-0.6 0-0.3 0.1-0.5 0.2-0.8 0.1-0.2 0.2-0.4 0.3-0.5 0.1-0.2 0.3-0.2 0.7-0.3l-0.1-0.2c-0.1-0.2-0.2-0.4-0.2-0.5-0.1-0.1-0.1-0.4-0.1-0.6 0-0.2 0.1-0.5 0.1-0.7 0.1-0.3 0.3-0.8 0.5-1.2 0.2-0.4 0.4-0.9 0.4-1 0-0.1 0.1-0.3 0.1-0.5 0-0.1 0-0.2-0.1-0.3q0-0.1-0.2 0.1c-0.1 0.2-0.2 0.3-0.3 0.3q0 0-0.1-0.1c0 0 0.1-0.2 0.2-0.5 0-0.2 0.1-0.7 0.2-1.1 0-0.3 0.1-0.7 0.2-0.7 0-0.1 0.2-0.2 0.3-0.2 0.1 0 0.3-0.1 0.3-0.1 0.1-0.2 0.1-0.2-0.2-0.3q-0.3-0.1-0.4-0.2c0-0.2-0.1-0.3 0-0.6 0-0.3 0-0.4 0.2-0.6 0.2-0.1 0.3-0.2 0.6-0.2 0.2 0 0.4 0.1 0.5 0.1 0.1 0 0.2 0.1 0.3 0.2 0.1 0.1 0.1 0.1 0.1 0 0-0.1 0-0.2 0-0.3 0-0.1-0.1-0.3-0.2-0.3-0.1-0.1-0.1-0.1 0.1-0.1 0.1 0 0.3 0 0.5 0.1 0.1 0.1 0.2 0.1 0.2 0.1 0 0 0-0.1-0.1-0.2 0-0.2-0.1-0.3-0.1-0.3q0.1 0 0.2 0c0.1 0 0.3 0 0.4 0.1 0.1 0 0.3 0.1 0.3 0.1q0.1 0 0.2-0.2c0.1-0.2 0.2-0.3 0.3-0.4 0.1 0 0.3-0.1 0.4-0.1 0.1-0.1 0.2-0.1 0.2-0.1zm-45.1 0.7q0.2 0 0.2 0c0 0-0.1 0.1-0.2 0.2-0.2 0.2-0.3 0.2-0.3 0.5 0 0.1 0 0.3 0 0.4q-0.1 0-0.3 0c-0.1 0-0.3 0-0.5 0-0.1 0.1-0.2 0.1-0.2 0.2 0 0 0.1 0 0.2 0 0.1 0 0.5-0.1 0.7-0.1 0.3 0 0.6 0 0.6 0.1q0.1 0 0.1 0c0 0.1-0.1 0.1-0.3 0.2-0.2 0.1-0.2 0.1-0.2 0.5 0 0.4 0 0.4-0.1 0.3-0.1 0-0.3 0-0.4 0q-0.3-0.1-0.3 0-0.1 0.1 0.2 0.1c0.1 0.1 0.3 0.1 0.4 0.2 0 0.1 0.2 0.1 0.2 0.1 0.1 0 0.3 0.1 0.3 0.1 0.1 0.1 0.2 0.1 0.2 0.2q0.1 0.1-0.1 0.1c-0.1 0-0.3 0-0.4 0.1-0.1 0.1-0.2 0.2-0.2 0.4 0 0.1-0.1 0.4-0.1 0.7 0 0.5 0 0.5-0.2 0.9-0.2 0.3-0.4 0.7-0.5 0.9-0.2 0.3-0.3 0.5-0.3 0.7 0 0.2 0 0.2 0.2 0.2 0.2 0 0.3 0.1 0.3 0.1 0 0-0.1 0.1-0.2 0.3-0.1 0.2-0.3 0.4-0.5 0.5-0.1 0.1-0.4 0.2-0.7 0.3-0.2 0.1-0.5 0.2-0.6 0.2-0.1 0.1-0.3 0.2-0.4 0.3-0.1 0.1-0.2 0.3-0.2 0.3 0 0.1 0 0.2 0.1 0.2 0 0.1 0.2 0.1 0.3 0.1 0.2 0.1 0.4 0 0.5 0 0.1 0 0.2 0 0.2 0 0 0 0 0.1-0.1 0.3-0.1 0.1-0.3 0.3-0.4 0.4-0.1 0.1-0.3 0.2-0.5 0.3-0.1 0.1-0.4 0.2-0.6 0.2-0.3 0.1-0.5 0.1-0.5 0.2 0.1 0 0.2 0.1 0.3 0.2 0.2 0 0.4 0.1 0.6 0.1 0.2 0.1 0.3 0.1 0.3 0.1 0 0.1-0.1 0.2-0.1 0.3-0.1 0.1-0.2 0.2-0.3 0.3-0.1 0.1-0.3 0.2-0.5 0.3-0.2 0.1-0.5 0.2-0.8 0.2-0.2 0.1-0.4 0.1-0.4 0.2 0 0 0.2 0.1 0.3 0.1 0.2 0.1 0.4 0.2 0.6 0.2 0.1 0 0.2 0.1 0.2 0.1 0 0-0.2 0.2-0.7 0.7l-0.4-0.2q-0.4-0.1-0.9-0.3l0.2-0.2c0.1-0.1 0.3-0.4 0.4-0.5 0-0.1 0.1-0.4 0.1-0.6q0.1-0.3 0-0.7c0-0.2-0.1-0.6-0.2-0.7 0-0.2-0.2-0.4-0.5-0.7l0.1-0.9 2.2-2.6c1.2-1.5 2.3-2.7 2.3-2.9 0.1-0.1 0.1-0.3 0-0.6 0-0.3 0-0.6-0.1-0.8 0-0.3 0-0.6 0.1-0.7 0-0.2 0.1-0.3 0.3-0.4 0.1 0 0.4-0.1 0.5-0.1 0.1-0.1 0.4-0.2 0.6-0.4 0.1-0.1 0.3-0.2 0.4-0.2zm33.1 0c0.1 0 0.3 0.1 0.5 0.2 0.2 0.2 0.4 0.3 0.7 0.4q0.5 0.2 0.5 0.3 0.1 0.1 0.1 0.6c0 0.2 0 0.7 0 1-0.1 0.5-0.1 0.6 0 0.8 0.1 0.2 1.1 1.4 4.5 5.4l0.1 0.9-0.2 0.2c-0.1 0.1-0.3 0.3-0.3 0.4-0.1 0.1-0.2 0.3-0.2 0.5-0.1 0.3-0.1 0.5-0.1 0.6 0 0.2 0 0.4 0.1 0.7 0.1 0.2 0.2 0.5 0.4 0.7 0.1 0.2 0.2 0.3 0.2 0.3 0 0-0.2 0.1-1.2 0.5l-0.3-0.4c-0.2-0.1-0.4-0.3-0.4-0.3 0 0 0.1-0.1 0.2-0.1 0.2 0 0.4-0.1 0.6-0.2 0.1 0 0.3-0.1 0.3-0.1 0-0.1-0.2-0.1-0.4-0.1-0.1-0.1-0.4-0.2-0.6-0.2-0.2-0.1-0.4-0.2-0.6-0.3-0.1-0.1-0.3-0.3-0.4-0.4 0-0.1-0.1-0.2-0.1-0.3 0 0 0.2 0 0.3-0.1 0.2 0 0.5-0.1 0.6-0.2 0.2-0.1 0.3-0.1 0.3-0.2 0 0-0.2 0-0.4-0.1-0.2 0-0.5-0.1-0.7-0.2-0.2-0.1-0.5-0.3-0.6-0.4q-0.2-0.2-0.4-0.6h0.3q0.4 0.1 0.6 0c0.1-0.1 0.1-0.1 0.2-0.2 0 0 0-0.1-0.1-0.2 0-0.1-0.1-0.2-0.3-0.3-0.1-0.1-0.4-0.3-0.7-0.4-0.3-0.1-0.7-0.2-0.8-0.3-0.2-0.1-0.4-0.3-0.5-0.5-0.1-0.1-0.2-0.3-0.2-0.3 0 0 0.1 0 0.2 0q0.2 0 0.3-0.1c0-0.1 0-0.2 0-0.3-0.1-0.2-0.3-0.7-1.1-1.9v-0.7c0-0.7 0-0.8-0.2-0.9-0.1-0.1-0.2-0.1-0.4-0.1q-0.1 0-0.1-0.1c0-0.1 0.1-0.1 0.1-0.2 0.1 0 0.3-0.1 0.4-0.1 0 0 0.2 0 0.2-0.1 0.1-0.1 0.3-0.1 0.4-0.2 0.3 0 0.3-0.1 0.2-0.1-0.1 0-0.2 0-0.3 0-0.2 0-0.3 0-0.4 0-0.1 0.1-0.1 0-0.1-0.2 0-0.2 0-0.4 0-0.5-0.1 0-0.2-0.1-0.3-0.2-0.3 0-0.3 0-0.2-0.1 0.1-0.1 0.3-0.1 0.6-0.1 0.3 0 0.6 0.1 0.8 0.1 0.3 0 0.3 0 0.2-0.1q-0.2-0.1-0.5-0.1c-0.2 0-0.4 0-0.4 0-0.1-0.1-0.1-0.2-0.1-0.4 0-0.2-0.1-0.3-0.2-0.5-0.2-0.1-0.3-0.2-0.3-0.2q0.1 0 0.2 0zm-48.3 3.7q0 0 0.1 0.1c0 0.1 0 0.2 0 0.4-0.1 0.1-0.3 0.4-0.5 0.6-0.2 0.3-0.5 0.6-0.5 0.8-0.1 0.1-0.3 0.4-0.3 0.6-0.1 0.1-0.2 0.6-0.2 1-0.1 0.4-0.2 0.8-0.2 1-0.1 0.1-0.2 0.3-0.3 0.3 0 0.1-0.1 0.1-0.2 0.1q-0.2 0.1-0.2 0c0 0 0.1-0.2 0.2-0.5 0.1-0.2 0.2-0.8 0.2-1.2 0.1-0.5 0.2-1 0.3-1.2 0-0.2 0.2-0.5 0.3-0.7 0.1-0.1 0.3-0.4 0.5-0.6 0.1-0.2 0.4-0.5 0.5-0.5 0.1-0.1 0.2-0.2 0.3-0.2zm63.5 0c0.1 0 0.2 0.1 0.3 0.2 0.2 0 0.4 0.3 0.6 0.6 0.2 0.2 0.5 0.6 0.5 0.7 0.1 0.1 0.2 0.4 0.3 0.6 0 0.2 0.1 0.6 0.1 1 0.1 0.5 0.2 0.9 0.3 1.3 0.1 0.3 0.2 0.5 0.2 0.6q0 0-0.2-0.1c0 0-0.2-0.1-0.2-0.1-0.1-0.1-0.2-0.3-0.3-0.4 0-0.1-0.1-0.5-0.2-0.9 0-0.3-0.1-0.8-0.1-0.9-0.1-0.1-0.2-0.4-0.2-0.5-0.1-0.2-0.4-0.5-0.6-0.8-0.2-0.3-0.4-0.6-0.5-0.7-0.1-0.1-0.1-0.3-0.1-0.4q0-0.2 0.1-0.2zm-71 0.9q0 0 0 0c0 0 0 0.2-0.1 0.3-0.1 0.2-0.2 0.5-0.3 0.7 0 0.2-0.1 0.4 0 0.6q0 0.2 0.1 0.6l0.2-0.2c0-0.1 0.2-0.3 0.3-0.4 0.1-0.2 0.3-0.3 0.4-0.4 0.2-0.1 0.5-0.1 0.8-0.1 0.2-0.1 0.5-0.1 0.5 0 0 0-0.2 0.2-0.5 0.4-0.3 0.3-0.5 0.7-0.6 0.9-0.1 0.1-0.2 0.5-0.2 0.7-0.1 0.2-0.1 0.5-0.1 0.8 0.1 0.2 0.1 0.5 0.2 0.7 0 0.2 0.1 0.5 0.2 0.8 0.1 0.3 0.4 0.9 0.7 1.4 0.3 0.6 0.7 1.3 0.8 1.6 0.2 0.4 0.5 1 0.5 1.3 0.1 0.3 0.2 0.8 0.3 1.1 0 0.4 0 0.8 0 1.1-0.1 0.3-0.1 0.7-0.2 0.8 0 0.2-0.1 0.4-0.2 0.6-0.1 0.1-0.3 0.4-0.5 0.6-0.1 0.2-0.4 0.5-0.6 0.7-0.2 0.2-0.6 0.5-0.9 0.7-0.3 0.3-1 0.8-1.6 1.1-0.5 0.4-1.2 0.8-1.5 1-0.2 0.2-0.6 0.5-0.8 0.7-0.2 0.2-0.4 0.5-0.5 0.7q-0.1 0.3-0.1 0.6c0 0.3 0 0.5 0.2 0.7 0.1 0.2 0.2 0.4 0.4 0.5 0.1 0.1 0.3 0.2 0.5 0.3 0.1 0 0.4 0.1 0.6 0.1 0.2 0 0.5-0.1 0.8-0.1 0.2-0.1 0.6-0.3 0.8-0.4 0.2-0.1 0.5-0.2 0.7-0.4 0.2-0.1 0.3-0.2 0.4-0.2 0 0.1-0.2 0.3-0.5 0.6-0.3 0.2-0.7 0.6-1 0.8-0.2 0.2-0.6 0.4-0.8 0.5-0.3 0.1-0.7 0.3-0.9 0.4q-0.4 0.1-0.9 0.1c-0.4 0-0.6 0-0.8-0.2-0.2 0-0.4-0.2-0.4-0.2q-0.1-0.1 0-0.1c0-0.1 0.1-0.1 0.3-0.1 0.1 0 0.3-0.1 0.4-0.2 0.1-0.1 0.1-0.2 0.1-0.2 0-0.1-0.1-0.2-0.2-0.2-0.2-0.1-0.4-0.2-0.5-0.5-0.1-0.3-0.2-0.4-0.2-0.8 0-0.5 0-0.6 0.3-1 0.1-0.2 0.4-0.6 0.6-1 0.3-0.3 0.7-0.8 0.9-1.1 0.3-0.3 0.5-0.7 0.6-0.9 0.1-0.2 0.2-0.6 0.4-1.5l0.2 0.2q0.2 0.2 0.3 0.5c0 0.2 0.1 0.4 0.1 0.5 0 0.1 0 0.2 0 0.2 0.1 0 0.2-0.2 0.4-0.4 0.2-0.2 0.5-0.4 0.6-0.6 0.1-0.3 0.1-0.5 0.1-0.9 0-0.3 0-0.5 0.1-0.5 0 0 0.1 0.1 0.1 0.2 0.1 0.1 0.2 0.3 0.2 0.4 0.1 0.1 0.1 0.4 0.1 0.5 0 0.2 0 0.3 0 0.3 0 0 0.1-0.1 0.3-0.2 0.2-0.1 0.4-0.3 0.6-0.4 0.1-0.2 0.4-0.4 0.5-0.6 0.2-0.1 0.4-0.5 0.5-0.7 0.1-0.2 0.2-0.6 0.3-0.9 0-0.3 0-0.5 0-0.9q-0.1-0.4-0.4-0.8c-0.2-0.2-0.4-0.5-0.6-0.7-0.2-0.1-0.6-0.4-0.9-0.5-0.3-0.2-0.9-0.4-1.2-0.6-0.4-0.1-0.8-0.3-1-0.4-0.2-0.1-0.4-0.3-0.6-0.5-0.2-0.1-0.3-0.3-0.3-0.4q0 0 0.3 0.1c0.1 0.1 0.4 0.3 0.6 0.4 0.2 0 0.4 0.1 0.4 0q0 0 0 0c0 0-0.3-0.2-0.5-0.3-0.3-0.2-0.6-0.4-0.6-0.5-0.1-0.1-0.3-0.2-0.3-0.4-0.1-0.1-0.2-0.2-0.2-0.3 0-0.1 0.1-0.1 0.2 0.1 0.2 0.1 0.4 0.2 0.6 0.3 0.1 0.1 0.4 0.2 0.7 0.3 0.2 0.1 0.5 0.2 0.7 0.3 0.2 0.1 0.3 0.1 0.4 0.1 0 0-0.1-0.1-0.3-0.3-0.2-0.1-0.6-0.3-0.9-0.5-0.3-0.1-0.7-0.4-0.8-0.5-0.1-0.1-0.3-0.3-0.4-0.5-0.1-0.2-0.2-0.3-0.2-0.4 0-0.1 0.1-0.1 0.3 0.1 0.2 0.2 0.4 0.3 0.6 0.4 0.1 0.1 0.3 0.1 0.3 0.1 0 0-0.2-0.2-0.5-0.5-0.3-0.3-0.6-0.7-0.7-0.8 0-0.1-0.1-0.4-0.1-0.5-0.1-0.1-0.1-0.4 0-0.5 0-0.1 0-0.3 0.1-0.3q0 0 0 0.2c0 0 0.1 0.3 0.2 0.4 0.1 0.2 0.2 0.4 0.3 0.5 0.1 0.1 0.4 0.3 0.7 0.4 0.2 0.1 0.6 0.4 0.9 0.7 0.2 0.2 0.4 0.4 0.4 0.4 0-0.1 0-0.2-0.1-0.3 0-0.1-0.3-0.4-0.6-0.7-0.4-0.4-0.6-0.6-0.7-0.9-0.2-0.4-0.2-0.5-0.2-1.1 0-0.4 0-0.7 0.2-1.1v0.5c0.1 0.3 0.2 0.6 0.2 0.8 0.1 0.1 0.3 0.4 0.4 0.5 0.2 0.1 0.3 0.2 0.3 0.2 0 0 0-0.1-0.1-0.2-0.1-0.1-0.2-0.3-0.2-0.5-0.1-0.2-0.1-0.5-0.1-0.8 0-0.3 0-0.6 0.1-0.8 0.1-0.3 0.3-0.5 0.6-0.8 0.2-0.2 0.4-0.4 0.5-0.4zm78.5 0c0.1 0 0.2 0.1 0.4 0.3 0.2 0.2 0.4 0.5 0.6 0.7 0.1 0.3 0.2 0.5 0.2 0.9 0 0.3 0 0.6-0.1 0.9 0 0.2-0.1 0.4-0.2 0.5-0.1 0.1-0.1 0.2 0 0.2 0 0 0.2-0.1 0.3-0.3 0.1-0.1 0.2-0.4 0.3-0.6 0.1-0.2 0.2-0.5 0.2-0.6 0-0.1 0-0.3 0-0.3q0.1-0.1 0.1-0.1c0 0.1 0.1 0.3 0.1 0.5 0 0.2 0.1 0.4 0.1 0.6 0 0.1-0.1 0.3-0.1 0.5-0.1 0.3-0.2 0.6-0.3 0.8-0.2 0.1-0.5 0.5-0.7 0.7-0.2 0.2-0.5 0.5-0.5 0.6-0.1 0.1-0.1 0.2-0.1 0.2 0 0 0.2-0.2 0.4-0.4 0.3-0.2 0.6-0.5 1-0.6 0.3-0.2 0.6-0.4 0.7-0.5q0.2-0.2 0.3-0.6c0.1-0.2 0.1-0.4 0.2-0.4 0 0 0 0.2 0 0.5 0 0.4 0 0.5-0.1 0.8-0.1 0.1-0.4 0.5-0.7 0.8-0.3 0.2-0.5 0.5-0.5 0.5 0 0 0.2 0 0.3-0.1 0.2 0 0.4-0.2 0.6-0.4 0.2-0.1 0.3-0.2 0.3-0.1 0 0-0.1 0.2-0.2 0.3-0.1 0.2-0.2 0.4-0.3 0.5-0.1 0.2-0.5 0.4-0.9 0.6-0.4 0.2-0.8 0.4-1 0.6-0.1 0.1-0.2 0.2-0.2 0.2 0 0 0.2 0 0.4-0.1 0.1-0.1 0.5-0.2 0.8-0.3 0.3-0.1 0.7-0.3 0.9-0.5 0.3-0.1 0.5-0.2 0.5-0.2 0 0 0 0.1-0.1 0.2 0 0.1-0.2 0.4-0.4 0.5-0.1 0.2-0.4 0.4-0.7 0.5-0.2 0.2-0.4 0.3-0.4 0.3q0 0.1 0.2 0c0 0 0.3-0.1 0.4-0.2 0.2 0 0.5-0.2 0.6-0.2 0.1-0.1 0.1-0.1 0.1-0.1 0 0.1-0.1 0.2-0.3 0.4-0.1 0.2-0.4 0.4-0.6 0.5-0.1 0.1-0.6 0.3-0.9 0.4-0.3 0.1-0.8 0.3-1.1 0.5-0.2 0.1-0.6 0.3-0.8 0.5-0.3 0.1-0.5 0.4-0.7 0.5-0.1 0.2-0.3 0.4-0.3 0.5-0.1 0.2-0.2 0.4-0.2 0.6-0.1 0.2-0.1 0.4-0.1 0.5 0 0.2 0 0.5 0.1 0.7 0 0.2 0.1 0.5 0.2 0.6 0.1 0.2 0.3 0.5 0.5 0.8 0.2 0.2 0.6 0.5 0.8 0.7 0.3 0.3 0.6 0.4 0.6 0.4 0 0 0-0.1 0-0.3 0-0.2 0-0.4 0.1-0.5 0-0.2 0.1-0.3 0.2-0.4 0-0.1 0.1-0.2 0.1-0.2 0.1 0 0.1 0.3 0.1 0.6 0 0.4 0 0.5 0.2 0.8 0 0.2 0.3 0.5 0.5 0.6 0.2 0.2 0.3 0.4 0.4 0.4 0 0 0-0.1 0-0.2 0-0.2 0.1-0.4 0.1-0.5 0.1-0.1 0.2-0.3 0.5-0.7l0.1 0.4c0 0.3 0.1 0.6 0.1 0.8 0.1 0.2 0.2 0.4 0.2 0.5 0.1 0.1 0.4 0.5 0.8 1 0.3 0.4 0.7 0.9 0.9 1.1 0.1 0.3 0.4 0.6 0.5 0.8 0.1 0.3 0.2 0.4 0.2 0.9 0 0.3-0.1 0.5-0.2 0.7 0 0.2-0.2 0.4-0.3 0.5-0.1 0.1-0.3 0.2-0.3 0.2q-0.1 0-0.1 0.1c0 0 0.1 0.1 0.1 0.2 0.1 0.1 0.3 0.2 0.4 0.2 0.2 0 0.3 0 0.3 0.1q0.1 0 0 0.1c0 0-0.2 0.2-0.3 0.2-0.3 0.2-0.5 0.2-0.8 0.2-0.3 0-0.7 0-0.8-0.1-0.2 0-0.6-0.2-0.9-0.3-0.4-0.2-0.9-0.5-1.2-0.7-0.2-0.2-0.7-0.6-0.9-0.8-0.3-0.3-0.4-0.5-0.4-0.5 0.1 0 0.2 0.1 0.4 0.2 0.2 0.1 0.6 0.3 0.9 0.5 0.3 0.1 0.7 0.3 0.8 0.3 0.2 0.1 0.5 0.1 0.6 0.1 0.2 0 0.5-0.1 0.7-0.1 0.2-0.1 0.4-0.2 0.6-0.4 0.1-0.1 0.3-0.4 0.3-0.5 0.1-0.2 0.1-0.5 0.1-0.6 0-0.1 0-0.4-0.1-0.5-0.1-0.2-0.3-0.5-0.5-0.7-0.1-0.2-0.5-0.6-0.8-0.8-0.4-0.2-1.1-0.7-1.7-1.1-0.6-0.4-1.2-0.8-1.5-1-0.3-0.2-0.7-0.5-0.9-0.8-0.3-0.2-0.6-0.6-0.8-0.9-0.1-0.2-0.3-0.7-0.4-0.9-0.2-0.4-0.2-0.6-0.2-1.3 0-0.8 0.1-1 0.2-1.5 0.1-0.5 0.3-1 1-2.3 0.5-0.9 1-1.9 1.1-2.2 0.1-0.3 0.2-0.8 0.3-1q0.1-0.5 0.1-1.1c-0.1-0.4-0.1-0.6-0.3-0.9q-0.2-0.5-0.6-0.9c-0.3-0.2-0.4-0.4-0.4-0.4 0-0.1 0.2-0.1 0.4 0 0.3 0 0.6 0 0.8 0.1 0.1 0.1 0.3 0.3 0.5 0.4 0.1 0.1 0.2 0.3 0.3 0.4q0 0.1 0.1 0.1c0-0.1 0.1-0.2 0.1-0.4 0.1-0.2 0.1-0.3 0-0.6 0-0.2-0.2-0.5-0.3-0.7q-0.2-0.4-0.1-0.4zm-70.8 0.2q0 0 0.1 0.1c0 0 0 0.2 0 0.3q0 0.2-0.2 0.6c-0.1 0.2-0.3 0.6-0.4 0.9-0.1 0.3-0.2 0.7-0.3 0.9 0 0.2 0 0.3 0 0.3 0.1 0 0.2-0.3 0.3-0.7 0.1-0.4 0.3-0.8 0.4-1 0.1-0.1 0.2-0.4 0.3-0.5 0.1-0.1 0.2-0.2 0.3-0.2 0.2 0 0.2 0.1 0.3 0.2 0 0-0.1 0.3-0.2 0.7-0.1 0.3-0.3 0.7-0.4 1-0.1 0.4-0.1 0.6-0.1 1.2 0 0.4 0 0.7 0.1 1 0 0.2 0.2 0.7 0.3 0.9 0.2 0.3 0.3 0.7 0.3 1 0.1 0.2 0.1 0.8 0.1 1.3 0 0.5 0 0.8 0.1 0.8 0-0.1 0.1-0.3 0.1-0.5 0-0.2 0.1-0.7 0.1-1.1 0-0.4-0.1-0.9-0.1-1.1 0-0.1-0.1-0.3-0.1-0.3 0.1 0 0.3 0.1 0.7 0.2 0.3 0.1 1.2 0.4 2.1 0.7 0.8 0.4 2.1 0.9 2.9 1.2 0.8 0.3 1.8 0.7 2.4 0.9 0.5 0.2 1.3 0.4 1.6 0.5 0.4 0 0.7 0.1 0.8 0.1 0.1 0 0.3 0 0.5-0.1q0.3-0.1 0.6-0.3c0.1-0.1 0.2-0.4 0.3-0.5 0.1-0.2 0.2-0.7 0.3-1.1 0.1-0.5 0.2-0.9 0.3-1.1 0.1-0.1 0.2-0.3 0.2-0.3 0.1 0 0.3-0.1 0.4-0.1 0.1 0 0.4 0 0.5 0 0.2-0.1 0.3-0.1 0.4-0.1 0.1 0.1 0.1 0.1 0 0.2-0.2 0-0.3 0.1-0.4 0.2-0.1 0.1-0.2 0.3-0.2 0.3 0 0-0.1 0.1-0.2 0.1-0.1 0-0.3 0.1-0.4 0.1-0.1 0.1-0.2 0.2-0.2 0.3-0.1 0.1-0.1 0.2-0.1 0.3 0 0 0.1-0.1 0.2-0.2 0.2-0.2 0.2-0.2 0.5-0.2 0.2 0 0.4-0.1 0.5-0.1 0.1-0.1 0.3-0.1 0.3-0.1 0.1 0 0.3 0 0.6 0.2h-0.2c-0.3 0.1-0.4 0.2-0.4 0.3q-0.2 0.2-0.4 0.2c-0.1 0.1-0.3 0.1-0.4 0.2-0.1 0.1-0.2 0.1-0.2 0.2 0 0 0.1 0 0.2-0.1 0.2-0.1 0.3-0.1 0.7-0.1 0.4 0.1 0.5 0.1 0.6 0.2 0.1 0.1 0.1 0.2 0.1 0.3q0 0-0.1 0c0 0-0.2 0-0.3 0.1q-0.2 0-0.3 0.3c0 0.1-0.2 0.5-0.2 0.9-0.1 0.5-0.2 0.9-0.3 1.1-0.1 0.2-0.3 0.4-0.4 0.6-0.2 0.1-0.4 0.3-0.6 0.4-0.2 0-0.5 0.1-0.6 0.1q-0.1 0-0.1 0c0 0 0 0.1 0.1 0.2 0.1 0.1 0.2 0.2 0.2 0.2 0 0-0.3 0-0.6 0-0.6 0-0.7 0-1-0.2-0.3-0.1-0.4-0.2-0.4-0.1 0 0 0 0.2 0 0.3 0 0.1 0.1 0.3 0.4 0.7h-0.2c-0.1 0-0.4 0-0.6-0.1-0.2-0.1-0.4-0.3-0.6-0.4-0.1-0.1-0.3-0.3-0.4-0.5-0.2-0.2-0.3-0.2-0.3-0.1 0 0.1 0 0.2 0 0.4 0 0.1 0.1 0.4 0.2 0.5 0.1 0.2 0.2 0.3 0.2 0.4q0.1 0.1 0.1 0.1c0 0-0.2 0-0.3 0-0.2 0-0.5-0.2-0.7-0.3-0.2-0.1-0.5-0.3-0.7-0.5-0.3-0.2-0.5-0.4-0.5-0.5-0.1-0.1-0.2-0.2-0.2-0.2-0.1 0 0 0.3 0 0.5 0 0.3 0.1 0.6 0.1 0.6q0 0.1 0 0.1c-0.1 0-0.3-0.1-0.6-0.2-0.4-0.2-0.4-0.2-0.7-0.7-0.1-0.2-0.2-0.5-0.2-0.5q0 0-0.1 0c0 0 0.1 0.4 0.1 0.8 0.1 0.3 0.1 0.7 0.1 0.7 0 0-0.1 0-0.2 0-0.1 0-0.3-0.1-0.5-0.2-0.2-0.1-0.3-0.2-0.4-0.4-0.1-0.2-0.2-0.4-0.2-0.6 0-0.1 0-0.4 0-0.5-0.1-0.1-0.1-0.2-0.2-0.2 0 0-0.1 0.2-0.1 0.4-0.1 0.2-0.2 0.6-0.2 0.8 0 0.3 0 0.5 0 0.5-0.1-0.1-0.2-0.1-0.4-0.2-0.1-0.1-0.3-0.2-0.3-0.3-0.2-0.2-0.2-0.3-0.2-0.7 0-0.3 0-0.6-0.2-1l-0.1 0.3c0 0.2-0.1 0.4-0.3 0.5-0.1 0.1-0.2 0.3-0.4 0.7l-0.2-0.2c-0.1 0-0.3-0.3-0.5-0.6-0.1-0.2-0.3-0.4-0.3-0.4 0 0 0 0.2 0.1 0.3 0 0.2 0.1 0.4 0.2 0.6 0.1 0.2 0.2 0.4 0.3 0.5 0.2 0.1 0.4 0.3 0.5 0.3 0.1 0.1 0.3 0.2 0.3 0.2q0.1 0 0.1-0.3c0-0.1 0-0.2 0-0.3q0-0.1 0.5 0.4c0.3 0.2 0.6 0.5 1.4 0.9v0.6c0 0.5-0.1 0.7-0.2 1-0.2 0.2-0.4 0.5-0.5 0.6-0.1 0.2-0.2 0.3-0.2 0.3 0 0 0.2-0.1 0.3-0.1 0.1-0.1 0.4-0.4 0.6-0.6 0.3-0.3 0.5-0.7 0.7-1 0.1-0.2 0.2-0.5 0.2-0.6q0.1-0.1 0.2-0.1c0.2 0 0.2 0 0.2 0.3 0 0.1-0.1 0.4-0.1 0.6-0.1 0.2-0.2 0.5-0.3 0.7-0.1 0.1-0.3 0.4-0.5 0.5-0.1 0.2-0.5 0.5-0.7 0.6-0.2 0.2-0.7 0.4-1 0.5-0.3 0.1-0.9 0.3-1.3 0.4-0.5 0.2-1.1 0.3-1.4 0.4-0.3 0.1-0.9 0.4-1.3 0.6-0.6 0.2-0.8 0.4-1.1 0.7-0.3 0.3-0.4 0.5-0.5 0.7-0.1 0.2-0.1 0.4-0.1 0.4q0.1 0.1 0.1 0c0.1-0.1 0.1-0.2 0.2-0.3 0-0.1 0.2-0.3 0.3-0.4 0.2-0.1 0.3-0.1 0.3-0.1 0 0 0 0.2-0.1 0.4 0 0.2-0.1 0.6-0.1 1 0 0.4 0 0.7 0.1 1.1 0.1 0.2 0.3 0.8 0.5 1.3 0.3 0.4 0.5 0.9 0.5 1q0.1 0.3 0 0.9c0 0.3 0 0.6-0.1 0.9l-0.4-0.5c-0.2-0.2-0.4-0.6-0.6-0.8-0.1-0.2-0.2-0.4-0.2-0.4 0 0 0 0.5 0 2.3l-0.2 0.3q-0.2 0.4-0.5 0.5-0.2 0.2-0.6 0.3l0.1-0.3q0-0.4-0.1-0.6 0-0.3-0.2-0.7l-0.2 0.4c-0.1 0.2-0.3 0.5-0.4 0.6-0.2 0.2-0.4 0.3-0.6 0.4-0.1 0.1-0.4 0.2-0.8 0.3v-0.2c0.1-0.2 0-0.2-0.2-0.4q-0.2-0.3-0.4-0.3c-0.2-0.1-0.4-0.1-0.7-0.1-0.2 0.1-0.6 0.1-0.8 0.2-0.2 0.1-0.6 0.3-0.9 0.4-0.3 0.2-0.7 0.5-0.9 0.7-0.3 0.2-0.6 0.6-0.7 0.8-0.1 0.2-0.3 0.5-0.3 0.6 0 0.1-0.1 0.3 0 0.4 0 0.1 0.1 0.3 0.2 0.4 0.2 0.2 0.3 0.2 0.8 0.3 0.3 0.1 0.7 0.2 0.8 0.2 0.1 0.1 0.3 0.2 0.4 0.3 0.1 0.1 0.2 0.3 0.2 0.4 0.1 0.1 0.1 0.3 0.1 0.4q-0.1 0.1 0.1 0.3c0 0.1 0.1 0.2 0.1 0.3q0 0.1-0.1 0.1c0 0-0.1-0.1-0.2-0.2-0.1-0.1-0.3-0.3-0.4-0.3-0.2-0.1-0.2-0.1-0.1-0.3q0-0.2-0.1-0.4-0.1-0.2-0.5-0.3c-0.2-0.1-0.4-0.1-0.4-0.1 0 0 0.1 0.1 0.3 0.2 0.1 0.1 0.3 0.2 0.4 0.2 0 0.1 0 0.2 0 0.4q0 0.3 0 0.4c0.1 0 0.1 0.1 0.1 0.2 0 0.1-0.1 0.3-0.1 0.3-0.1 0.1-0.1 0.1-0.2-0.1 0-0.1-0.1-0.3-0.3-0.5-0.1-0.1-0.3-0.4-0.3-0.5-0.1-0.2-0.2-0.3-0.3-0.4-0.1-0.1-0.3-0.2-0.4-0.2-0.1 0-0.3 0-0.3 0 0 0 0.1 0.1 0.2 0.1 0.1 0.1 0.3 0.2 0.3 0.3 0.1 0.1 0.2 0.3 0.2 0.4 0 0.1 0.1 0.3 0.1 0.4 0.1 0.1 0.2 0.2 0.2 0.3 0 0.1-0.1 0.2-0.1 0.2q-0.1 0.1-0.2 0.1c0 0-0.1 0-0.1-0.1 0-0.1-0.1-0.2-0.1-0.3-0.1 0-0.2-0.1-0.3-0.1-0.1 0-0.4 0.1-0.7 0.1-0.4 0.1-0.6 0.1-0.8 0.1-0.1-0.1-0.3-0.2-0.4-0.4-0.2-0.2-0.4-0.4-0.4-0.5-0.1-0.2-0.1-0.4-0.1-0.6 0-0.1 0-0.4 0.1-0.6 0-0.2 0.4-1 0.9-1.8 0.5-0.9 0.9-1.8 1-2 0.2-0.4 0.2-0.5 0.2-1.8h1.1c0.6 0 1.4 0 1.7 0 0.3-0.1 0.8-0.1 0.9-0.2 0.2-0.1 0.5-0.2 0.7-0.4q0.3-0.3 0.4-0.6c0-0.1 0-0.4 0-0.6 0-0.2 0-0.7-0.1-1.1-0.1-0.4-0.1-1-0.2-1.4 0-0.5 0-0.8 0.1-1.1 0.1-0.3 0.2-0.6 0.3-0.7 0-0.2 0.2-0.4 0.4-0.5 0.1-0.2 0.6-0.6 1.1-1 0.5-0.3 1.2-1 1.7-1.5 0.7-0.6 1-1 1.1-1.3 0.2-0.2 0.3-0.5 0.4-0.8q0.1-0.4 0-0.8c0-0.2-0.1-0.7-0.2-1.1-0.1-0.3-0.3-0.9-0.3-1.1 0-0.3-0.1-0.7-0.1-1.3l0.3-0.1c0.1-0.1 0.4-0.3 0.5-0.4 0.2-0.3 0.2-0.3 0.2-0.6 0-0.1-0.1-0.4-0.1-0.6-0.1-0.2-0.2-0.7-0.2-1.2-0.1-0.5-0.1-1.1-0.2-1.2 0-0.3 0-0.4 0-0.2-0.1 0.1-0.1 0.4-0.1 0.7 0 0.3 0 0.8 0.1 1.1 0 0.3 0 0.7 0.1 1.4l-0.2 0.2c-0.1 0.1-0.2 0.2-0.3 0.2q-0.2 0-0.1-0.1c0 0 0.1-0.4 0.1-0.7q0-0.7-0.1-1.3c-0.1-0.3-0.1-0.5-0.1-0.5q-0.1-0.1-0.1 0c0 0-0.1 0.1-0.2 0.2q-0.2 0.1-0.5 0.1l0.1-0.2c0.1-0.1 0.2-0.5 0.3-0.8 0.1-0.3 0.2-0.9 0.3-1.5 0.1-0.6 0.2-1.3 0.3-1.5 0.1-0.3 0.2-0.7 0.3-0.9 0.1-0.2 0.3-0.5 0.5-0.7 0.2-0.2 0.3-0.3 0.4-0.3zm63.1 0c0.1 0 0.2 0.1 0.4 0.3 0.2 0.2 0.4 0.5 0.5 0.6 0.1 0.2 0.2 0.5 0.2 0.7 0.1 0.1 0.2 0.8 0.4 1.5 0.1 0.7 0.2 1.5 0.3 1.8q0.1 0.4 0.4 1h-0.1c-0.1 0-0.3-0.1-0.4-0.1-0.1-0.1-0.2-0.2-0.2-0.2-0.1-0.1-0.1-0.1-0.1 0.2-0.1 0.2-0.1 0.6-0.2 0.9 0 0.3 0 0.7 0 0.9 0 0.2 0.1 0.4 0.1 0.5 0 0.1 0 0.1-0.1 0.1 0 0-0.2 0-0.3-0.1-0.1-0.1-0.2-0.3-0.2-0.4 0-0.1 0-0.4 0.1-0.7 0-0.3 0.1-0.8 0.1-1.1 0-0.3 0-0.7 0-0.9 0-0.3-0.1-0.4-0.1-0.4 0 0-0.1 0.3-0.1 0.6 0 0.4-0.1 1-0.1 1.3-0.1 0.4-0.2 0.8-0.2 1-0.2 0.4-0.2 0.4-0.1 0.6 0.1 0.2 0.2 0.4 0.3 0.5 0.2 0.1 0.4 0.2 0.5 0.2 0.2 0.1 0.2 0.1 0.2 0.4 0 0.2 0 0.5-0.1 0.8 0 0.4-0.1 0.9-0.3 1.3-0.1 0.4-0.2 0.9-0.2 1.1 0 0.2 0 0.6 0 0.8 0.1 0.2 0.2 0.5 0.3 0.7 0.1 0.2 0.4 0.6 0.6 0.8 0.1 0.2 0.6 0.7 0.9 1 0.4 0.3 1 0.9 1.5 1.2 0.4 0.3 0.9 0.7 1.1 0.9 0.1 0.2 0.3 0.4 0.4 0.6 0.1 0.2 0.2 0.6 0.2 0.8 0.1 0.3 0.1 0.6 0 1.2 0 0.4-0.1 1-0.1 1.3-0.1 0.3-0.1 0.7-0.1 0.9 0 0.4 0 0.5 0.1 0.8 0.1 0.2 0.3 0.4 0.4 0.5 0.2 0.1 0.4 0.2 0.6 0.3 0.1 0.1 0.5 0.1 0.9 0.2 0.3 0 1.1 0 2.8 0v1.4l0.3 0.7c0.2 0.4 0.6 1.2 1 1.7 0.3 0.6 0.6 1.2 0.7 1.4 0.1 0.3 0.2 0.6 0.2 0.8 0 0.2 0 0.4 0 0.6 0 0.1-0.2 0.4-0.4 0.6-0.2 0.3-0.3 0.4-0.6 0.4-0.2 0.1-0.3 0.1-0.8 0-0.2 0-0.5-0.1-0.6-0.1q-0.2 0-0.3 0.2c-0.1 0.1-0.1 0.2-0.1 0.2q0 0.1-0.1 0.1-0.1 0-0.2-0.1c0 0 0-0.1 0-0.2 0-0.1 0-0.2 0.1-0.3 0.1-0.1 0.1-0.3 0.1-0.4 0 0 0.1-0.2 0.1-0.3 0.1-0.1 0.3-0.3 0.4-0.4 0.2-0.1 0.2-0.1 0.1-0.1-0.1 0-0.2 0-0.3 0 0 0-0.2 0.1-0.3 0.2-0.1 0.1-0.3 0.3-0.3 0.4-0.1 0.2-0.2 0.4-0.3 0.5-0.1 0.1-0.2 0.3-0.3 0.4 0 0.2-0.1 0.3-0.1 0.3-0.1 0-0.1-0.1-0.2-0.2 0-0.1 0-0.2 0-0.3 0.1-0.1 0.1-0.4 0.1-0.9l0.3-0.2c0.2-0.1 0.4-0.1 0.4-0.2q0 0 0 0c0 0-0.2 0-0.4 0.1-0.2 0.1-0.4 0.2-0.5 0.2 0 0.1-0.1 0.2-0.1 0.4 0.1 0.3 0.1 0.3-0.2 0.4-0.1 0.1-0.3 0.2-0.4 0.4-0.2 0.2-0.2 0.2-0.2 0 0-0.1 0.1-0.2 0.1-0.3q0.1-0.2 0.1-0.4 0-0.3 0.1-0.5c0.1-0.2 0.3-0.3 0.5-0.4 0.2-0.1 0.5-0.2 0.7-0.2 0.2-0.1 0.5-0.1 0.6-0.2 0.1 0 0.3-0.1 0.4-0.2 0.1-0.1 0.2-0.3 0.2-0.4q0.1-0.1 0-0.4c-0.1-0.2-0.2-0.5-0.4-0.7-0.1-0.2-0.4-0.5-0.6-0.7-0.1-0.1-0.5-0.4-0.7-0.6-0.3-0.1-0.7-0.3-1-0.4q-0.5-0.2-1-0.3c-0.4 0-0.5 0-0.7 0.1-0.2 0.1-0.4 0.2-0.4 0.3-0.1 0.1-0.1 0.3-0.1 0.4 0 0.1 0 0.1-0.1 0.1-0.1 0-0.3 0-0.5-0.1-0.2 0-0.5-0.2-0.7-0.4-0.2-0.2-0.4-0.5-0.7-1.1l-0.1 0.3q-0.2 0.2-0.2 0.7c0 0.6 0 0.6-0.1 0.5 0 0-0.2 0-0.3-0.1-0.2-0.1-0.3-0.2-0.4-0.3-0.1-0.1-0.2-0.3-0.2-0.4-0.1 0-0.1-0.4-0.2-0.7 0-0.4 0-0.9 0-1.2 0-0.3 0-0.6 0-0.6 0 0-0.1 0.2-0.2 0.4-0.2 0.2-0.4 0.6-0.6 0.8-0.2 0.2-0.3 0.4-0.4 0.4 0 0 0-0.1-0.1-0.2 0-0.2-0.1-0.4-0.1-0.6 0-0.1 0-0.4 0.1-0.6 0-0.2 0.2-0.8 0.4-1.3 0.2-0.5 0.5-1.1 0.5-1.3 0.1-0.4 0.2-0.7 0.2-1.1 0-0.4-0.1-0.8-0.1-1-0.1-0.2-0.1-0.4-0.1-0.4 0 0 0.1 0 0.3 0.1 0.1 0.1 0.3 0.3 0.4 0.5 0.1 0.2 0.2 0.3 0.2 0.3 0-0.1 0-0.2 0-0.3 0-0.1-0.1-0.2-0.2-0.4 0-0.1-0.1-0.3-0.2-0.4-0.1-0.1-0.4-0.3-0.6-0.4-0.2-0.2-0.5-0.3-0.6-0.4-0.2-0.1-0.6-0.3-0.8-0.4-0.3-0.1-1-0.3-1.7-0.5-0.6-0.1-1.3-0.3-1.6-0.4-0.2-0.1-0.6-0.3-0.8-0.4-0.2-0.1-0.6-0.4-0.8-0.6q-0.4-0.4-0.6-0.8c-0.1-0.3-0.3-0.6-0.3-0.7-0.1-0.1-0.1-0.3-0.1-0.5-0.1-0.3 0-0.3 0.1-0.3 0.2 0 0.2 0.1 0.4 0.5 0.2 0.3 0.4 0.7 0.6 0.9 0.1 0.3 0.4 0.6 0.6 0.7 0.3 0.2 0.5 0.3 0.5 0.3 0 0-0.1-0.1-0.3-0.3-0.2-0.2-0.4-0.5-0.4-0.7-0.1-0.2-0.2-0.5-0.2-0.7 0-0.2 0-0.5 0-0.6 0-0.2 0.1-0.3 0.5-0.5 0.3-0.1 0.6-0.4 1.3-1.1l0.1 0.2c0 0.1 0.1 0.2 0 0.3q0 0.1 0.1 0.2c0-0.1 0.2-0.1 0.3-0.2 0.1 0 0.4-0.2 0.5-0.4 0.2-0.1 0.3-0.4 0.4-0.6 0.1-0.2 0.1-0.4 0.2-0.5 0-0.2 0-0.3 0-0.3 0 0-0.2 0.2-0.3 0.4-0.1 0.2-0.2 0.4-0.3 0.6-0.1 0.1-0.2 0.2-0.3 0.2-0.1 0.1-0.1 0-0.2-0.1 0-0.2-0.2-0.3-0.3-0.4-0.1-0.1-0.2-0.2-0.3-0.3 0-0.2-0.1-0.3-0.1-0.6l-0.1 0.2c-0.1 0.1-0.1 0.3-0.1 0.7 0 0.4 0 0.6-0.1 0.8-0.1 0.1-0.3 0.2-0.4 0.3-0.2 0.1-0.3 0.1-0.3 0.2-0.1 0-0.1-0.3-0.1-0.6-0.1-0.2-0.1-0.6-0.2-0.8-0.1-0.4-0.1-0.4-0.2-0.3 0 0.1-0.1 0.4-0.2 0.7 0 0.5-0.1 0.6-0.2 0.8-0.1 0.1-0.3 0.2-0.4 0.3-0.1 0-0.3 0.1-0.4 0.1-0.2 0.1-0.2 0-0.2-0.1 0-0.1 0-0.4 0.1-0.7 0-0.4 0-0.6 0-0.6 0 0-0.1 0.2-0.3 0.5-0.2 0.4-0.2 0.4-0.6 0.6-0.3 0.1-0.5 0.2-0.6 0.2q0 0 0-0.1c0-0.1 0.1-0.3 0.1-0.6 0-0.2 0.1-0.4 0-0.5 0 0-0.1 0.1-0.3 0.3-0.2 0.2-0.4 0.5-0.6 0.6-0.2 0.2-0.4 0.3-0.6 0.4-0.1 0.1-0.4 0.1-0.6 0.2-0.1 0-0.3 0-0.3 0 0 0 0.1-0.1 0.2-0.2 0.1-0.2 0.2-0.4 0.2-0.6 0.1-0.2 0.1-0.4 0.1-0.5 0-0.2 0-0.2-0.5 0.2q-0.4 0.5-0.8 0.7c-0.2 0.1-0.4 0.1-0.9 0.1l0.2-0.1c0.1-0.1 0.2-0.3 0.2-0.5 0.1-0.2 0.1-0.3 0.1-0.4 0 0-0.1 0-0.4 0.1-0.4 0.2-0.5 0.2-1 0.2-0.3 0-0.6 0-0.6 0 0 0 0.1-0.1 0.4-0.4l-0.4-0.1c-0.2 0-0.4-0.1-0.6-0.1-0.1-0.1-0.3-0.2-0.5-0.4-0.2-0.2-0.3-0.3-0.4-0.7-0.1-0.3-0.2-0.7-0.2-0.9 0-0.2-0.1-0.5-0.1-0.7-0.1-0.1-0.2-0.3-0.3-0.4-0.1-0.1-0.2-0.2-0.3-0.2q-0.2 0-0.2-0.1c0 0 0.1-0.1 0.1-0.2 0.1-0.1 0.2-0.1 0.6-0.2 0.2 0 0.5 0 0.5 0 0.1 0.1 0.2 0.1 0.3 0.2 0.1 0.1 0.2 0.1 0.2 0.1q0.1 0 0-0.1c-0.1-0.1-0.2-0.2-0.3-0.2-0.1-0.1-0.3-0.1-0.4-0.1-0.2-0.1-0.3-0.1-0.3-0.2-0.1-0.1-0.2-0.2-0.3-0.3-0.1 0-0.2-0.1-0.3-0.1-0.1 0-0.1 0 0-0.1 0.1 0 0.2-0.1 0.3-0.1q0.2 0 0.4 0.1 0.3 0.1 0.5 0.1c0.1 0 0.3 0 0.4 0 0.1 0.1 0.2 0.2 0.3 0.3 0.1 0.2 0.1 0.2 0.1 0 0-0.1-0.1-0.2-0.2-0.3 0-0.1-0.2-0.2-0.4-0.3q-0.3-0.1-0.4-0.3c-0.1-0.1-0.3-0.2-0.4-0.3-0.2-0.1-0.2-0.1-0.1-0.2 0.1 0 0.2 0 0.4 0.1 0.1 0 0.4 0 0.5 0q0.3 0 0.4 0.2c0.1 0 0.2 0.2 0.2 0.2 0.1 0.1 0.2 0.6 0.3 1.1 0.1 0.5 0.2 1 0.3 1.1 0 0.1 0.2 0.3 0.3 0.5q0.3 0.2 0.6 0.3c0.3 0.1 0.4 0.1 0.9 0 0.3 0 0.9-0.1 1.3-0.2 0.4-0.2 1-0.4 1.4-0.5 0.4-0.2 1.5-0.6 2.3-0.9 0.9-0.4 2.1-0.9 2.7-1.1 0.6-0.3 1.4-0.6 1.8-0.6 0.3-0.1 0.5-0.2 0.6-0.2 0 0-0.1 0.2-0.1 0.5-0.1 0.3-0.1 0.7-0.1 0.9 0 0.2 0 0.7 0.1 1 0 0.3 0.1 0.6 0.1 0.6 0.1 0.1 0.1-0.3 0.1-0.9 0-0.8 0-1.1 0.1-1.4 0-0.2 0.2-0.6 0.3-0.9 0.1-0.2 0.3-0.6 0.3-0.8 0.1-0.3 0.1-0.7 0.1-1 0-0.3 0-0.7-0.1-1 0-0.2-0.2-0.6-0.3-0.9-0.1-0.3-0.2-0.7-0.2-0.9 0-0.2 0-0.2 0.2-0.3 0.1 0 0.2 0.1 0.4 0.3 0.1 0.2 0.2 0.5 0.3 0.7 0.1 0.2 0.3 0.6 0.3 0.9 0.1 0.2 0.2 0.4 0.2 0.4q0.1 0.1 0.1-0.2c-0.1-0.2-0.2-0.6-0.3-0.9-0.1-0.3-0.2-0.7-0.4-0.9-0.1-0.1-0.2-0.4-0.2-0.5 0-0.1 0-0.2 0-0.3 0.1-0.1 0.1-0.2 0.1-0.2zm-59.4 2.3c0.1 0 0.2 0.1 0.3 0.2 0.2 0 0.4 0 0.6 0q0.3 0 0.3 0.1c0.1 0.1 0.1 0.2 0.1 0.4q0 0.2-0.1 0.4-0.2 0.2-0.3 0.2c-0.1 0-0.3-0.1-0.4-0.1 0-0.1-0.1-0.2-0.2-0.1 0 0-0.1 0.2-0.2 0.3-0.1 0.2-0.2 0.4-0.2 0.4-0.1 0-0.2-0.2-0.3-0.4-0.1-0.2-0.2-0.3-0.2-0.3-0.1 0-0.2 0.1-0.3 0.2 0 0.2-0.2 0.3-0.2 0.3q-0.2 0.1-0.3-0.1c-0.1-0.1-0.2-0.3-0.2-0.4 0-0.1-0.1-0.3-0.1-0.4 0 0 0.1-0.1 0.1-0.2q0.1-0.2 0.6-0.2c0.2-0.1 0.5-0.2 0.6-0.2 0.3-0.1 0.3-0.2 0.4-0.1zm56.1 0.1c0.1 0 0.4 0.1 0.7 0.2 0.2 0 0.4 0.1 0.4 0.2 0.1 0 0.1 0.2 0.1 0.3 0 0.2 0 0.4-0.1 0.5 0 0.1-0.1 0.3-0.2 0.3-0.1 0-0.2 0-0.2 0-0.1 0-0.2-0.1-0.2-0.3-0.1-0.1-0.2-0.2-0.3-0.2 0 0-0.1 0.1-0.2 0.3-0.1 0.2-0.2 0.4-0.3 0.4 0 0-0.1-0.2-0.2-0.4-0.1-0.2-0.2-0.3-0.2-0.3-0.1-0.1-0.2 0-0.2 0.1-0.1 0-0.2 0.1-0.3 0.1-0.1 0-0.2-0.1-0.3-0.1 0-0.1-0.1-0.2-0.2-0.3 0-0.1 0-0.3 0.1-0.6l0.4-0.1q0.4 0 0.7-0.1c0.2-0.2 0.2-0.2 0.5 0zm-40.5 1.2c0 0 0.3 1 1.1 4.5v10.1c0 5.5-0.1 10-0.1 10 0 0.1-0.3-0.1-1.1-0.5v-12c0-7.3 0.1-12.1 0.1-12.1zm19 0.1c0.1 0 0.1 1.1 0.1 6.5l-2.6 11c-1.4 6-2.6 11.1-2.6 11.1 0 0.1-0.2 0.1-4.4 0.1l-0.1-0.5c-0.1-0.2-0.1-0.5-0.1-0.5 0-0.1 0.1-0.2 3.2-0.2l0.1-0.2c0-0.1 1.4-6.3 3.2-13.7 1.7-7.4 3.1-13.5 3.1-13.5q0-0.1 0.1-0.1zm-32 12.7c0.1 0 0.3 0.1 0.4 0.1 0.1 0.1 0.4 0.2 0.5 0.4 0.1 0.1 0.3 0.4 0.4 0.5 0.1 0.3 0.1 0.3 0 0.3 0-0.1-0.4-0.1-0.8-0.1-0.4-0.1-0.8-0.1-0.9-0.2-0.2 0-0.3-0.1-0.3 0 0 0 0.1 0.1 0.3 0.2 0.1 0.2 0.4 0.4 0.6 0.5 0.3 0.2 0.5 0.4 0.7 0.6 0.1 0.1 0.3 0.4 0.4 0.6 0.1 0.3 0.2 0.5 0.2 0.6 0 0.2 0 0.3-0.1 0.7l-0.2-0.2c-0.2-0.1-0.3-0.3-0.4-0.3-0.2-0.1-0.4-0.1-0.7-0.1l0.2 0.5c0.1 0.3 0.2 0.6 0.2 0.8 0.1 0.2 0 0.4 0 0.5 0 0.1-0.1 0.2-0.3 0.5l-0.3-0.2c-0.2-0.1-0.2-0.1-0.4-0.1-0.1 0-0.3 0.1-0.4 0.2-0.1 0-0.3 0.2-0.4 0.4-0.2 0.2-0.4 0.5-0.5 0.8-0.1 0.2-0.2 0.5-0.2 0.7 0 0.3 0.1 0.5 1.6 4.2l0.3 0.2c0.2 0.2 0.5 0.4 0.7 0.5 0.3 0.1 0.6 0.2 0.8 0.3 0.2 0 0.6 0.1 1 0.1 0.4 0 0.8 0.1 1 0.1 0.1 0.1 0.3 0.2 0.4 0.3 0.1 0.1 0.3 0.3 0.3 0.4 0.1 0.1 0.1 0.4 0.1 0.6 0 0.1 0 0.4 0 0.4 0.1 0.1 0.1 0.2 0.1 0.3q0 0.1-0.1 0.1c0 0.1-0.1 0-0.1-0.1 0-0.1-0.2-0.2-0.3-0.2-0.1-0.1-0.1-0.1-0.1-0.3 0-0.2 0-0.4-0.1-0.5 0-0.1-0.1-0.2-0.2-0.2q-0.1-0.1-0.1-0.1-0.1 0.1 0 0.2c0 0 0.1 0.3 0.1 0.5 0 0.4 0 0.4-0.1 0.6-0.1 0.1-0.2 0.2-0.2 0.2q-0.1 0-0.1-0.1c0-0.1-0.1-0.2-0.1-0.3-0.1-0.1-0.2-0.3-0.3-0.3q-0.1 0-0.1-0.2 0-0.2-0.2-0.4c-0.1-0.1-0.2-0.2-0.4-0.2q-0.2-0.1-0.2 0 0 0.1 0.1 0.1c0 0 0.1 0 0.3 0.1 0.1 0.2 0.1 0.2 0.1 0.6q0 0.4-0.1 0.5c0 0.1-0.1 0.1-0.2-0.1 0-0.1-0.2-0.2-0.3-0.3-0.1 0-0.4-0.1-0.5-0.2-0.2 0-0.6 0-0.9 0-0.2 0-0.5-0.1-0.7-0.1-0.1-0.1-0.3-0.2-0.3-0.2-0.1-0.1-0.7-1-1.3-2.2-0.7-1.1-1.4-2.3-1.5-2.6-0.3-0.4-0.5-0.7-0.7-0.9-0.2-0.2-0.4-0.3-0.4-0.3q-0.2 0-0.2-0.1c0 0 0.2-0.4 0.5-0.8 0.3-0.4 0.7-0.9 0.8-1.2 0.2-0.2 0.4-0.6 0.4-0.7 0.1-0.2 0.1-0.4 0.1-0.5 0 0 0-0.2-0.1-0.4 0-0.1-0.2-0.4-0.3-0.5-0.1-0.2-0.3-0.4-0.5-0.5-0.2-0.1-0.8-0.4-1.3-0.6-0.6-0.3-1-0.5-1-0.5 0 0 0.1-0.1 0.2-0.1 0.2-0.1 0.3-0.1 0.7 0.1 0.3 0.1 0.7 0.2 0.9 0.4 0.3 0.1 0.6 0.3 0.8 0.4 0.2 0.2 0.4 0.4 0.6 0.6 0.1 0.2 0.3 0.3 0.3 0.3 0 0 0-0.1 0-0.2 0-0.1-0.1-0.3-0.2-0.5q-0.2-0.4-0.6-0.7c-0.2-0.2-0.5-0.5-0.8-0.6-0.2-0.1-0.4-0.2-0.4-0.3 0 0 0.4-0.1 0.8-0.2 0.5-0.1 1-0.3 1.3-0.3 0.3-0.1 0.6-0.3 0.8-0.4 0.2-0.1 0.6-0.3 0.9-0.5 0.3-0.2 0.6-0.3 0.7-0.4 0.1 0 0.2-0.1 0.3 0zm50.7 0c0.1 0 0.4 0.1 0.7 0.3 0.2 0.2 0.6 0.4 0.8 0.5 0.2 0.1 0.6 0.3 0.8 0.4 0.2 0.1 0.8 0.3 1.3 0.4 0.5 0.1 1 0.2 1 0.2 0 0-0.2 0.2-0.5 0.3-0.3 0.2-0.6 0.4-0.8 0.6-0.2 0.2-0.4 0.5-0.5 0.6-0.1 0.2-0.2 0.5-0.2 0.7 0 0.3 0 0.3 0.1 0.2 0-0.1 0.1-0.3 0.3-0.4 0.1-0.2 0.4-0.5 0.6-0.6 0.2-0.2 0.5-0.4 0.7-0.5 0.2-0.1 0.6-0.2 0.9-0.3 0.4-0.2 0.5-0.2 0.7-0.1 0.1 0 0.2 0.1 0.2 0.1q0 0.1 0 0.1c-0.1 0-0.6 0.2-1.2 0.4-0.9 0.4-1.2 0.6-1.4 0.8-0.2 0.2-0.4 0.5-0.5 0.6 0 0.2-0.1 0.5-0.1 0.6q0 0.3 0.2 0.8c0.1 0.2 0.4 0.6 0.6 0.9 0.2 0.4 0.5 0.8 0.7 1 0.2 0.3 0.3 0.5 0.3 0.5 0 0-0.1 0.1-0.2 0.1-0.1 0-0.3 0.2-0.5 0.4-0.2 0.1-0.4 0.6-0.6 0.9-0.2 0.4-0.9 1.6-1.5 2.6-1 1.8-1.2 2-1.4 2.2-0.2 0.1-0.4 0.1-1 0.2-0.4 0-0.9 0.1-1.1 0.1-0.1 0-0.3 0.2-0.4 0.3-0.1 0.1-0.2 0.2-0.2 0.2q0 0.1-0.1 0.1c0 0-0.1-0.1-0.1-0.2-0.1-0.1-0.1-0.2-0.1-0.4 0-0.1 0-0.3 0.1-0.4 0-0.1 0.2-0.2 0.3-0.3 0.1 0 0.2-0.1 0.2-0.1q0-0.1-0.2 0c0 0-0.2 0-0.3 0.1-0.1 0-0.2 0.2-0.2 0.3-0.1 0.1-0.1 0.2-0.1 0.3 0 0-0.1 0.1-0.3 0.2q-0.2 0.2-0.2 0.4c0 0.1 0 0.2 0 0.2-0.1 0-0.2-0.1-0.3-0.2-0.1-0.2-0.1-0.2-0.1-0.6 0-0.3 0.1-0.5 0.1-0.6q0.1 0 0.1-0.1c-0.1 0-0.2 0-0.2 0.1q-0.2 0.1-0.3 0.4c0 0.2 0 0.3 0 0.4 0 0.1-0.1 0.2-0.2 0.2-0.1 0-0.2 0.2-0.2 0.3-0.1 0.1-0.1 0.1-0.1 0.1-0.1 0-0.1-0.1-0.1-0.2 0-0.1 0-0.2 0.1-0.3 0 0 0-0.3 0.1-0.5 0-0.4 0-0.6 0.1-0.7 0.1-0.1 0.2-0.3 0.4-0.3 0.2-0.1 0.4-0.2 0.6-0.2 0.2-0.1 0.7-0.1 1.1-0.2 0.4 0 0.8-0.1 0.9-0.1 0.1-0.1 0.5-0.3 1.4-0.9l0.8-2c0.8-1.9 0.8-2 0.8-2.3 0-0.1-0.1-0.4-0.2-0.6-0.1-0.3-0.3-0.6-0.5-0.8-0.1-0.1-0.3-0.4-0.4-0.4-0.1-0.1-0.3-0.2-0.4-0.2-0.2 0-0.2 0-0.7 0.4l-0.1-0.2c-0.1-0.1-0.2-0.3-0.2-0.5-0.1-0.1-0.1-0.3 0-0.5 0-0.2 0.1-0.5 0.5-1.2h-0.3c-0.1 0-0.3 0-0.4 0.1-0.2 0-0.3 0.1-0.4 0.3-0.2 0.2-0.2 0.2-0.3 0.1 0-0.1-0.1-0.3-0.1-0.5 0-0.2 0.1-0.4 0.2-0.7 0.1-0.2 0.3-0.5 0.5-0.7 0.1-0.1 0.5-0.4 0.8-0.7 0.4-0.2 0.7-0.4 0.7-0.5q0 0-0.1 0c0 0-0.1 0-0.3 0-0.1 0.1-0.5 0.1-0.8 0.2-0.4 0-0.7 0-0.8 0.1q-0.1 0-0.1-0.1c0 0 0.1-0.2 0.2-0.4 0.2-0.2 0.4-0.4 0.5-0.5 0.1-0.1 0.4-0.2 0.5-0.3 0.1 0 0.3-0.1 0.4 0zm-7.6 14.9v1.1h-9.3v-1.1l8.2-0.1-0.1-0.3c0-0.2 0.1-0.4 0.1-0.4 0 0 0.3 0.1 1.1 0.8zm-28.6-0.5c0.1 0 0.3 0.1 1.1 0.5v1.1h-6v-1.1l4.8-0.1v-0.2q0-0.2 0.1-0.2z"/><path class="a" d="m15.7 16.8q-0.2 0.1-0.2 0.2c0 0.1 0.1 0.2 0.2 0.3 0.1 0.1 0.2 0.2 0.4 0.2 0.1 0 0.2 0 0.3 0.1 0 0 0.1 0.1 0.1 0.2 0 0.2 0 0.3-0.1 0.5-0.1 0.1-0.1 0.2-0.1 0.3q0.1 0 0.2-0.1c0-0.1 0.2-0.3 0.2-0.5 0.1-0.1 0.2-0.4 0.2-0.5 0-0.1-0.1-0.3-0.1-0.3-0.1-0.1-0.2-0.2-0.3-0.3-0.1 0-0.2-0.1-0.4-0.1-0.1 0-0.3 0-0.4 0zm2.8 0c-0.1 0.1-0.2 0.2-0.3 0.2 0 0.1-0.1 0.2-0.2 0.3 0 0.1 0 0.3 0 0.4 0 0.1 0.1 0.3 0.2 0.5 0.1 0.2 0.3 0.3 0.3 0.4q0.1 0 0.1-0.1c-0.1-0.1-0.1-0.3-0.2-0.4-0.1-0.3-0.1-0.3 0-0.4 0.1-0.1 0.2-0.2 0.4-0.2q0.2 0 0.4-0.2c0.1-0.1 0.2-0.2 0.2-0.3q0-0.1-0.2-0.2c-0.2 0-0.3 0-0.4 0 0 0-0.2 0-0.3 0zm53.6 0c-0.1 0.1-0.2 0.1-0.2 0.2 0 0.1 0.1 0.2 0.2 0.3 0.1 0.1 0.2 0.2 0.4 0.2 0.1 0 0.2 0 0.3 0.1 0.1 0 0.1 0.1 0.1 0.2 0 0.2 0 0.3-0.1 0.5 0 0.1-0.1 0.2 0 0.3q0 0 0.1-0.1c0.1-0.1 0.2-0.3 0.3-0.5 0-0.1 0.1-0.4 0.1-0.5 0-0.1 0-0.3-0.1-0.3 0-0.1-0.2-0.2-0.3-0.3-0.1 0-0.2-0.1-0.4-0.1-0.1 0-0.3 0-0.4 0zm2.9 0c-0.1 0.1-0.3 0.2-0.3 0.2-0.1 0.1-0.2 0.2-0.3 0.3 0 0.2 0 0.3 0.1 0.5 0 0.2 0.1 0.4 0.2 0.5 0.1 0.2 0.2 0.3 0.2 0.3q0.1 0 0.1 0c0-0.1-0.1-0.2-0.1-0.4-0.1-0.2-0.1-0.4-0.1-0.5 0 0 0.1-0.1 0.1-0.1 0.1-0.1 0.2-0.1 0.4-0.1q0.2 0 0.3-0.2c0.1-0.1 0.2-0.3 0.2-0.3q0-0.1-0.2-0.2c-0.2 0-0.3 0-0.4 0 0 0-0.1 0-0.2 0zm7 20.4c0 0.2 0 0.5 0.1 0.7 0 0.3 0 0.8 0 1.1-0.1 0.3-0.1 0.9-0.2 1.2 0 0.4-0.1 0.9-0.1 1.1 0 0.2 0 0.5 0 0.7 0 0.3 0.1 0.6 0.3 0.8 0.1 0.2 0.2 0.4 0.3 0.5 0.1 0.1 0.2 0.2 0.2 0.2 0-0.1 0-0.2-0.1-0.4-0.1-0.2-0.2-0.6-0.2-0.9-0.1-0.3-0.1-0.6-0.1-0.7 0-0.1 0.1-0.8 0.2-1.5 0.1-1.1 0.2-1.4 0.1-1.8 0-0.2-0.1-0.5-0.2-0.7-0.1-0.2-0.2-0.4-0.3-0.5-0.1-0.1-0.1-0.1 0 0.2zm-72.9 0.1c-0.1 0.1-0.2 0.4-0.2 0.6-0.1 0.2-0.1 0.5-0.1 0.7 0 0.2 0 0.8 0.1 1.5 0.1 0.6 0.2 1.4 0.2 1.6 0 0.3-0.1 0.6-0.1 0.8 0 0.2-0.1 0.5-0.2 0.7-0.1 0.1-0.1 0.3-0.1 0.3 0 0 0.1-0.1 0.3-0.2 0.1-0.2 0.3-0.5 0.3-0.6 0.1-0.3 0.2-0.6 0.2-1 0-0.4 0-0.9-0.1-1.6-0.1-0.5-0.2-1.1-0.2-1.3 0-0.3 0-0.7 0.1-1 0-0.3 0-0.6 0-0.6q0.1-0.2 0-0.2c0 0-0.1 0.1-0.2 0.3z"/><path class="b" d="m15.8 17.1q0 0.1 0.1 0.2c0.1 0 0.3 0 0.4 0 0.1 0 0.2 0 0.2 0q0-0.1-0.2-0.1-0.1 0.1-0.2 0c-0.1-0.1-0.2-0.1-0.2-0.1q-0.1 0-0.1 0zm3 0.1q0 0.1-0.2 0c-0.1 0-0.2 0-0.2 0.1 0 0 0.1 0 0.2 0 0.1 0 0.3 0 0.4 0q0.1-0.1 0.1-0.2 0 0-0.1 0c-0.1 0-0.2 0-0.2 0.1zm53.4-0.1q0 0.1 0.2 0.2c0 0 0.2 0 0.3 0 0.1 0 0.2 0 0.2 0q0.1-0.1-0.1-0.1-0.2 0.1-0.3 0c-0.1-0.1-0.1-0.1-0.2-0.1q-0.1 0-0.1 0zm3 0.1q0 0.1-0.2 0c-0.1 0-0.2 0-0.2 0.1 0 0 0.1 0 0.2 0 0.1 0 0.3 0 0.4 0q0.1-0.1 0.1-0.2 0 0-0.1 0c-0.1 0-0.2 0-0.2 0.1z"/></svg>