<svg version="1.2" xmlns="http://www.w3.org/2000/svg" viewBox="0 0 91 52" width="91" height="52"><style>.a{fill:#b78150}.b{fill:#232221}.c{fill:#fff}</style><path class="a" d="m61.4 2l-0.2 0.1v23.3c0.3-0.3 0.5-0.3 0.7-0.3 0.2-0.1 0.3-0.1 0.2-0.2-0.1 0-0.2-0.1-0.4-0.1-0.1 0-0.2-0.1-0.2-0.1q0-0.1 0-0.2c0.1 0 0.1-0.1 0.2-0.2 0.1 0 0.3-0.1 0.4-0.1h0.2c0.1-4.9 0.1-5.3 0-5.6 0-0.2-0.1-0.5-0.1-0.8 0-0.4 0-0.6-0.1-0.7 0 0-0.1-0.1-0.1-0.1-0.1 0-0.2 0.1-0.3 0.1-0.1 0.1-0.2 0.1-0.2 0-0.1 0-0.1-0.1-0.1-0.3 0-0.1 0.1-0.3 0.1-0.4 0.1-0.1 0.2-0.1 0.3-0.1 0 0 0.1-0.1 0.2-0.1 0.1-0.1 0.1-0.3 0.1-0.4q0-0.2-0.1-0.3c-0.1-0.1-0.2-0.1-0.3-0.1-0.3 0.1-0.3 0.1-0.2-0.1 0-0.1 0-0.3 0.1-0.3 0-0.1 0.2-0.2 0.3-0.3q0.2-0.1 0.2-0.2c0-0.1 0-0.2-0.1-0.4-0.1-0.1-0.2-0.2-0.3-0.2q-0.2-0.1-0.2-0.2c0.1-0.1 0.2-0.2 0.2-0.2 0.1-0.1 0.3-0.1 0.5-0.1h0.2v-9.6l1.1-0.8v-1.1c-1.8 0-2 0-2.1 0.1zm-32.9 11.9c-0.2 0.2-0.4 0.3-0.5 0.4-0.2 0-0.4 0.1-0.5 0.1-0.3 0.1-0.3 0.1-0.4 0.4 0 0.1 0 0.4 0 0.7 0 0.2 0.1 0.6 0.1 0.8 0.1 0.3 0.1 0.5 0 0.7-0.1 0.1-1.1 1.4-2.3 2.8l-2.2 2.7-0.2 0.9c0.4 0.3 0.5 0.5 0.6 0.7 0.1 0.2 0.2 0.5 0.2 0.7q0.1 0.4 0 0.8c0 0.2-0.1 0.4-0.2 0.6-0.1 0.1-0.2 0.3-0.3 0.4l-0.3 0.3q0.5 0.2 0.9 0.3l0.5 0.2c0.5-0.6 0.7-0.8 0.7-0.8 0 0-0.1 0-0.3 0-0.1-0.1-0.3-0.1-0.5-0.2-0.2-0.1-0.3-0.2-0.3-0.2 0 0 0.2-0.1 0.4-0.1 0.2-0.1 0.6-0.2 0.7-0.3 0.2-0.1 0.4-0.2 0.5-0.3 0.1 0 0.3-0.2 0.3-0.3 0.1-0.1 0.2-0.2 0.2-0.2 0 0-0.2-0.1-0.3-0.1-0.2-0.1-0.5-0.1-0.6-0.2-0.1-0.1-0.3-0.2-0.3-0.2 0 0 0.2-0.1 0.4-0.2 0.3 0 0.6-0.1 0.7-0.2 0.1 0 0.3-0.2 0.4-0.3 0.2-0.1 0.3-0.3 0.4-0.4 0.1-0.1 0.2-0.3 0.2-0.3 0 0-0.1 0-0.2 0-0.2 0.1-0.4 0.1-0.5 0.1-0.1-0.1-0.3-0.1-0.3-0.2-0.1 0-0.1-0.1-0.1-0.2 0 0 0.1-0.2 0.2-0.3 0-0.1 0.2-0.2 0.3-0.3 0.2 0 0.5-0.1 0.7-0.2 0.2-0.1 0.6-0.2 0.7-0.3 0.2-0.1 0.4-0.4 0.5-0.5 0.1-0.2 0.2-0.3 0.2-0.3 0-0.1-0.2-0.1-0.3-0.1-0.2 0-0.2 0-0.2-0.2 0-0.2 0.1-0.5 0.2-0.7 0.2-0.3 0.4-0.7 0.6-1l0.3-0.5c0-0.9 0-1.1 0-1.1 0 0 0-0.1 0.1-0.2 0-0.1 0.1-0.2 0.2-0.2q0.1-0.1 0.1-0.1 0-0.1 0.1-0.1 0.2 0 0.2-0.1 0 0-0.2-0.1c0 0-0.1 0-0.2 0-0.1 0-0.2 0-0.3-0.1-0.1-0.1-0.3-0.2-0.4-0.3-0.2 0-0.3 0-0.3-0.1 0 0 0.2 0 0.3 0 0.2 0 0.3 0 0.3 0q0 0.1 0.1 0.1c0.1 0 0.1-0.1 0.1-0.3 0-0.2 0.1-0.4 0.1-0.4 0.1-0.1 0.2-0.2 0.3-0.2 0.1-0.1 0.2-0.2 0.1-0.2 0 0-0.1-0.1-0.3-0.1-0.1 0-0.3 0-0.3 0.1q0 0-0.1 0 0 0 0 0-0.1-0.1-0.2-0.1 0 0 0.2-0.1c0.2 0 0.2 0 0.2-0.3 0-0.3 0-0.4 0.2-0.5 0.1-0.1 0.2-0.2 0.2-0.3q0 0-0.2-0.1c-0.1 0-0.2 0.1-0.4 0.3zm-15 4.9c-0.1 0.2-0.3 0.5-0.4 0.7-0.2 0.3-0.3 0.7-0.4 0.9 0 0.3-0.2 1-0.3 1.6-0.1 0.6-0.2 1.3-0.3 1.6-0.1 0.2-0.2 0.6-0.3 0.7l-0.1 0.2q0.4 0 0.5-0.1c0.1-0.1 0.2-0.1 0.2-0.2q0.1 0 0.1 0c0 0 0.1 0.3 0.1 0.6q0.1 0.5 0.1 1.2c0 0.4 0 0.7-0.1 0.8q0 0.1 0.1 0.1c0.1 0 0.2-0.1 0.4-0.2l0.2-0.2c-0.1-0.8-0.2-1.2-0.2-1.5 0-0.2-0.1-0.7-0.1-1.1 0-0.3 0.1-0.6 0.1-0.7 0-0.2 0-0.1 0.1 0.2 0 0.2 0.1 0.7 0.1 1.2 0.1 0.5 0.2 1.1 0.2 1.3 0.1 0.2 0.1 0.4 0.1 0.6 0.1 0.3 0.1 0.3-0.2 0.6-0.1 0.1-0.3 0.3-0.5 0.4l-0.2 0.1c0 0.6 0 1 0 1.3 0.1 0.2 0.2 0.8 0.3 1.2 0.1 0.3 0.2 0.8 0.3 1.1q0 0.4-0.1 0.8c-0.1 0.2-0.2 0.6-0.3 0.8-0.2 0.3-0.5 0.6-1.1 1.3-0.5 0.5-1.3 1.2-1.8 1.5-0.4 0.4-0.9 0.8-1.1 1-0.1 0.1-0.3 0.3-0.4 0.5-0.1 0.1-0.2 0.4-0.3 0.7 0 0.3-0.1 0.6 0 1.1 0 0.4 0.1 1.1 0.1 1.5 0.1 0.4 0.2 0.9 0.2 1.1 0 0.2-0.1 0.5-0.1 0.6q-0.1 0.3-0.4 0.6c-0.2 0.2-0.4 0.3-0.6 0.4-0.2 0.1-0.6 0.1-1 0.2-0.3 0-1.1 0-1.7 0h-1c0 1.3 0 1.4-0.2 1.8-0.2 0.3-0.6 1.2-1.1 2-0.4 0.8-0.9 1.7-0.9 1.9-0.1 0.2-0.1 0.5-0.1 0.6 0 0.2 0 0.4 0.1 0.5 0.1 0.2 0.2 0.4 0.4 0.6 0.1 0.2 0.3 0.3 0.5 0.4 0.2 0 0.3 0 0.7-0.1 0.4 0 0.7-0.1 0.7-0.1 0.1 0 0.2 0.1 0.3 0.1 0 0.1 0.1 0.2 0.1 0.3 0 0.1 0.1 0.1 0.1 0.1q0.1 0 0.2 0c0-0.1 0.1-0.2 0.1-0.3 0-0.1-0.1-0.2-0.1-0.3-0.1-0.1-0.2-0.3-0.2-0.4 0-0.1-0.1-0.3-0.2-0.4 0-0.1-0.2-0.2-0.3-0.3-0.1 0-0.2-0.1-0.1-0.1 0 0 0.1 0 0.2 0 0.1 0 0.3 0.1 0.4 0.2 0.1 0 0.2 0.2 0.3 0.4 0.1 0.1 0.2 0.4 0.4 0.5 0.1 0.2 0.2 0.4 0.3 0.5 0 0.2 0 0.2 0.1 0.1 0.1 0 0.1-0.2 0.1-0.3 0-0.1 0-0.2 0-0.2q-0.1-0.1-0.1-0.4c0.1-0.2 0.1-0.3 0-0.4-0.1 0-0.2-0.2-0.4-0.2-0.2-0.1-0.3-0.2-0.3-0.2 0.1 0 0.3 0 0.5 0.1q0.3 0.1 0.4 0.3c0.1 0.1 0.1 0.2 0.1 0.4-0.1 0.2 0 0.2 0.1 0.3 0.1 0 0.3 0.2 0.4 0.3 0.1 0.1 0.2 0.2 0.3 0.2q0 0 0-0.1c0-0.1 0-0.2-0.1-0.3q-0.1-0.2-0.1-0.3c0-0.1 0-0.3 0-0.4-0.1-0.2-0.2-0.3-0.3-0.4-0.1-0.1-0.2-0.2-0.4-0.3-0.1 0-0.4-0.1-0.8-0.2-0.5-0.1-0.6-0.1-0.8-0.3-0.1-0.1-0.2-0.3-0.2-0.4 0-0.1 0-0.3 0-0.4 0.1-0.2 0.2-0.4 0.3-0.7 0.2-0.2 0.5-0.5 0.7-0.7 0.3-0.3 0.7-0.6 0.9-0.7 0.3-0.2 0.7-0.4 0.9-0.5 0.3 0 0.6-0.1 0.9-0.1 0.2-0.1 0.5 0 0.6 0q0.3 0.1 0.5 0.3c0.2 0.2 0.2 0.3 0.1 0.4v0.2c0.4-0.1 0.7-0.2 0.9-0.2 0.1-0.1 0.4-0.3 0.5-0.4 0.1-0.2 0.3-0.4 0.5-0.7l0.2-0.4q0.1 0.5 0.2 0.7 0 0.3 0 0.6l-0.1 0.3q0.4-0.1 0.6-0.2 0.3-0.2 0.5-0.5l0.2-0.4c0-1.8 0-2.3 0-2.3 0 0 0.2 0.2 0.3 0.4 0.1 0.2 0.4 0.6 0.6 0.8l0.3 0.5c0.1-0.3 0.2-0.6 0.2-0.9q0-0.6-0.1-0.9c0-0.1-0.2-0.6-0.4-1-0.2-0.5-0.4-1.1-0.5-1.4-0.1-0.3-0.2-0.6-0.1-1.1 0-0.3 0-0.8 0.1-1 0-0.2 0-0.4 0-0.4 0 0-0.1 0.1-0.2 0.2-0.2 0.1-0.3 0.2-0.4 0.3 0 0.1-0.1 0.3-0.1 0.3q-0.1 0.1-0.2 0.1c0-0.1 0-0.2 0.1-0.4 0.1-0.3 0.2-0.5 0.5-0.8 0.3-0.3 0.6-0.5 1.1-0.7 0.4-0.2 1-0.5 1.3-0.6 0.4-0.1 1-0.2 1.4-0.4 0.5-0.1 1.1-0.3 1.4-0.4 0.3-0.1 0.7-0.3 1-0.5 0.2-0.1 0.5-0.4 0.7-0.6 0.1-0.2 0.3-0.4 0.4-0.6 0.1-0.1 0.3-0.4 0.3-0.6 0.1-0.2 0.2-0.5 0.2-0.7 0-0.2-0.1-0.2-0.2-0.2q-0.2 0-0.2 0.1c0 0-0.1 0.3-0.3 0.6-0.1 0.3-0.4 0.6-0.6 0.9-0.2 0.3-0.5 0.5-0.7 0.6-0.1 0.1-0.2 0.2-0.3 0.2 0 0 0.1-0.2 0.3-0.3 0.1-0.1 0.3-0.4 0.4-0.6 0.2-0.4 0.2-0.5 0.2-1.1l0.1-0.6c-0.9-0.4-1.2-0.6-1.5-0.9q-0.4-0.5-0.5-0.4c0 0.1 0 0.2 0 0.3q0 0.3-0.1 0.3c0 0-0.1-0.1-0.3-0.1-0.1-0.1-0.3-0.3-0.4-0.4-0.1-0.1-0.3-0.3-0.4-0.5-0.1-0.1-0.2-0.4-0.2-0.6 0-0.1-0.1-0.3 0-0.3 0 0 0.1 0.2 0.3 0.4 0.1 0.3 0.3 0.6 0.4 0.6l0.2 0.2c0.2-0.4 0.4-0.6 0.5-0.7 0.1-0.1 0.2-0.3 0.3-0.5l0.1-0.3c0.1 0.4 0.2 0.7 0.2 1 0 0.4 0 0.5 0.1 0.7 0.1 0.1 0.3 0.3 0.4 0.3 0.1 0.1 0.3 0.2 0.3 0.2 0 0 0.1-0.2 0.1-0.4 0-0.3 0.1-0.7 0.1-0.9 0.1-0.2 0.1-0.4 0.2-0.4 0 0 0.1 0.1 0.1 0.2 0.1 0.1 0.1 0.4 0.1 0.5 0 0.2 0.1 0.4 0.1 0.6 0.1 0.2 0.2 0.3 0.5 0.4 0.1 0.1 0.3 0.2 0.5 0.2 0.1 0.1 0.2 0.1 0.2 0 0 0-0.1-0.3-0.1-0.7-0.1-0.4-0.1-0.8-0.1-0.8q0 0 0.1 0c0 0 0.1 0.3 0.2 0.5 0.2 0.5 0.2 0.5 0.7 0.7 0.2 0.2 0.5 0.3 0.5 0.3q0.1 0 0.1-0.1c-0.1-0.1-0.1-0.4-0.1-0.6-0.1-0.3-0.1-0.5-0.1-0.6 0.1 0 0.1 0.1 0.2 0.2 0.1 0.1 0.3 0.3 0.5 0.5 0.2 0.2 0.5 0.5 0.7 0.6 0.3 0.1 0.6 0.2 0.7 0.2 0.2 0.1 0.3 0.1 0.4 0q0 0-0.1-0.1c-0.1-0.1-0.2-0.2-0.3-0.4 0-0.1-0.1-0.4-0.1-0.5 0-0.2 0-0.3 0-0.4 0-0.1 0-0.1 0.2 0.2 0.1 0.1 0.4 0.3 0.5 0.4 0.1 0.1 0.4 0.3 0.6 0.4 0.2 0.1 0.4 0.2 0.5 0.2h0.3c-0.3-0.5-0.4-0.7-0.4-0.8-0.1-0.1-0.1-0.2 0-0.3 0 0 0.1 0 0.4 0.1 0.3 0.2 0.4 0.2 0.9 0.3 0.4 0 0.6 0 0.7-0.1 0 0-0.1-0.1-0.2-0.2-0.1-0.1-0.2-0.2-0.2-0.2 0 0 0.1 0 0.2 0 0.1 0 0.3-0.1 0.5-0.1 0.2-0.1 0.4-0.2 0.5-0.3 0.1 0 0.2-0.1 0.2-0.1 0.1 0 0.2-0.1 0.2-0.2 0.1-0.2 0.3-0.5 0.3-0.7 0.1-0.3 0.1-0.5 0.1-0.6q0-0.1 0-0.1c0.1 0 0.1-0.1 0.1-0.2 0-0.1 0-0.2 0-0.2q0.1-0.1 0.1-0.2c0-0.1 0-0.2 0.1-0.4 0.1-0.1 0.2-0.3 0.2-0.3 0.1-0.1 0.2-0.1 0.3-0.1q0.2 0 0.2-0.1c0-0.1-0.1-0.2-0.1-0.2-0.1-0.1-0.1-0.2-0.2-0.2q-0.1 0.1-0.1 0c0 0-0.2 0-0.4 0q-0.4-0.1-0.6 0.1c-0.1 0-0.2 0.1-0.2 0 0 0 0-0.1 0.2-0.1 0.1-0.1 0.3-0.2 0.4-0.2q0.2 0 0.3-0.1c0 0 0.1-0.2 0.1-0.2 0.1-0.1 0.2-0.2 0.3-0.2q0 0 0.1-0.1 0 0-0.1-0.1c0-0.1-0.2-0.1-0.3-0.1-0.1 0-0.3 0.1-0.4 0.1-0.1 0.1-0.2 0.1-0.4 0.1-0.3 0-0.3 0.1-0.5 0.2-0.1 0.1-0.2 0.2-0.2 0.2q0 0 0-0.2c0.1 0 0.2-0.2 0.2-0.2 0.1-0.1 0.3-0.2 0.4-0.3q0.3-0.1 0.4-0.2c0.1-0.1 0.2-0.3 0.3-0.3 0.1-0.1 0.2-0.1 0.2-0.2q-0.1-0.1-0.3-0.1c-0.1 0-0.2 0.1-0.2 0.1 0 0-0.2 0.1-0.4 0.1-0.1 0-0.3 0-0.4 0-0.1 0.1-0.2 0.2-0.2 0.4-0.1 0.1-0.2 0.6-0.3 1-0.1 0.5-0.2 1-0.3 1.1-0.1 0.2-0.2 0.4-0.4 0.6q-0.2 0.2-0.5 0.3c-0.2 0-0.4 0.1-0.5 0.1-0.1 0-0.5-0.1-0.8-0.2-0.4 0-1.1-0.2-1.7-0.4-0.5-0.2-1.6-0.6-2.3-0.9-0.8-0.3-2.1-0.9-3-1.2-0.8-0.4-1.8-0.7-2.1-0.8-0.3-0.1-0.6-0.2-0.6-0.1 0 0 0 0.1 0 0.3 0.1 0.2 0.1 0.6 0.1 1 0 0.5 0 1-0.1 1.2 0 0.2-0.1 0.4-0.1 0.4 0 0.1 0-0.2 0-0.8 0-0.5-0.1-1.1-0.1-1.3 0-0.2-0.2-0.6-0.3-0.9-0.2-0.3-0.3-0.7-0.4-1-0.1-0.3-0.1-0.6-0.1-1 0-0.6 0.1-0.8 0.2-1.2 0.1-0.3 0.2-0.8 0.3-1.1 0.2-0.3 0.2-0.6 0.2-0.7 0-0.1-0.1-0.1-0.2-0.1-0.2 0-0.2 0-0.4 0.2 0 0.1-0.2 0.3-0.3 0.5-0.1 0.2-0.2 0.6-0.4 1-0.1 0.3-0.2 0.7-0.2 0.7 0 0 0-0.2 0-0.3 0-0.2 0.1-0.6 0.2-1 0.1-0.3 0.3-0.7 0.4-0.9q0.2-0.3 0.2-0.5c0-0.2 0-0.3 0-0.4q0-0.1-0.1-0.1c0 0-0.2 0.2-0.4 0.3zm47.9 7.1q0 0.1-0.1 0.1-0.1 0-0.1 0.2v0.2c0.4-0.3 0.5-0.3 0.6-0.3q0.2 0 0.2-0.1 0 0-0.1-0.1c0-0.1-0.2-0.1-0.2-0.1-0.1 0-0.2 0.1-0.3 0.1zm0 1.4q0 0.1-0.1 0.1c-0.1 0-0.1 1.1-0.1 9.7v9.7c0.8 0.6 1.1 0.7 1.1 0.7 0 0 0-4.2 0-9.3 0-9.1 0-9.4-0.1-10-0.1-0.4-0.2-0.8-0.2-0.9-0.1-0.1-0.2-0.2-0.3-0.2q-0.2 0-0.3 0.2z"/><path fill-rule="evenodd" class="b" d="m16.7 12.4l0.4 0.2c0.2 0.1 0.5 0.2 0.6 0.3 0.1 0 0.3 0.1 0.4 0.2 0.1 0.2 0.2 0.2 0.5 0.2 0.4 0 0.5 0 0.7 0.1 0.1 0.1 0.2 0.1 0.3 0.2 0.2 0 0.4 0.1 0.7 0.2 0.3 0.1 0.6 0.4 0.8 0.5 0.1 0.2 0.3 0.4 0.3 0.5 0.1 0.1 0.1 0.4 0.1 0.5 0 0.1-0.1 0.3-0.3 0.7l0.2 0.4c0.1 0.3 0.2 0.8 0.3 1.2 0.1 0.4 0.2 0.9 0.2 1 0.1 0.1 0.2 0.3 0.3 0.4 0.2 0.3 0.2 0.3 0.1 0.3-0.1 0.1-0.3 0.1-0.9 0.1l0.1 0.2c0 0.1 0.3 0.6 1 2.1l2-2.1c1.3-1.4 2-2.3 2.1-2.5 0.1-0.2 0.2-0.4 0.2-0.6 0-0.1-0.1-0.5-0.1-0.8 0-0.2-0.1-0.6 0-0.8 0-0.2 0.1-0.3 0.2-0.5 0.2-0.2 0.3-0.3 0.7-0.3 0.2-0.1 0.4-0.2 0.5-0.3 0.2-0.1 0.2-0.1 0.2 0 0 0.1 0 0.2 0 0.2q0 0.1-0.3 0.2c-0.1 0.1-0.4 0.2-0.5 0.2-0.3 0.1-0.3 0.1-0.4 0.4 0 0.1 0 0.4 0 0.7 0 0.2 0.1 0.6 0.1 0.8 0.1 0.3 0.1 0.5 0 0.7-0.1 0.1-1.1 1.4-4.5 5.5l-0.2 0.9 0.2 0.2c0.2 0.1 0.3 0.3 0.4 0.5 0.1 0.2 0.2 0.5 0.2 0.7q0.1 0.4 0 0.8c0 0.2-0.1 0.4-0.2 0.6-0.1 0.1-0.2 0.3-0.6 0.7l0.2 0.1c0.2 0 0.5 0.1 1.2 0.4l0.3-0.4c0.2-0.2 0.4-0.4 0.4-0.4 0 0-0.1 0-0.3 0-0.1-0.1-0.3-0.1-0.5-0.2-0.2-0.1-0.3-0.2-0.3-0.2 0 0 0.2-0.1 0.4-0.1 0.2-0.1 0.6-0.2 0.7-0.3 0.2-0.1 0.4-0.2 0.5-0.3 0.1 0 0.3-0.2 0.3-0.3 0.1-0.1 0.2-0.2 0.2-0.2 0 0-0.2-0.1-0.3-0.1-0.2-0.1-0.5-0.1-0.6-0.2-0.1-0.1-0.3-0.2-0.3-0.2 0 0 0.2-0.1 0.4-0.2 0.3 0 0.6-0.1 0.7-0.2 0.1 0 0.3-0.2 0.4-0.3 0.2-0.1 0.3-0.3 0.4-0.4 0.1-0.1 0.2-0.3 0.2-0.3 0 0-0.1 0-0.2 0-0.2 0.1-0.4 0.1-0.5 0.1-0.1-0.1-0.3-0.1-0.3-0.2-0.1 0-0.1-0.1-0.1-0.2 0 0 0.1-0.2 0.2-0.3 0-0.1 0.2-0.2 0.3-0.3 0.2 0 0.5-0.1 0.7-0.2 0.2-0.1 0.6-0.2 0.7-0.3 0.2-0.1 0.4-0.4 0.5-0.5 0.1-0.2 0.2-0.3 0.2-0.3 0-0.1-0.2-0.1-0.3-0.1-0.2 0-0.2 0-0.2-0.2 0-0.2 0.1-0.4 0.2-0.7 0.1-0.2 0.3-0.6 0.5-0.9 0.2-0.2 0.4-0.5 0.4-0.5 0 0.1 0 0.2 0 0.3 0 0.2 0 0.3-0.3 0.6-0.1 0.2-0.3 0.5-0.3 0.6q-0.1 0.2-0.1 0.5l0.1-0.1c0.1-0.1 0.1-0.2 0.2-0.1 0 0 0 0.2 0 0.4 0 0.2-0.1 0.4-0.1 0.6-0.1 0.1-0.3 0.3-0.4 0.5-0.2 0.1-0.6 0.3-0.9 0.5-0.4 0.2-0.7 0.3-0.8 0.4-0.1 0.1-0.1 0.1 0.2 0.1 0.1 0 0.4-0.1 1-0.4v0.2c0 0.1-0.2 0.4-0.3 0.7-0.2 0.3-0.4 0.6-0.5 0.7-0.2 0.1-0.4 0.3-0.6 0.4-0.2 0-0.3 0.1-0.3 0.1q0 0.1 0.3 0c0.3 0 0.3 0 0.3 0.1 0 0.1-0.1 0.3-0.2 0.6-0.1 0.2-0.3 0.4-0.4 0.5-0.2 0.1-0.4 0.3-1 0.6l0.3-0.1c0.2 0 0.3 0 0.3 0.1 0 0-0.1 0.2-0.1 0.3-0.1 0.1-0.2 0.3-0.4 0.5-0.1 0.2-0.2 0.4-0.2 0.4 0.1 0 0.3 0 0.6 0.1 0.4 0 0.7 0 0.9 0 0.1-0.1 0.3-0.1 0.4-0.2 0-0.1 0.2-0.3 0.3-0.5 0.1-0.1 0.2-0.5 0.3-0.8 0-0.2 0.1-0.6 0.2-0.9 0-0.2 0.2-0.4 0.2-0.5 0.1-0.1 0.3-0.3 0.4-0.3 0.2-0.1 0.4-0.2 0.5-0.2q0.3 0 0.3 0.2 0 0.1 0 0.1c-0.1 0-0.2 0.1-0.4 0.1-0.1 0-0.3 0-0.4 0-0.1 0.1-0.2 0.2-0.2 0.4-0.1 0.1-0.2 0.6-0.3 1-0.1 0.5-0.2 1-0.3 1.1-0.1 0.2-0.2 0.4-0.4 0.6q-0.2 0.2-0.5 0.3c-0.2 0-0.4 0.1-0.5 0.1-0.1 0-0.5-0.1-0.8-0.2-0.4 0-1.1-0.2-1.7-0.4-0.5-0.2-1.6-0.6-2.3-0.9-0.8-0.3-2.1-0.9-3-1.2-0.8-0.4-1.8-0.7-2.1-0.8-0.3-0.1-0.6-0.2-0.6-0.1 0 0 0 0.1 0 0.3 0.1 0.2 0.1 0.6 0.1 1 0 0.5 0 1-0.1 1.2 0 0.2-0.1 0.4-0.1 0.4 0 0.1 0-0.2 0-0.8 0-0.5-0.1-1.1-0.1-1.3 0-0.2-0.2-0.6-0.3-0.9-0.2-0.3-0.3-0.7-0.4-1-0.1-0.3-0.1-0.6-0.1-1 0-0.6 0.1-0.8 0.2-1.2 0.1-0.3 0.2-0.8 0.3-1.1 0.2-0.3 0.2-0.6 0.2-0.7 0-0.1-0.1-0.1-0.2-0.1-0.2 0-0.2 0-0.4 0.2 0 0.1-0.2 0.3-0.3 0.5-0.1 0.2-0.2 0.6-0.4 1-0.1 0.3-0.2 0.7-0.2 0.7 0 0 0-0.2 0-0.3 0-0.2 0.1-0.6 0.2-1 0.1-0.3 0.3-0.7 0.4-0.9 0.2-0.2 0.2-0.4 0.2-0.6 0-0.1 0-0.3 0-0.3 0-0.1-0.1-0.1-0.2 0-0.1 0.1-0.3 0.2-0.4 0.3-0.1 0.2-0.2 0.5-0.4 0.7-0.1 0.2-0.2 0.6-0.3 0.8 0 0.3-0.2 1-0.3 1.6-0.1 0.6-0.2 1.3-0.3 1.6q-0.1 0.4-0.4 0.9h0.2c0.1 0 0.2 0 0.3-0.1 0.1-0.1 0.2-0.1 0.2-0.2q0.1 0 0.1 0c0 0 0.1 0.3 0.1 0.6q0.1 0.5 0.1 1.2c0 0.4 0 0.7-0.1 0.8q0 0.1 0.1 0.1c0.1 0 0.2-0.1 0.6-0.4l-0.1-0.5c0-0.3-0.1-0.7-0.1-1 0-0.2-0.1-0.7-0.1-1.1 0-0.3 0.1-0.6 0.1-0.7 0-0.2 0-0.1 0.1 0.2 0 0.2 0.1 0.7 0.1 1.2 0.1 0.5 0.2 1.1 0.2 1.3 0.1 0.2 0.1 0.4 0.1 0.6 0.1 0.3 0.1 0.3-0.2 0.6-0.1 0.1-0.3 0.3-0.7 0.5v0.4c0 0.2 0 0.6 0 0.9 0.1 0.2 0.2 0.8 0.3 1.2 0.1 0.3 0.2 0.8 0.3 1.1q0 0.4-0.1 0.8c-0.1 0.2-0.2 0.6-0.3 0.8-0.2 0.3-0.5 0.6-1.1 1.3-0.5 0.5-1.3 1.2-1.8 1.5-0.4 0.4-0.9 0.8-1.1 1-0.1 0.1-0.3 0.3-0.4 0.5-0.1 0.1-0.2 0.4-0.3 0.7 0 0.3-0.1 0.6 0 1.1 0 0.4 0.1 1.1 0.1 1.5 0.1 0.4 0.2 0.9 0.2 1.1 0 0.2-0.1 0.5-0.1 0.6q-0.1 0.3-0.4 0.6c-0.2 0.2-0.4 0.3-0.6 0.4-0.2 0.1-0.6 0.1-1 0.2-0.3 0-1.1 0-2.7 0v0.7c0 0.6 0 0.7-0.2 1.1-0.2 0.3-0.6 1.2-1.1 2-0.4 0.8-0.9 1.7-0.9 1.9-0.1 0.2-0.1 0.5-0.1 0.6 0 0.2 0 0.4 0.1 0.5 0.1 0.2 0.2 0.4 0.4 0.6 0.1 0.2 0.3 0.3 0.5 0.4 0.2 0 0.3 0 0.7-0.1 0.4 0 0.7-0.1 0.7-0.1 0.1 0 0.2 0.1 0.3 0.1 0 0.1 0.1 0.2 0.1 0.3 0 0.1 0.1 0.1 0.1 0.1q0.1 0 0.2 0c0-0.1 0.1-0.2 0.1-0.3 0-0.1-0.1-0.2-0.1-0.3-0.1-0.1-0.2-0.3-0.2-0.4 0-0.1-0.1-0.3-0.2-0.4 0-0.1-0.2-0.2-0.3-0.3-0.1 0-0.2-0.1-0.1-0.1 0 0 0.1 0 0.2 0 0.1 0 0.3 0.1 0.4 0.2 0.1 0 0.2 0.2 0.3 0.4 0.1 0.1 0.2 0.4 0.4 0.5 0.1 0.2 0.2 0.4 0.3 0.5 0 0.2 0 0.2 0.1 0.1 0.1 0 0.1-0.2 0.1-0.3 0-0.1 0-0.2 0-0.2q-0.1-0.1-0.1-0.4c0.1-0.2 0.1-0.3 0-0.4-0.1 0-0.2-0.2-0.4-0.2-0.2-0.1-0.3-0.2-0.3-0.2 0.1 0 0.3 0 0.5 0.1q0.3 0.1 0.4 0.3c0.1 0.1 0.1 0.2 0.1 0.4-0.1 0.2 0 0.2 0.1 0.3 0.1 0 0.3 0.2 0.4 0.3 0.1 0.1 0.2 0.2 0.3 0.2q0 0 0-0.1c0-0.1 0-0.2-0.1-0.3q-0.1-0.2-0.1-0.3c0-0.1 0-0.3 0-0.4-0.1-0.2-0.2-0.3-0.3-0.4-0.1-0.1-0.2-0.2-0.4-0.3-0.1 0-0.4-0.1-0.8-0.2-0.5-0.1-0.6-0.1-0.8-0.3-0.1-0.1-0.2-0.3-0.2-0.4 0-0.1 0-0.3 0-0.4 0.1-0.2 0.2-0.4 0.3-0.7 0.2-0.2 0.5-0.5 0.7-0.7 0.3-0.3 0.7-0.6 0.9-0.7 0.3-0.2 0.7-0.4 0.9-0.5 0.3 0 0.6-0.1 0.9-0.1 0.2-0.1 0.5 0 0.6 0q0.3 0.1 0.5 0.3c0.2 0.2 0.2 0.3 0.1 0.6h0.3c0.1-0.1 0.4-0.2 0.6-0.2 0.1-0.1 0.4-0.3 0.5-0.4 0.1-0.2 0.3-0.4 0.7-1.1v0.2c0.1 0.1 0.1 0.3 0.2 0.5 0 0.2 0 0.4-0.1 0.9h0.2c0.1 0 0.3-0.1 0.4-0.2 0.2-0.1 0.4-0.3 0.7-0.9v-1.2c0-0.6 0-1.1 0-1.1 0 0 0.2 0.2 0.3 0.4 0.1 0.2 0.4 0.6 0.9 1.3l0.1-0.2c0-0.1 0.1-0.4 0.1-0.7q0-0.6-0.1-0.9c0-0.1-0.2-0.6-0.4-1-0.2-0.5-0.4-1.1-0.5-1.4-0.1-0.3-0.2-0.6-0.1-1.1 0-0.3 0-0.8 0.1-1 0-0.2 0-0.4 0-0.4 0 0-0.1 0.1-0.2 0.2-0.2 0.1-0.3 0.2-0.4 0.3 0 0.1-0.1 0.3-0.1 0.3q-0.1 0.1-0.2 0.1c0-0.1 0-0.2 0.1-0.4 0.1-0.3 0.2-0.5 0.5-0.8 0.3-0.3 0.6-0.5 1.1-0.7 0.4-0.2 1-0.5 1.3-0.6 0.4-0.1 1-0.2 1.4-0.4 0.5-0.1 1.1-0.3 1.4-0.4 0.3-0.1 0.7-0.3 1-0.5 0.2-0.1 0.5-0.4 0.7-0.6 0.1-0.2 0.3-0.4 0.4-0.6 0.1-0.1 0.3-0.4 0.3-0.6 0.1-0.2 0.2-0.5 0.2-0.7 0-0.2-0.1-0.2-0.2-0.2q-0.2 0-0.2 0.1c0 0-0.1 0.3-0.3 0.6-0.1 0.3-0.4 0.6-0.6 0.9-0.2 0.3-0.5 0.5-0.7 0.6-0.1 0.1-0.2 0.2-0.3 0.2 0 0 0.1-0.2 0.3-0.3 0.1-0.1 0.3-0.4 0.4-0.6 0.2-0.4 0.2-0.5 0.3-1.7l-0.5-0.2q-0.5-0.3-1-0.7-0.4-0.5-0.5-0.4c0 0.1 0 0.2 0 0.3q0 0.3-0.1 0.3c0 0-0.1-0.1-0.3-0.1-0.1-0.1-0.3-0.3-0.4-0.4-0.1-0.1-0.3-0.3-0.4-0.5-0.1-0.1-0.2-0.4-0.2-0.6 0-0.1-0.1-0.3 0-0.3 0 0 0.1 0.2 0.3 0.4 0.1 0.3 0.3 0.6 0.6 0.8l0.1-0.2c0.1-0.2 0.3-0.4 0.4-0.5 0.1-0.1 0.2-0.3 0.4-0.8l0.1 0.2c0 0.2 0.1 0.5 0.1 0.8 0 0.4 0 0.5 0.1 0.7 0.1 0.1 0.3 0.3 0.4 0.3 0.1 0.1 0.3 0.2 0.3 0.2 0 0 0.1-0.2 0.1-0.4 0-0.3 0.1-0.7 0.1-0.9 0.1-0.3 0.2-0.4 0.2-0.4 0 0 0.1 0.1 0.1 0.2 0.1 0.1 0.1 0.4 0.1 0.5 0 0.2 0.1 0.4 0.1 0.6 0.1 0.2 0.2 0.3 0.5 0.4 0.1 0.1 0.3 0.2 0.5 0.2 0.1 0.1 0.2 0.1 0.2 0 0 0-0.1-0.3-0.1-0.7-0.1-0.4-0.1-0.8-0.1-0.8q0 0 0.1 0c0 0 0.1 0.3 0.2 0.5 0.2 0.5 0.2 0.5 0.7 0.7 0.2 0.2 0.5 0.3 0.5 0.3q0.1 0 0.1-0.1c-0.1-0.1-0.1-0.4-0.1-0.6-0.1-0.3-0.1-0.5-0.1-0.6 0.1 0 0.1 0.1 0.2 0.2 0.1 0.1 0.3 0.3 0.5 0.5 0.2 0.2 0.5 0.5 0.7 0.6 0.3 0.1 0.6 0.2 0.7 0.2 0.2 0.1 0.3 0.1 0.4 0q0 0-0.1-0.1c-0.1-0.1-0.2-0.2-0.3-0.4 0-0.1-0.1-0.4-0.1-0.5 0-0.2 0-0.3 0-0.4 0-0.1 0-0.1 0.2 0.2 0.1 0.1 0.4 0.3 0.5 0.4 0.1 0.1 0.4 0.3 0.6 0.4 0.2 0.1 0.4 0.2 0.8 0.2l-0.2-0.3c-0.1-0.2-0.2-0.4-0.2-0.5-0.1-0.1-0.1-0.2 0-0.3 0 0 0.1 0 0.4 0.1 0.3 0.2 0.4 0.2 0.9 0.3 0.4 0 0.6 0 0.7-0.1 0 0-0.1-0.1-0.2-0.2-0.1-0.1-0.2-0.2-0.2-0.2 0 0 0.1 0 0.2 0 0.1 0 0.3-0.1 0.5-0.1 0.2-0.1 0.4-0.2 0.7-0.4v0.1c0.1 0.1 0 0.2 0 0.3 0 0-0.2 0.1-0.4 0.2-0.3 0.1-0.3 0.1 0 0.3l-0.2 0.1c0 0.1-0.2 0.2-0.3 0.3-0.1 0-0.3 0.1-0.6 0-0.2 0-0.5 0-0.7-0.1-0.1 0-0.3 0-0.3 0 0 0 0 0.1 0.1 0.2 0.1 0.1 0.2 0.2 0.3 0.2 0.1 0.1 0.1 0.1 0 0.2-0.1 0.1-0.3 0.1-0.4 0.2-0.2 0-0.4 0-0.6 0-0.1-0.1-0.3-0.2-0.5-0.2-0.1-0.1-0.3-0.2-0.4-0.3-0.2-0.2-0.3-0.2-0.3-0.2 0 0 0 0.1 0.1 0.2 0 0.1 0.1 0.2 0.3 0.3 0.1 0.2 0.1 0.3 0.1 0.3 0 0-0.1 0.1-0.3 0.1-0.1 0.1-0.4 0.1-0.5 0.1-0.2 0-0.4 0-0.6-0.1-0.1 0-0.4-0.2-0.6-0.4-0.2-0.1-0.3-0.2-0.3-0.2 0 0 0 0.1 0.1 0.3 0.1 0.1 0.2 0.2 0.2 0.3 0 0-0.2 0-0.6-0.1v0.2c0 0.2-0.1 0.5-0.2 0.8 0 0.3-0.2 0.7-0.3 0.9-0.1 0.2-0.3 0.5-0.5 0.7-0.2 0.2-0.3 0.4-0.3 0.4 0 0 0.2 0.1 0.5 0.2q0.4 0.2 0.7 0.5c0.1 0.2 0.3 0.5 0.3 0.6 0.1 0.2 0.1 0.5 0.1 1l-0.1-0.2c-0.1-0.1-0.3-0.2-0.4-0.2-0.2-0.1-0.3-0.1-0.4-0.1q-0.2 0-0.2 0c0 0.1 0.2 0.2 0.4 0.4 0.2 0.2 0.5 0.5 0.6 0.7 0.1 0.2 0.2 0.5 0.3 0.7 0 0.3 0 0.5-0.1 0.8q-0.1 0.3-0.3 0.6c-0.1 0.1-0.2 0.2-0.3 0.2 0 0 0-0.1-0.1-0.2 0-0.2-0.1-0.4-0.2-0.5 0-0.1-0.1-0.1-0.2-0.1-0.1 0-0.1 0 0.1 0.3 0 0.2 0.1 0.5 0.1 0.7 0 0.1 0 0.4-0.1 0.6q-0.1 0.3-0.4 0.6c-0.2 0.1-0.3 0.3-0.4 0.3q0 0 0-0.2c-0.1-0.1-0.2-0.2-0.2-0.2q-0.2-0.1-0.4 0c0 0-0.1 0.1-0.2 0.2-0.1 0.1-0.3 0.4-0.4 0.7-0.2 0.3-0.3 0.6-0.3 0.7 0 0.2 0.1 0.7 1.5 4.1l1.5 0.9 0.7 0.1c0.4 0 0.9 0.1 1.2 0.1 0.3 0.1 0.5 0.2 0.7 0.4 0.1 0.1 0.3 0.4 0.4 0.5 0 0.1 0.1 0.4 0.1 0.7 0.1 0.3 0.1 0.6 0.1 0.8 0 0.2 0 0.3-0.1 0.3 0 0.1-0.2 0.2-0.7 0.3v-0.2c0.1-0.2 0-0.2-0.1-0.2q-0.2-0.1-0.3 0.1c-0.1 0-0.3 0.1-0.7 0.2v-0.2q0-0.3-0.1-0.3c0 0-0.2 0.1-0.3 0.2-0.1 0.2-0.3 0.3-0.3 0.3q-0.2 0-0.2-0.2c-0.1-0.1-0.1-0.1-0.2-0.2 0 0-0.6 0-1.2 0-1 0-1.2 0-1.4-0.1-0.1-0.1-0.3-0.2-0.4-0.3-0.1-0.1-0.8-1.4-1.6-2.8-0.8-1.5-1.6-2.8-1.7-2.9-0.1-0.2-0.3-0.4-0.5-0.6-0.2-0.1-0.4-0.3-0.4-0.4-0.1-0.1-0.1-0.2 0-0.3 0.1-0.1 0.5-0.7 1-1.3 0.8-1.2 0.8-1.2 0.8-1.5 0-0.2 0-0.4 0-0.5-0.1-0.1-0.2-0.2-0.3-0.3-0.1-0.1-0.8-0.4-1.5-0.8-1-0.5-1.4-0.6-1.4-0.6-0.1 0.1-0.1 0.2-0.1 0.3 0 0.1 0 0.3 0 0.4 0 0.1 0.1 0.3 0.3 0.5 0.2 0.2 0.3 0.5 0.4 0.6 0 0.1 0.1 0.3 0.1 0.5 0 0.2 0 0.2-0.1 0.2-0.2 0-0.2 0-0.1 0.3 0.1 0.1 0.2 0.4 0.2 0.6 0 0.3 0 0.3-0.1 0.3-0.1 0-0.1 0-0.1 0.3 0.1 0.1 0.1 0.6 0.1 1 0 0.5 0 0.9-0.1 1.1-0.1 0.2-0.2 0.5-0.3 0.6-0.2 0.2-0.3 0.3-0.3 0.3q-0.1 0-0.1-0.2c0.1-0.2 0-0.3-0.1-0.6q-0.2-0.2-0.5-0.6v0.4c0 0.3 0 0.6-0.1 0.9 0 0.2-0.1 0.5-0.2 0.6-0.1 0.2-0.3 0.4-0.5 0.5-0.2 0.1-0.4 0.2-0.5 0.2-0.2 0.1-0.4 0.1-0.5 0.1-0.3 0.1-0.3 0.1-0.3 0 0.1-0.1 0.2-0.2 0.2-0.3 0-0.1 0-0.3 0-0.6l-0.3 0.2c-0.2 0.2-0.4 0.3-0.6 0.4-0.2 0.1-0.5 0.2-0.8 0.3-0.2 0-0.5 0.1-0.6 0.1-0.2 0-0.3-0.1-0.3-0.1 0 0 0.1-0.1 0.2-0.2q0.2-0.2 0.2-0.3c0-0.2-0.1-0.2-0.2-0.3-0.1 0-0.4-0.1-0.5-0.1-0.2 0-0.5 0.1-0.7 0.1-0.3 0.1-0.7 0.2-1 0.4-0.4 0.2-0.6 0.3-0.9 0.7-0.3 0.2-0.6 0.6-0.7 0.8-0.2 0.2-0.3 0.4-0.3 0.6 0 0.2 0 0.2 0.1 0.4 0.2 0.2 0.3 0.2 0.8 0.3 0.2 0.1 0.6 0.2 0.7 0.2 0.2 0.1 0.4 0.3 0.5 0.4 0.1 0.1 0.3 0.4 0.3 0.5 0.1 0.2 0.1 0.3 0 0.3 0 0.1 0.1 0.2 0.1 0.3q0.2 0.1 0.2 0.4c0 0.1-0.1 0.3-0.1 0.4-0.1 0.1-0.2 0.1-0.2 0.1-0.1 0-0.2-0.1-0.6-0.4l-0.1 0.2c-0.1 0.1-0.2 0.3-0.3 0.3-0.2 0.1-0.3 0.1-0.4 0.1q-0.1 0-0.1-0.1c0-0.1 0-0.2 0-0.3q-0.1-0.1-0.1-0.1-0.1 0-0.1 0.1c0 0.1-0.1 0.2-0.2 0.2-0.1 0.1-0.3 0.2-0.4 0.2-0.2 0-0.3 0-0.3-0.2 0 0 0-0.1-0.1-0.2q-0.1 0-0.7 0c-0.4 0.1-0.8 0.1-1.1 0.1q-0.5-0.1-0.8-0.2-0.3-0.2-0.5-0.4c-0.1-0.2-0.3-0.5-0.3-0.7q-0.1-0.3-0.1-0.7c0-0.2 0.1-0.5 0.2-0.8 0.1-0.2 0.4-0.6 0.5-0.9 0.2-0.3 0.6-0.9 0.9-1.3 0.3-0.4 0.7-1 0.8-1.3 0.1-0.2 0.3-0.7 0.4-1q0.1-0.4 0.1-1.1h1.5c0.9 0 1.7 0 1.8-0.1 0.2 0 0.4-0.1 0.5-0.2 0 0 0.2-0.2 0.3-0.3 0.1-0.2 0.1-0.3 0.1-0.6 0-0.3-0.1-0.8-0.1-1.2-0.1-0.4-0.2-0.9-0.2-1.1 0-0.3 0-0.5 0-0.5 0 0-0.3 0.2-0.6 0.5-0.2 0.2-0.7 0.6-1 0.8-0.2 0.2-0.6 0.4-0.9 0.5-0.2 0.1-0.6 0.2-0.8 0.3-0.3 0.1-0.7 0.1-1.1 0.1-0.3 0-0.6 0-0.8-0.1-0.2 0-0.4-0.2-0.6-0.3-0.1-0.1-0.3-0.3-0.4-0.5-0.2-0.1-0.3-0.3-0.3-0.3q0-0.1 0.2 0c0.1 0 0.4 0 0.7 0 0.2 0 0.4 0 0.4 0 0 0-0.1-0.2-0.2-0.3-0.1-0.1-0.3-0.3-0.3-0.5-0.1-0.1-0.2-0.4-0.2-0.5q0-0.4 0.1-0.8c0-0.2 0.2-0.6 0.2-0.7 0.1-0.2 0.5-0.7 0.8-1.1 0.4-0.5 0.8-1 0.9-1.3 0.2-0.2 0.4-0.6 0.4-0.8 0.1-0.2 0.2-0.5 0.2-0.8q0-0.4-0.2-1l0.2 0.1c0.2 0 0.3 0.1 0.4 0.1 0.1 0.1 0.3 0.2 0.4 0.3 0.2 0.1 0.3 0.3 0.6 0.7l0.2-0.2c0.1-0.1 0.2-0.3 0.2-0.5 0.1-0.1 0.1-0.4 0.2-1.5l0.3 0.3c0.2 0.1 0.4 0.3 0.5 0.5 0 0.1 0.1 0.3 0.1 0.4 0.1 0.2 0.1 0.3 0.1 0.3 0 0 0.3-0.2 0.5-0.5 0.3-0.3 0.5-0.6 0.7-0.9 0.2-0.4 0.2-0.5 0.2-1.1 0-0.6 0-0.7-0.2-1-0.1-0.2-0.4-0.6-0.6-0.8-0.3-0.3-0.6-0.5-0.9-0.6-0.3-0.1-0.8-0.4-1.1-0.5-0.3-0.1-0.8-0.4-1-0.5-0.3-0.2-0.7-0.4-0.8-0.6-0.2-0.2-0.4-0.5-0.5-0.7 0-0.2-0.1-0.5-0.1-0.6 0-0.2 0-0.5 0.1-0.7 0-0.3 0-0.4-0.1-0.9-0.1-0.3-0.2-0.6-0.2-0.9 0-0.4 0.1-0.5 0.2-0.9 0.2-0.4 0.2-0.5 0.2-0.9 0-0.3 0-0.5 0-0.5 0 0 0.1 0.1 0.2 0.3 0 0.1 0.1 0.4 0.2 0.6 0 0.3 0.1 0.6 0.2 0.7 0 0.1 0.1 0.3 0.2 0.3q0.1 0.1 0.1 0.1c0 0 0-0.3-0.1-0.5-0.1-0.3-0.2-0.6-0.2-0.8 0-0.2 0-0.4 0.1-0.7 0-0.2 0.2-0.6 0.4-0.9 0.2-0.2 0.3-0.4 0.4-0.4q0.1-0.1 0.1 0.1c0 0.1 0 0.2 0 0.2 0 0 0.2-0.1 0.3-0.3 0.2-0.1 0.5-0.4 0.7-0.5 0.2-0.2 0.5-0.4 0.7-0.4 0.2-0.1 0.3-0.1 0.4-0.1 0 0-0.1 0.2-0.2 0.4-0.2 0.2-0.4 0.5-0.5 0.7-0.1 0.2-0.1 0.5-0.2 0.9l0.2-0.2c0.2-0.1 0.4-0.3 0.6-0.3 0.2-0.1 0.4-0.2 0.8-0.2 0.2 0 0.5 0.1 0.6 0.1 0.1 0 0.3 0.1 0.3 0.1 0 0-0.1 0.1-0.2 0.2-0.1 0.1-0.3 0.3-0.5 0.5-0.2 0.2-0.4 0.5-0.4 0.7-0.1 0.2-0.2 0.5-0.3 0.7q0 0.5 0 0.9c0.1 0.2 0.2 0.6 0.3 0.9 0.1 0.3 0.5 1.2 0.8 1.9 0.4 0.8 0.8 1.7 1 2.1 0.1 0.3 0.3 0.8 0.3 1.1 0.1 0.3 0.2 0.9 0.2 1.3 0 0.6 0 0.8-0.1 1.2 0 0.2-0.2 0.6-0.3 0.9-0.2 0.3-0.5 0.8-0.7 1-0.2 0.3-0.6 0.7-0.8 0.9-0.2 0.1-1.2 0.8-2.2 1.5-1.1 0.7-2.1 1.5-2.2 1.6-0.2 0.2-0.4 0.5-0.5 0.6 0 0.1-0.1 0.4-0.1 0.5-0.1 0.2 0 0.4 0.1 0.6 0 0.1 0.2 0.4 0.3 0.5 0.2 0.2 0.4 0.2 0.6 0.3 0.2 0.1 0.5 0.1 0.8 0q0.4-0.1 0.9-0.3c0.3-0.1 0.8-0.4 1.1-0.7 0.5-0.3 0.7-0.5 1.1-1 0.3-0.3 0.7-0.8 1-1.1 0.4-0.3 0.9-0.7 1.2-1 0.4-0.3 0.9-0.7 1.2-1 0.2-0.3 0.6-0.7 0.8-0.9 0.2-0.3 0.4-0.7 0.8-1.5v-0.7c0-0.6-0.1-0.9-0.2-1.4-0.1-0.3-0.2-0.7-0.2-0.8-0.1-0.2-0.1-0.5-0.2-1.4h-0.2c-0.1 0-0.2-0.1-0.2-0.1 0-0.1 0-0.1 0.1-0.2 0.1-0.1 0.3-0.3 0.3-0.4 0.1-0.2 0.1-0.5 0.2-0.8 0-0.3 0-0.5 0-0.6-0.1-0.2-0.1-0.2-0.3-0.2-0.2 0-0.5-0.1-0.7-0.1-0.1-0.1-0.4-0.2-0.5-0.3-0.2 0-0.3-0.1-0.3-0.2q0 0 0.1-0.1c0.1 0 0.3-0.1 0.5-0.2 0.1-0.1 0.3-0.3 0.4-0.3 0-0.1 0.1-0.3 0.2-0.4 0-0.2 0.1-0.4 0.1-0.4 0-0.1-0.1-0.2-0.4-0.2-0.2-0.1-0.5-0.2-1-0.4l0.3-0.2c0.1-0.1 0.3-0.3 0.4-0.4 0.1-0.1 0.2-0.3 0.3-0.5 0-0.1 0.1-0.6 0.2-1 0-0.4 0.1-0.8 0.1-0.8q0-0.1-0.2-0.1c-0.1 0-0.3 0-0.4 0-0.2 0-0.3-0.1-0.4-0.1 0-0.1 0.1-0.2 0.4-0.4 0.3-0.3 0.5-0.4 0.6-0.6 0.1-0.2 0.1-0.4 0.1-0.5 0-0.2 0-0.2-0.5-0.3l0.2-0.2c0.1-0.1 0.3-0.4 0.4-0.6 0.1-0.3 0.3-0.6 0.4-0.7 0.2-0.3 0.2-0.3 0.2-0.6 0-0.2 0-0.5 0-0.6 0.1-0.1 0.2-0.3 0.3-0.4 0.1-0.1 0.4-0.2 0.5-0.3 0.1 0 0.3 0 0.4 0 0.1 0 0.2 0 0.2 0.1 0.1 0 0.1-0.1 0.1-0.3 0.1-0.2 0.1-0.4 0.2-0.4 0-0.1 0.2-0.1 0.7 0l0.3-0.4c0.2-0.2 0.3-0.4 0.3-0.4q0.1 0 0.1 0c0.1 0.1 0.2 0.2 0.3 0.3 0.2 0 0.3 0.1 0.4 0.1q0.1 0 0.1-0.1c0.1 0 0.1-0.2 0.2-0.4zm57.7 0l0.2 0.4c0.1 0.4 0.1 0.4 0.2 0.5 0.1 0 0.3-0.1 0.5-0.2 0.2-0.2 0.3-0.2 0.4-0.2 0 0 0.1 0.2 0.3 0.4 0.2 0.3 0.2 0.3 0.5 0.3 0.1 0 0.3 0 0.3 0 0.2 0 0.2 0.1 0.2 0.4 0.1 0.3 0.1 0.3 0.2 0.3 0.1 0 0.2 0 0.2-0.1 0.1 0 0.3 0 0.4 0.1 0.2 0 0.4 0.1 0.5 0.2 0.1 0.1 0.2 0.3 0.3 0.5q0.1 0.3 0 0.6c0 0.2 0 0.3 0.2 0.6 0.2 0.2 0.4 0.5 0.5 0.7 0.1 0.2 0.2 0.5 0.5 0.7l-0.5 0.2v0.3q0 0.2 0.2 0.5c0.1 0.1 0.3 0.3 0.5 0.5 0.2 0.1 0.4 0.2 0.4 0.3 0 0-0.1 0-0.2 0.1-0.1 0-0.3 0.1-0.5 0.1-0.2 0-0.2 0-0.2 0.1 0 0.1 0 0.5 0.1 0.9 0 0.5 0.1 0.8 0.2 1 0.1 0.2 0.2 0.4 0.3 0.5 0.1 0.1 0.3 0.3 0.4 0.3 0.1 0.1 0.2 0.1 0.1 0.2-0.1 0.1-0.3 0.2-0.5 0.2-0.2 0.1-0.4 0.2-0.6 0.2-0.2 0-0.2 0-0.1 0.3 0 0.1 0.1 0.3 0.1 0.5 0.1 0.1 0.3 0.3 0.5 0.4 0.1 0.1 0.3 0.2 0.7 0.4l-0.2 0.1c-0.1 0.1-0.3 0.2-0.5 0.3-0.2 0-0.5 0.1-1.1 0.2v0.6c0 0.6 0 0.7 0.2 1 0 0.2 0.2 0.4 0.2 0.4q0.2 0 0.2 0.1c0 0-0.1 0-0.2 0.1 0 0-0.2 0.1-0.2 0.1-0.1 0-0.1 0.1-0.2 0.5 0 0.3 0 0.7-0.1 0.9 0 0.2-0.1 0.6-0.2 1-0.2 0.4-0.2 0.8-0.2 1.2 0 0.6 0 0.7 0.1 1 0.1 0.2 0.3 0.5 0.5 0.8 0.2 0.3 0.6 0.8 1 1.2 0.3 0.3 0.9 0.8 1.2 1.1 0.4 0.3 1 0.9 1.5 1.3 0.4 0.4 0.9 0.9 1 1.1 0.2 0.2 0.6 0.5 1 0.8 0.4 0.3 0.9 0.6 1.1 0.6 0.2 0.1 0.5 0.2 0.7 0.3 0.3 0 0.6 0 0.7 0 0.2 0 0.4-0.1 0.5-0.2 0.1-0.1 0.2-0.2 0.4-0.4 0.1-0.1 0.2-0.3 0.2-0.5 0.1-0.1 0.1-0.3 0-0.4 0-0.2-0.1-0.4-0.1-0.5-0.1-0.1-0.3-0.4-0.5-0.5-0.1-0.2-1.1-0.9-2.2-1.6-1.5-1-2.1-1.5-2.5-1.9-0.3-0.2-0.6-0.6-0.8-0.9-0.1-0.2-0.3-0.6-0.4-0.8-0.1-0.2-0.2-0.5-0.3-0.7-0.1-0.4-0.1-0.6-0.1-1.3 0.1-0.5 0.1-1 0.2-1.4 0.1-0.3 0.3-0.8 0.3-1 0.1-0.3 0.5-1.1 0.9-1.9 0.4-0.8 0.8-1.7 0.9-2 0.2-0.6 0.3-0.7 0.3-1.4 0-0.7 0-0.7-0.3-1.2-0.2-0.3-0.4-0.6-1.1-1.3l0.2-0.1c0.1 0 0.3-0.1 0.6-0.1 0.3 0 0.5 0 0.7 0 0.2 0.1 0.4 0.2 0.6 0.4 0.2 0.1 0.4 0.2 0.4 0.2 0 0 0-0.1 0-0.3 0-0.1-0.1-0.4-0.2-0.5-0.1-0.2-0.3-0.5-0.4-0.7-0.1-0.2-0.3-0.4-0.3-0.4q0 0 0.1 0c0 0 0.2 0 0.4 0.1 0.1 0 0.4 0.2 0.6 0.3 0.2 0.2 0.5 0.4 0.7 0.6 0.1 0.1 0.3 0.3 0.3 0.3 0 0 0.1-0.1 0.1-0.5l0.2 0.3c0.2 0.2 0.4 0.5 0.5 0.8 0.2 0.3 0.2 0.5 0.2 0.8 0 0.1 0 0.5-0.1 0.6 0 0.2-0.1 0.5-0.2 0.7-0.1 0.2-0.1 0.2 0 0.2 0.1 0 0.2-0.1 0.3-0.2 0.1-0.1 0.2-0.4 0.2-0.7 0.1-0.3 0.2-0.6 0.2-0.7 0.1-0.1 0.1-0.3 0.2-0.3 0 0 0 0.3 0 0.5 0 0.4 0 0.6 0.2 0.9 0.2 0.3 0.2 0.5 0.2 0.8 0 0.2 0 0.5-0.1 0.6 0 0.2-0.1 0.5-0.1 0.6-0.1 0.3-0.1 0.4 0 0.8 0 0.3 0 0.5 0 0.8-0.1 0.1-0.1 0.4-0.2 0.5-0.1 0.2-0.3 0.4-0.5 0.6-0.2 0.3-0.5 0.5-0.9 0.7-0.3 0.1-0.9 0.4-1.3 0.6-0.4 0.1-0.8 0.4-1 0.5-0.2 0.1-0.5 0.4-0.6 0.5-0.2 0.2-0.4 0.5-0.5 0.7-0.1 0.3-0.2 0.5-0.2 0.8q0 0.5 0.1 0.9c0.1 0.2 0.2 0.5 0.4 0.7 0.1 0.3 0.4 0.6 0.5 0.7 0.2 0.2 0.4 0.3 0.4 0.3q0.1 0 0.1-0.1c0 0 0-0.2 0-0.3 0.1-0.2 0.2-0.4 0.4-0.6 0.2-0.2 0.4-0.3 0.4-0.3 0.1 0 0.1 0.1 0.1 0.5 0 0.5 0.1 0.6 0.2 0.9q0.1 0.3 0.4 0.7l0.2-0.3c0-0.1 0.2-0.3 0.4-0.5 0.1-0.1 0.4-0.3 0.6-0.3 0.1-0.1 0.3-0.1 0.3-0.1 0 0 0 0.1 0 0.2 0 0.2 0 0.5 0 0.7 0 0.3 0 0.6 0 0.8 0.1 0.1 0.2 0.4 0.4 0.7 0.1 0.2 0.6 0.9 0.9 1.4 0.4 0.5 0.8 1 0.9 1.3 0.1 0.2 0.2 0.5 0.3 0.7q0 0.4 0 0.7c-0.1 0.2-0.1 0.5-0.2 0.6-0.1 0.1-0.2 0.3-0.3 0.4-0.1 0.1-0.2 0.2-0.2 0.3 0 0 0.2 0 0.4 0 0.3 0 0.5 0 0.7-0.1 0.2 0 0.2 0 0.2 0.1 0 0-0.2 0.2-0.4 0.4q-0.3 0.4-0.7 0.6c-0.3 0.2-0.4 0.2-1 0.2q-0.6 0-1.1-0.1c-0.2-0.1-0.7-0.3-1-0.5-0.3-0.1-0.8-0.4-1-0.6-0.3-0.1-0.7-0.5-1.3-1.1v0.6c-0.1 0.4-0.1 0.9-0.2 1.2 0 0.2-0.1 0.7-0.1 0.9 0 0.4 0 0.5 0.1 0.7q0.2 0.3 0.4 0.5c0.3 0.1 0.3 0.1 3.7 0.1v0.4c0 0.1 0.1 0.5 0.1 0.7 0.1 0.3 0.3 0.7 0.4 1 0.1 0.4 0.5 0.9 0.8 1.3 0.3 0.4 0.7 0.9 0.8 1.2 0.2 0.3 0.4 0.8 0.6 1.1 0.2 0.5 0.2 0.6 0.2 1 0 0.2-0.1 0.5-0.2 0.7-0.1 0.2-0.2 0.5-0.4 0.6-0.1 0.2-0.4 0.3-0.5 0.3-0.2 0.1-0.6 0.1-1 0.1-0.4 0-0.9 0-1.1 0-0.4 0-0.4 0-0.4 0.1 0 0.1-0.1 0.2-0.1 0.2-0.1 0.1-0.3 0-0.4 0-0.2-0.1-0.3-0.2-0.3-0.3-0.1-0.1-0.2-0.1-0.2-0.1 0 0-0.1 0.1-0.1 0.2 0 0.2 0 0.3-0.1 0.3-0.1 0-0.3-0.1-0.4-0.2-0.1 0-0.2-0.2-0.3-0.3 0-0.1 0-0.2-0.1-0.2 0 0-0.1 0.1-0.2 0.3-0.1 0.1-0.3 0.2-0.3 0.2-0.1 0-0.2-0.1-0.2-0.1q-0.2-0.2-0.2-0.4c0-0.1 0.1-0.3 0.1-0.4 0.1-0.1 0.2-0.3 0.2-0.5 0-0.1 0-0.3 0.1-0.4 0.1-0.2 0.3-0.3 0.4-0.4 0.1-0.1 0.3-0.2 0.5-0.3 0.1 0 0.3-0.1 0.5-0.1 0.3-0.1 0.5-0.1 0.6-0.2 0.1 0 0.2-0.1 0.3-0.2 0-0.2 0-0.3 0-0.5 0-0.1-0.1-0.3-0.3-0.5-0.1-0.1-0.3-0.4-0.5-0.6-0.2-0.3-0.5-0.5-0.8-0.7-0.2-0.1-0.6-0.3-0.9-0.4-0.3-0.1-0.7-0.2-0.9-0.2-0.4 0-0.5 0-0.7 0.1q-0.2 0.1-0.2 0.2 0 0.2 0.3 0.4c0.1 0.1 0.2 0.2 0.1 0.2 0 0-0.1 0-0.2 0-0.1 0-0.5 0-0.7-0.1-0.3 0-0.7-0.2-0.8-0.2-0.2-0.1-0.5-0.3-0.9-0.7v0.2c0 0.1 0 0.3 0 0.4 0.1 0.1 0.1 0.3 0.1 0.3 0.1 0.1 0.1 0.1-0.2 0.1-0.2 0-0.5-0.1-0.7-0.2-0.2-0.1-0.5-0.3-0.6-0.4-0.1-0.2-0.3-0.4-0.4-0.6 0-0.2-0.1-0.5-0.1-0.9 0-0.3 0-0.6 0-0.6 0 0-0.2 0.2-0.3 0.4-0.3 0.3-0.3 0.5-0.3 1l-0.3-0.2c-0.1-0.2-0.3-0.4-0.3-0.7-0.1-0.2-0.2-0.5-0.2-1.1 0-0.5 0.1-1 0.1-1.1 0-0.1 0-0.2-0.1-0.2 0 0 0-0.1-0.1-0.2 0 0 0-0.2 0-0.3 0.1-0.2 0.1-0.4 0.3-0.8l-0.1 0.1c-0.1 0-0.1 0-0.1-0.3 0-0.1 0-0.4 0-0.5 0.1-0.1 0.2-0.3 0.3-0.4 0.2-0.1 0.3-0.3 0.4-0.5q0.1-0.2 0-0.5c0-0.1 0-0.3 0-0.3-0.1-0.1-0.5 0.1-1.5 0.6-1.1 0.5-1.5 0.7-1.6 0.9-0.1 0.1-0.2 0.3-0.3 0.5 0 0.1 0 0.3 0.1 0.4 0 0.1 0.5 0.8 1 1.4q0.9 1.2 0.9 1.3c0 0.2-0.1 0.3-0.5 0.6-0.3 0.3-0.5 0.5-0.9 1.2-0.2 0.4-1 1.7-1.6 2.8-0.7 1.2-1.2 2.2-1.3 2.3-0.1 0-0.3 0.2-0.4 0.2-0.2 0.1-0.4 0.1-1.4 0.1-1.1 0-1.2 0-1.3 0.2 0 0-0.1 0.1-0.1 0.2 0 0-0.1 0-0.2 0q-0.1 0-0.3-0.2c-0.2-0.1-0.3-0.2-0.3-0.2-0.1 0-0.1 0.1-0.1 0.4h-0.2c-0.1 0-0.3-0.1-0.4-0.2-0.2 0-0.3-0.1-0.4-0.1-0.2 0-0.2 0-0.1 0.2 0 0.2 0 0.2-0.2 0.2-0.1 0-0.2-0.1-0.3-0.1-0.1 0-0.2-0.1-0.3-0.2-0.1-0.2-0.1-0.2 0-0.5 0.1-0.2 0.1-0.5 0.1-0.6 0-0.2 0.1-0.4 0.1-0.6 0.1-0.1 0.2-0.3 0.4-0.5 0.1-0.1 0.3-0.2 0.5-0.3 0.2-0.1 0.5-0.2 0.7-0.2 0.3-0.1 0.6-0.1 0.8-0.1 0.2 0 0.4 0 0.6-0.1 0.1 0 0.5-0.2 1.5-0.9l0.8-2c0.8-1.9 0.8-1.9 0.7-2.2 0-0.1-0.2-0.4-0.3-0.7-0.2-0.3-0.3-0.5-0.4-0.6q-0.2-0.2-0.4-0.2c-0.1 0-0.2 0.1-0.3 0.1 0 0.1 0 0.2-0.1 0.2 0 0.1-0.1 0.1-0.3-0.1-0.2-0.1-0.4-0.4-0.4-0.6-0.1-0.2-0.2-0.4-0.2-0.6 0-0.2 0.1-0.5 0.1-0.7 0.1-0.2 0.1-0.4 0.1-0.4 0 0-0.1 0.1-0.2 0.2-0.1 0.1-0.2 0.3-0.2 0.4-0.1 0.2-0.1 0.3-0.1 0.3 0 0-0.2-0.1-0.3-0.3-0.1-0.1-0.3-0.4-0.3-0.5-0.1-0.2-0.1-0.5-0.1-0.6 0-0.2 0.1-0.5 0.2-0.7 0.2-0.3 0.4-0.6 0.7-0.9 0.2-0.2 0.4-0.4 0.4-0.4-0.1-0.1-0.2 0-0.4 0q-0.2 0-0.5 0.2c-0.2 0.2-0.2 0.2-0.2 0.1-0.1 0-0.1-0.2 0-0.4 0-0.1 0.1-0.4 0.1-0.6 0.1-0.1 0.3-0.4 0.5-0.6 0.2-0.1 0.4-0.3 0.6-0.4 0.2-0.1 0.3-0.1 0.4-0.1q0 0 0-0.1c0 0-0.1-0.1-0.3-0.3-0.2-0.2-0.4-0.6-0.5-0.8-0.1-0.2-0.3-0.6-0.3-0.9q-0.1-0.4-0.2-0.9h-0.3c-0.1 0-0.3 0-0.3 0 0 0 0.1-0.1 0.2-0.3 0.1-0.1 0.1-0.2 0.1-0.2 0 0-0.1 0.1-0.3 0.2-0.1 0.1-0.3 0.2-0.4 0.3-0.2 0.1-0.4 0.1-0.6 0.1-0.2 0.1-0.5 0-1.1-0.1l0.3-0.4c0.2-0.2 0.3-0.4 0.3-0.4q0 0 0-0.1-0.1 0-0.1 0.1c-0.1 0.1-0.3 0.2-0.4 0.3-0.2 0.1-0.4 0.3-0.6 0.3-0.3 0.1-0.4 0.1-0.6 0q-0.2 0-0.6-0.2l0.3-0.3c0.1-0.1 0.2-0.2 0.2-0.2 0-0.1-0.1-0.1-0.3 0-0.2 0.1-0.5 0.1-0.7 0.1-0.2 0-0.4 0-0.6-0.1-0.1 0-0.2-0.1-0.4-0.4l0.1-0.1c0.1 0 0.1 0-0.2-0.2-0.2 0-0.4-0.1-0.5-0.2-0.2-0.1-0.3-0.3-0.4-0.5-0.1-0.1-0.2-0.4-0.3-0.6 0-0.2-0.1-0.6-0.1-0.9-0.1-0.3-0.2-0.6-0.2-0.7-0.1-0.3-0.2-0.3-0.3-0.3q-0.2 0-0.3 0.1 0 0.1-0.1 0.1c0 0-0.1-0.1-0.1-0.2 0-0.1 0-0.3 0-0.4 0.1-0.2 0.1-0.4 0.3-0.5 0.1-0.1 0.2-0.2 0.3-0.2q0.2 0 0.2 0 0-0.1-0.1-0.2c0 0-0.1 0-0.2 0-0.1 0-0.2 0-0.2 0.1q-0.1 0.1-0.2 0.1c0 0-0.1-0.1-0.1-0.3 0-0.3 0.1-0.4 0.2-0.5q0.2-0.2 0.5-0.2c0.2 0 0.3 0 0.2-0.1-0.1-0.1-0.2-0.1-0.4-0.1-0.1-0.1-0.2-0.1-0.2-0.2q0 0 0-0.1c0.1-0.1 0.2-0.2 0.3-0.2 0.1-0.1 0.3-0.1 0.8-0.1 0.4 0 0.6 0 0.8 0.1 0.2 0.1 0.3 0.3 0.4 0.4 0.1 0.1 0.3 0.5 0.4 1 0.1 0.5 0.2 1 0.3 1.1 0 0.1 0.1 0.3 0.2 0.4 0.1 0.1 0.2 0.2 0.3 0.2 0 0.1 0.2 0.1 0.3 0.1 0.1 0.1 0.5 0.1 0.8 0 0.3 0 0.6-0.1 0.6-0.1 0 0 0-0.1-0.2-0.2-0.1-0.2-0.2-0.4-0.3-0.5q-0.1-0.2-0.2-0.6l0.6 0.1-0.4-0.2c-0.3-0.1-0.6-0.3-0.7-0.5-0.1-0.1-0.3-0.3-0.3-0.5-0.1-0.1-0.1-0.3-0.1-0.4 0-0.1 0-0.1 0.2-0.1q0.3 0 0.3 0c0-0.1-0.1-0.1-0.3-0.2-0.2 0-0.4-0.2-0.6-0.4-0.3-0.3-0.4-0.5-0.6-0.8-0.1-0.3-0.2-0.6-0.2-0.6q0-0.1 0.1-0.1c0.1 0 0.3 0.1 0.5 0.2 0.2 0.1 0.5 0.2 0.6 0.1 0.1 0-0.1-0.1-0.7-0.4-0.6-0.3-0.9-0.5-1.1-0.7q-0.3-0.3-0.4-0.6c0-0.2 0-0.5 0-0.6 0-0.1 0-0.2 0.1-0.2q0 0 0.1 0.1 0.1 0 0.1 0c0 0 0-0.1 0-0.2-0.1-0.1-0.2-0.4-0.4-0.7-0.2-0.3-0.4-0.6-0.5-0.8 0-0.2-0.1-0.6-0.1-0.9 0-0.4 0-0.6-0.1-0.6 0-0.1-0.1-0.1-0.1-0.1 0 0-0.2 0-0.3 0.1-0.1 0.1-0.2 0.1-0.2 0 0 0-0.1-0.2-0.1-0.3 0-0.1 0.1-0.3 0.1-0.4 0.1-0.1 0.2-0.2 0.3-0.2 0 0 0.1 0 0.2-0.1q0.1-0.1 0.1-0.3 0-0.3-0.1-0.4c-0.1-0.1-0.2-0.1-0.3 0-0.3 0-0.3 0-0.2-0.2 0-0.1 0-0.2 0.1-0.3 0-0.1 0.2-0.2 0.3-0.2q0.2-0.1 0.2-0.3c0 0 0-0.2-0.1-0.3-0.1-0.1-0.2-0.2-0.3-0.3q-0.2-0.1-0.2-0.2c0.1 0 0.2-0.1 0.3-0.2 0 0 0.2-0.1 0.3-0.1 0.1 0 0.3 0.1 0.4 0.1 0.1 0.1 0.3 0.2 0.4 0.3 0.2 0.2 0.3 0.3 0.7 0.3 0.3 0.1 0.4 0.2 0.6 0.3 0.1 0.1 0.2 0.3 0.2 0.5 0.1 0.2 0.1 0.4 0 1-0.1 0.6-0.1 0.8 0 1 0 0.1 0.1 0.3 0.2 0.4 0 0.2 1 1.2 2 2.3 1.1 1.2 2 2.1 2 2.1 0 0 0.3-0.4 0.5-1 0.3-0.5 0.5-1 0.6-1.1 0-0.2 0-0.2-0.4-0.2-0.2 0-0.4 0-0.5 0q0-0.1 0.1-0.4c0.2-0.1 0.3-0.4 0.3-0.5 0-0.1 0.2-0.6 0.3-1.1 0.1-0.6 0.3-1.1 0.3-1.2 0.1-0.1 0.1-0.2 0-0.4-0.2-0.1-0.2-0.3-0.2-0.5 0-0.2 0.1-0.4 0.2-0.6 0.1-0.2 0.2-0.4 0.3-0.5 0.2 0 0.5-0.2 0.7-0.3 0.3-0.2 0.5-0.3 0.7-0.3 0.1 0 0.2 0 0.4-0.1 0.2-0.2 0.3-0.2 0.6-0.2 0.3 0.1 0.3 0 0.5-0.2 0.2-0.1 0.6-0.3 0.9-0.4zm-46.3 3.5q0.2 0 0.2 0.1 0 0.1-0.1 0.1c-0.1 0-0.2 0-0.2 0q-0.2 0-0.1-0.1c0 0 0.1-0.1 0.2-0.1zm0.1 9.3c0 0 0.1 0.1 0.1 0.2 0 0.1 0 0.1-0.2 0.1-0.2 0-0.3 0-0.5 0.2-0.1 0.1-0.2 0.2-0.2 0.2 0 0 0-0.1 0.1-0.2 0-0.1 0.1-0.2 0.2-0.3 0-0.1 0.2-0.1 0.3-0.2 0 0 0.1 0 0.2 0zm0.1 0.9q0.1 0 0.1 0.1c0 0-0.1 0.1-0.3 0.1-0.1 0.1-0.2 0.1-0.2 0.1 0 0 0.1-0.1 0.2-0.2 0.1 0 0.2-0.1 0.2-0.1z"/><path class="c" d="m27.6 0.2v0.7l1 0.8v11.6c-0.2 0.1-0.3 0.2-0.3 0.4 0 0.1 0 0.3 0 0.3 0 0 0.1 0 0.2-0.1q0.2-0.2 0.4-0.3 0.2 0 0.2 0.1c0 0.1-0.1 0.2-0.2 0.3-0.2 0.1-0.2 0.2-0.2 0.5 0 0.3 0 0.3-0.2 0.3q-0.2 0.1-0.2 0.1 0.1 0 0.2 0.1 0 0 0 0 0.1 0 0.1 0c0-0.1 0.2-0.1 0.3-0.1 0.2 0 0.3 0.1 0.3 0.1 0.1 0 0 0.1-0.1 0.2-0.1 0-0.2 0.1-0.3 0.2 0 0-0.1 0.2-0.1 0.4 0 0.2 0 0.3-0.1 0.3q-0.1 0-0.1-0.1 0 0-0.1 0-0.1 0-0.1 0.1 0 0.1 0.1 0.1c0 0 0.1 0.1 0.2 0.2 0.1 0.1 0.2 0.1 0.3 0.1 0.1 0 0.2 0 0.2 0q0.2 0.1 0.2 0.1 0 0.1-0.2 0.1-0.1 0-0.1 0.1 0 0-0.1 0.1c-0.1 0-0.2 0.1-0.2 0.2-0.1 0.1-0.1 0.2-0.1 0.2 0 0 0 0.4 0 1 0 0.5 0 2 0 3.4 0 2.1 0 2.4-0.1 2.4 0 0.1 0 0.1 0 0.2 0 0.1 0 0.1 0.2 0.1q0.2 0 0.3 0.1c0 0.1-0.1 0.1-0.2 0.2-0.1 0.1-0.2 0.1-0.2 0.2 0 0-0.1 0.1-0.2 0.2 0 0-0.1 0.2-0.1 0.2 0 0.1 0.1 0.2 0.1 0.2 0.1 0 0.2 0 0.2-0.1 0.1 0 0.3-0.1 0.4-0.1 0.1 0 0.3 0 0.3 0.1q0.1 0.1 0.1 0.1-0.1 0.1-0.1 0.1c-0.1 0-0.2 0.1-0.3 0.2 0 0-0.1 0.2-0.1 0.2q-0.1 0.1-0.3 0.1c-0.1 0-0.1 0.1-0.1 0.1 0 0 0.1 0.1 0.3 0.1 0.2 0 0.4 0 0.4 0q0 0.1 0.1 0c0.1 0 0.1 0.1 0.2 0.2 0 0 0.1 0.1 0.1 0.2q0 0.1-0.2 0.1c-0.1 0-0.2 0-0.3 0.1 0 0-0.1 0.2-0.2 0.3-0.1 0.2-0.1 0.3-0.1 0.4q0 0.1-0.1 0.2c0 0 0 0.1 0 0.2 0 0.1 0 0.2-0.1 0.2q0 0 0 0.1c0 0.1 0 0.3-0.1 0.6 0 0.2-0.2 0.5-0.3 0.7q-0.2 0.3-0.1 0.4c0 0.1 0 0.2 0.1 0.2 0 0 0.1-0.1 0.2-0.2l0.2-0.2v17.4c-0.4 0.4-0.6 0.5-0.7 0.5-0.1 0-0.2 0.1-0.3 0.2-0.1 0-0.2 0.2-0.2 0.3 0 0.2 0 0.4-0.1 0.5 0 0.2 0 0.3 0.2 0.4l0.1 0.1h6.1v-1.2l-1.5-0.8v-33.9c1.5 6.3 3.3 14.4 5.1 22l3.2 13.9h4.6c6.2-27.2 8.1-35.2 8.1-35.4 0.1-0.3 0.1 1.7 0.1 16.5v16.9l-1.5 0.8v1.2h9.6v-1.2l-1.1-0.8v-45.6l1-0.8 0.1-1.2h-8.6c-6.4 27.8-8.3 35.9-8.3 35.9 0 0-1.9-8.1-4.2-17.9-2.3-9.8-4.2-17.9-4.2-18 0 0-0.9 0-4.3 0h-4.2z"/><path fill-rule="evenodd" class="a" d="m37.6 1.9h0.6c0.5 0 0.6 0 0.6 0.1 0 0.1 1.4 6.2 6.2 27l-0.2 1c-0.1 0.6-0.3 1.1-0.3 1.1q0 0-0.1 0c0-0.1-1.4-6-3.1-13.3-1.6-7.2-3.2-13.7-3.3-14.5zm-20.7 11l0.2 0.1c0.2 0.1 0.4 0.2 0.5 0.3 0 0.1 0.2 0.3 0.2 0.3q0.1 0.2 0.2 0.2c0 0 0.2-0.1 0.3-0.1 0.1-0.1 0.3-0.1 0.3-0.1q0.1 0 0.2 0c0 0 0 0.1 0 0.2-0.1 0.1-0.1 0.2-0.1 0.2 0 0.1 0.1 0 0.2 0q0.2-0.1 0.7-0.1l-0.2 0.1c0 0.1-0.1 0.2-0.1 0.3-0.1 0.1-0.1 0.2 0 0.3 0 0.1 0 0.1 0.1 0 0 0 0.1-0.1 0.2-0.2 0.2 0 0.4-0.1 0.5-0.1 0.2 0 0.4 0.1 0.5 0.1 0.1 0.1 0.2 0.2 0.3 0.3 0.1 0.1 0.1 0.3 0.1 0.5 0 0.1 0 0.3 0 0.4-0.1 0.1-0.2 0.2-0.4 0.3-0.1 0.1-0.2 0.1-0.3 0.1q-0.1 0-0.1 0.1c0.1 0 0.2 0.1 0.4 0.2q0.4 0.1 0.4 0.2c0.1 0.1 0.2 0.5 0.2 0.8 0.1 0.4 0.1 0.8 0.2 1 0 0.2 0.1 0.4 0.1 0.5q0 0.1 0 0.1c-0.1 0-0.2-0.1-0.3-0.2-0.1-0.1-0.2-0.2-0.3-0.2 0 0 0 0.2 0 0.4 0 0.2 0.1 0.4 0.2 0.7 0 0.2 0.2 0.6 0.4 1 0.2 0.3 0.3 0.8 0.4 1 0 0.3 0.1 0.6 0.1 0.8 0 0.1-0.1 0.4-0.1 0.5q0 0.2-0.3 0.7h0.2c0.1 0 0.3 0.1 0.4 0.2 0.1 0.1 0.2 0.3 0.3 0.5q0.2 0.3 0.2 0.8c0 0.3 0 0.5-0.1 0.7 0 0.1-0.1 0.4-0.3 0.5-0.1 0.2-0.2 0.3-0.2 0.3-0.1 0-0.4-0.1-1.4-0.5l-0.2-0.7c-0.2-0.5-0.2-0.9-0.2-1.2 0-0.2 0-0.5 0.1-0.8 0-0.2 0.1-0.4 0.1-0.4q0 0 0 0.1c0 0.1 0.1 0.3 0.2 0.4 0 0.2 0.2 0.4 0.3 0.6 0.2 0.2 0.3 0.4 0.4 0.6q0 0.3 0 0.6-0.1 0.3 0 0.3c0 0 0.1-0.2 0.2-0.3q0.1-0.3 0-0.6c0-0.2 0-0.4-0.1-0.5 0-0.1-0.2-0.3-0.3-0.5-0.1-0.1-0.2-0.3-0.3-0.3 0-0.1-0.1-0.6-0.1-1 0-0.5-0.1-1.1-0.2-1.3 0-0.2-0.1-0.4-0.1-0.4 0 0 0 0.2 0 0.5 0 0.6 0 0.7-0.3 1.8-0.3 0.7-0.3 1.2-0.3 1.5 0 0.2 0 0.5 0 0.7 0.1 0.1 0.2 0.4 0.2 0.5 0.1 0.2 0.1 0.2 0 0.2 0 0-0.3 0-0.5-0.1-0.4-0.2-0.4-0.2-0.6-0.6-0.1-0.2-0.2-0.5-0.2-0.7-0.1-0.3-0.1-0.5 0.1-1 0.1-0.3 0.1-0.6 0.1-0.6 0 0-0.1 0.1-0.1 0.2-0.1 0.1-0.2 0.4-0.5 1l-0.3-0.5-0.1 0.2c0 0.2 0.1 0.5 0.1 0.7 0.1 0.3 0.1 0.5 0.2 0.6 0 0.1 0 0.1-0.2 0.1-0.1-0.1-0.2-0.1-0.4-0.2-0.1 0-0.2-0.2-0.3-0.3-0.1-0.1-0.2-0.4-0.2-0.6-0.1-0.2-0.2-0.4-0.2-0.4-0.1 0-0.1 0.2-0.1 0.5 0 0.3 0 0.5-0.1 0.5 0 0-0.1-0.1-0.2-0.2-0.1-0.2-0.3-0.5-0.4-0.7-0.1-0.3-0.2-0.5-0.2-0.6q0 0-0.1 0c0 0-0.1 0.1-0.1 0.3 0 0.1-0.1 0.3-0.1 0.4 0 0.1-0.1 0-0.3-0.4-0.2-0.5-0.2-0.5-0.2-0.3 0 0.1 0 0.4 0 0.6 0.1 0.2 0.1 0.3 0.1 0.3-0.1 0-0.2-0.1-0.4-0.1-0.2 0-0.2-0.1-0.3-0.4-0.1-0.2-0.2-0.6-0.3-0.9-0.1-0.5-0.1-0.6 0-1 0-0.2 0.1-0.6 0.3-0.8 0.1-0.3 0.2-0.5 0.2-0.5 0.1 0 0.1 0.1 0.1 0.3 0.1 0.1 0.2 0.3 0.6 0.6v0.4c0 0.4 0 0.5 0.1 0.6 0.1 0.2 0.2 0.3 0.4 0.4q0.3 0.1 0.6 0.1c0.1 0 0.3-0.1 0.3-0.1 0.1 0 0.2 0.1 0.8 0.5l0.1-0.2c0-0.1 0.1-0.2 0.2-0.3 0.1-0.2 0.1-0.2 0.4-0.2 0.2 0 0.3 0 0.5-0.2 0.1-0.1 0.2-0.3 0.3-0.5q0.1-0.4 0.1-0.6c-0.1-0.2-0.1-0.2 0.1-0.2 0.1-0.1 0.2-0.2 0.3-0.3 0.1-0.2 0.1-0.3 0.1-0.6-0.1-0.2-0.1-0.5-0.1-0.7 0-0.2 0-0.3 0.3-0.7 0.1-0.2 0.2-0.5 0.3-0.6 0-0.2 0-0.4 0-0.5-0.1-0.2-0.2-0.5-0.3-0.7-0.2-0.3-0.2-0.4-0.2-0.8q0-0.5 0.1-0.7c0.1-0.2 0.2-0.2 0.4-0.2 0.2 0.1 0.2 0.1 0.2-0.1q0-0.2-0.2-0.3c-0.2 0-0.2 0-0.4 0.1-0.2 0-0.3 0.2-0.4 0.3q-0.1 0.3-0.1 0.6 0 0.3 0.3 1c0.1 0.4 0.2 0.7 0.2 0.9 0 0.2 0 0.4-0.1 0.5 0 0.1-0.2 0.3-0.3 0.4-0.1 0.1-0.2 0.3-0.2 0.4-0.1 0.1 0 0.3 0 0.5 0.1 0.2 0.1 0.5 0.1 0.6 0 0.3 0 0.4-0.2 0.6-0.2 0.2-0.2 0.2-0.6 0.1-0.2 0-0.5-0.1-0.6-0.2-0.2-0.1-0.3-0.2-0.4-0.3q-0.1-0.2-0.1-0.4c0-0.3 0-0.3 0.3-0.4 0.2-0.1 0.4-0.3 0.5-0.3q0-0.1 0.1-0.2c-0.1 0-0.6 0-1.2 0-0.7 0-1.1 0-1.1 0 0 0.1 0 0.1 0.1 0.2 0.1 0.1 0.3 0.2 0.5 0.3 0.2 0.1 0.4 0.2 0.4 0.2 0 0.1 0.1 0.3 0.1 0.4 0 0.2-0.1 0.3-0.2 0.4-0.1 0.1-0.2 0.2-0.3 0.2-0.1 0.1-0.3 0.1-0.5 0.1-0.3 0.1-0.5 0.1-0.6 0q-0.2 0-0.3-0.2c-0.1-0.1-0.1-0.4-0.1-1.2l-1.1-1.2v-0.4c0-0.2 0.1-0.5 0.1-0.8 0.1-0.3 0.1-0.5 0.1-0.7 0-0.1-0.1-0.4-0.2-0.5 0-0.2-0.1-0.3-0.2-0.4-0.2-0.1-0.2-0.1-0.4 0q-0.2 0.1-0.3 0.2c0 0 0 0.2 0 0.2q0.1 0.2 0.2 0.1c0 0 0.1-0.1 0.2-0.1 0 0 0.1 0.1 0.2 0.2 0 0 0 0.2 0 0.3 0 0.2 0 0.4 0 0.5 0 0-0.1 0.1-0.2 0.2-0.1 0-0.3 0.1-0.4 0.2-0.1 0.1-0.3 0.3-0.5 0.6-0.1 0.2-0.3 0.5-0.4 0.6-0.1 0.1-0.2 0.3-0.3 0.3 0-0.1 0-0.2 0.1-0.5 0.1-0.2 0.1-0.6 0.2-0.9q0.1-0.4 0.3-0.6c0-0.1 0.2-0.2 0.4-0.2 0.1-0.1 0.2-0.1 0.2-0.1 0 0 0-0.1-0.1-0.2-0.1-0.1-0.2-0.3-0.2-0.4-0.1-0.2-0.1-0.4-0.1-0.6q0-0.2 0.1-0.3c0.1-0.2 0.2-0.2 0.4-0.2q0.3 0 0.6 0.2c0.1 0 0.3 0.1 0.3 0.1 0 0 0-0.1 0-0.2 0-0.1 0-0.4 0.1-0.5q0-0.3 0.1-0.3c0.1 0 0.2 0 0.3 0.1 0 0 0.2 0.1 0.5 0.4v-0.3c0-0.1 0-0.3 0.1-0.5 0.1-0.1 0.2-0.3 0.2-0.3 0.1 0 0.2 0.1 0.4 0.2 0.1 0 0.3 0.2 0.4 0.3 0.1 0 0.2 0.1 0.2 0.1 0 0 0.1-0.2 0.1-0.3 0-0.1 0.1-0.3 0.2-0.5zm57.2 0.1c0 0 0.1 0.2 0.1 0.4 0.1 0.2 0.2 0.4 0.2 0.5q0 0.1 0 0.1c0 0 0.2-0.1 0.3-0.2 0.2-0.2 0.4-0.3 0.5-0.3 0.2-0.1 0.3-0.1 0.4 0.1 0.1 0.1 0.1 0.2 0.1 0.4 0 0.2 0.1 0.4 0.1 0.3 0 0 0.1 0 0.3-0.1 0.1-0.1 0.3-0.2 0.3-0.2 0.1 0 0.2 0.1 0.2 0.1 0 0.1 0.1 0.4 0.2 0.9l0.2-0.1c0.1-0.1 0.3-0.2 0.4-0.2 0.1 0 0.3 0 0.4 0 0.1 0.1 0.3 0.2 0.3 0.2q0.1 0.2 0.1 0.5c-0.1 0.1-0.1 0.4-0.2 0.5-0.1 0.2-0.2 0.4-0.3 0.4 0 0.1 0 0.1 0.2 0.2 0.3 0 0.4 0 0.5 0.2q0.2 0.2 0.2 0.6c0.1 0.3 0.2 0.7 0.2 0.9 0.1 0.1 0.1 0.3 0.2 0.4q0 0.1-0.2-0.1c-0.2-0.1-0.4-0.5-0.6-0.7-0.2-0.4-0.4-0.6-0.6-0.7-0.2-0.1-0.4-0.3-0.4-0.3-0.1 0-0.1-0.2-0.1-0.5 0-0.2 0-0.4 0.1-0.4 0-0.1 0.1-0.1 0.2-0.1 0.1 0 0.2 0 0.2 0.1q0.1 0.1 0.1-0.1c0-0.2 0-0.3-0.1-0.3 0-0.1-0.2-0.2-0.2-0.2q-0.2 0-0.4 0.1c-0.1 0.1-0.2 0.3-0.3 0.5 0 0.2-0.1 0.4-0.1 0.6 0 0.1 0.1 0.4 0.1 0.7 0.1 0.3 0.2 0.6 0.2 0.7 0 0.1-0.1 0.2-0.1 0.3 0 0.1-0.3 0.4-1 1.1l-0.1 0.6c0 0.5 0 0.6-0.2 0.8-0.1 0.1-0.1 0.1-0.6 0.1q-0.5 0-0.8-0.2c-0.1 0-0.3-0.2-0.3-0.3 0-0.1-0.1-0.2 0-0.4 0-0.1 0-0.2 0.1-0.3 0.1 0 0.2-0.1 0.4-0.2 0.2 0 0.4-0.2 0.6-0.4h-1.2c-0.6-0.1-1.1 0-1.1 0q0 0 0 0.1c0.1 0.1 0.3 0.2 0.5 0.3 0.2 0.1 0.3 0.2 0.4 0.4 0 0 0 0.2 0 0.2-0.1 0.1-0.2 0.3-0.3 0.4-0.1 0.1-0.3 0.2-0.4 0.3-0.1 0-0.3 0.1-0.5 0.1-0.3 0-0.4 0-0.6-0.2-0.1-0.1-0.2-0.2-0.2-0.5 0-0.2 0.1-0.5 0.1-0.7 0.1-0.2 0.1-0.4 0.1-0.5 0-0.1-0.2-0.3-0.4-0.5-0.3-0.3-0.3-0.3-0.3-0.7 0-0.2 0.1-0.5 0.3-0.9 0.1-0.3 0.2-0.7 0.2-0.8q0.1-0.3 0-0.6c0-0.1-0.2-0.3-0.3-0.4-0.1-0.1-0.2-0.2-0.3-0.2q-0.2-0.1-0.3 0c-0.1 0.1-0.1 0.2-0.2 0.3 0 0.2 0 0.2 0.2 0.1 0.1 0 0.2 0 0.3 0 0 0 0.1 0.1 0.1 0.3 0.1 0.1 0.1 0.4 0.1 0.6 0 0.3 0 0.4-0.2 0.8-0.1 0.2-0.2 0.5-0.2 0.7 0 0.2 0 0.5 0 0.6 0.1 0.2 0.2 0.4 0.3 0.5 0.1 0.2 0.2 0.4 0.2 0.5q0.1 0.2 0 0.6c-0.1 0.3-0.1 0.4 0 0.6 0 0.1 0.1 0.3 0.2 0.4 0 0.1 0.2 0.1 0.2 0.1 0.1 0 0.1 0.1 0.1 0.3 0 0.2 0 0.4 0.1 0.7 0.1 0.2 0.3 0.4 0.3 0.5q0.1 0.1 0.5 0.1c0.3 0 0.3 0 0.4 0.3 0.1 0.1 0.2 0.3 0.2 0.3q0.1 0.1 0.3-0.1c0.1-0.1 0.3-0.3 0.3-0.3q0.2-0.1 0.3 0c0.1 0 0.2 0.1 0.4 0.1 0.1 0 0.3-0.1 0.5-0.2 0.2-0.1 0.3-0.2 0.4-0.4 0.1-0.2 0.1-0.3 0-0.6 0-0.3 0-0.3 0.2-0.4 0.1-0.1 0.2-0.3 0.5-0.9l0.1 0.2c0 0.1 0.2 0.3 0.3 0.5 0.1 0.2 0.1 0.6 0.2 0.8 0 0.2 0 0.5 0 0.7-0.1 0.2-0.2 0.6-0.2 0.9-0.1 0.2-0.2 0.4-0.3 0.5 0 0-0.2 0.1-0.6 0.1l0.1-0.4c0.1-0.2 0.1-0.4 0.1-0.5 0-0.1-0.1-0.1-0.3 0.3-0.1 0.3-0.2 0.5-0.3 0.5 0-0.1 0-0.2-0.1-0.4 0-0.2 0-0.3 0-0.3-0.1 0-0.2 0.2-0.3 0.5-0.2 0.3-0.4 0.6-0.5 0.7-0.1 0.2-0.2 0.2-0.2 0.2 0 0-0.1-0.2-0.1-0.5 0-0.2 0-0.5 0-0.5-0.1 0-0.1 0.2-0.2 0.4 0 0.2-0.2 0.4-0.2 0.6-0.2 0.3-0.3 0.3-0.5 0.5-0.2 0-0.4 0.1-0.4 0.1 0-0.1 0-0.2 0.1-0.5 0-0.2 0.1-0.5 0.1-0.7 0-0.3 0-0.4 0-0.4-0.1 0-0.2 0.1-0.2 0.2q-0.1 0.2-0.2 0.2c0 0-0.1-0.2-0.1-0.3-0.1-0.2-0.2-0.4-0.3-0.6-0.1-0.2-0.2-0.3-0.2-0.2 0 0 0.1 0.3 0.2 0.7 0.1 0.4 0.1 0.6 0.1 0.9-0.1 0.2-0.1 0.4-0.2 0.6-0.1 0.1-0.2 0.3-0.3 0.4-0.1 0.1-0.3 0.2-0.5 0.3-0.2 0-0.4 0.1-0.4 0.1-0.1 0 0-0.2 0.1-0.4 0.1-0.3 0.2-0.7 0.2-0.9 0-0.4 0-0.6-0.3-1.6-0.3-1.1-0.4-1.3-0.3-1.8 0-0.3-0.1-0.5-0.1-0.5 0 0.1-0.1 0.2-0.1 0.4-0.1 0.1-0.1 0.7-0.1 1.1-0.1 0.5-0.1 1-0.2 1.1 0 0.1-0.1 0.3-0.3 0.4-0.1 0.2-0.3 0.4-0.3 0.6q-0.1 0.4-0.1 0.6c0 0.2 0.1 0.4 0.1 0.5 0.1 0.1 0.1 0.1 0.1 0.1 0.1 0 0.1-0.1 0.1-0.3q-0.1-0.4 0-0.6c0-0.2 0.2-0.5 0.4-0.7 0.2-0.3 0.3-0.5 0.3-0.6 0-0.1 0.1-0.2 0.1-0.2q0.1-0.1 0.1 0c0 0 0.1 0.2 0.1 0.4 0 0.1 0.1 0.5 0.1 0.7 0 0.4-0.1 0.7-0.5 1.8l-0.6 0.3c-0.4 0.2-0.7 0.3-0.7 0.3-0.1 0-0.2-0.1-0.3-0.3-0.1-0.2-0.3-0.4-0.3-0.5-0.1-0.1-0.1-0.4-0.1-0.6 0-0.3 0.1-0.5 0.1-0.8 0.1-0.2 0.3-0.4 0.4-0.5 0.1-0.2 0.3-0.3 0.7-0.3l-0.2-0.3c-0.1-0.1-0.1-0.3-0.2-0.4 0-0.1 0-0.4 0-0.6 0-0.2 0-0.6 0.1-0.8 0-0.2 0.2-0.8 0.4-1.2 0.2-0.4 0.4-0.9 0.5-1 0-0.1 0-0.3 0-0.4 0-0.2 0-0.3 0-0.4q0-0.1-0.2 0.2c-0.1 0.1-0.3 0.2-0.3 0.2q-0.1 0-0.1-0.1c0 0 0.1-0.2 0.1-0.4 0.1-0.3 0.2-0.8 0.2-1.2 0.1-0.3 0.2-0.7 0.2-0.7 0.1-0.1 0.2-0.2 0.4-0.2 0.1 0 0.2-0.1 0.3-0.2 0.1-0.1 0.1-0.1-0.2-0.2q-0.3-0.1-0.4-0.3c-0.1-0.1-0.1-0.2-0.1-0.5 0-0.4 0.1-0.4 0.3-0.6 0.2-0.2 0.3-0.2 0.6-0.2 0.1 0 0.4 0 0.5 0.1 0 0 0.2 0.1 0.2 0.1 0.1 0.2 0.2 0.2 0.2 0.1 0-0.1 0-0.2 0-0.4-0.1-0.1-0.2-0.2-0.2-0.3-0.2-0.1-0.2-0.1 0-0.1 0.2 0 0.4 0.1 0.5 0.1 0.1 0.1 0.3 0.1 0.3 0.1 0 0-0.1-0.1-0.1-0.2-0.1-0.1-0.1-0.2-0.1-0.2q0-0.1 0.2-0.1c0.1 0 0.2 0.1 0.4 0.1 0.1 0.1 0.2 0.1 0.3 0.1q0.1 0.1 0.2-0.2c0.1-0.1 0.2-0.3 0.3-0.3 0.1-0.1 0.2-0.2 0.3-0.2 0.1 0 0.2-0.1 0.3 0zm-12.1 0.6c0.1 0 0.3 0.1 0.5 0.3 0.2 0.2 0.4 0.3 0.7 0.4q0.5 0.1 0.6 0.3 0.1 0.1 0.1 0.6c0 0.2 0 0.7-0.1 1-0.1 0.5 0 0.6 0.1 0.8 0 0.2 1.1 1.4 4.5 5.5l0.1 0.9-0.3 0.2c-0.1 0.1-0.2 0.3-0.3 0.4 0 0.1-0.1 0.3-0.2 0.5 0 0.3-0.1 0.5-0.1 0.7 0 0.1 0.1 0.4 0.2 0.6 0 0.2 0.2 0.5 0.3 0.7 0.2 0.2 0.3 0.4 0.3 0.4 0 0-0.3 0.1-1.3 0.4l-0.3-0.3c-0.2-0.2-0.3-0.4-0.3-0.4 0 0 0.1-0.1 0.2-0.1 0.1 0 0.4-0.1 0.5-0.1 0.2-0.1 0.3-0.2 0.3-0.2 0-0.1-0.1-0.1-0.3-0.1-0.2-0.1-0.5-0.1-0.6-0.2-0.2-0.1-0.5-0.2-0.6-0.3-0.2-0.1-0.4-0.3-0.4-0.4-0.1-0.1-0.1-0.2-0.1-0.3 0 0 0.1 0 0.3-0.1 0.2 0 0.4-0.1 0.6-0.2 0.1-0.1 0.2-0.2 0.2-0.2 0 0-0.1 0-0.3-0.1-0.2 0-0.5-0.1-0.8-0.2-0.2-0.1-0.4-0.3-0.6-0.4q-0.2-0.2-0.4-0.6h0.4q0.3 0.1 0.5 0c0.1-0.1 0.2-0.1 0.2-0.2 0 0 0-0.1 0-0.2-0.1-0.1-0.2-0.3-0.3-0.4-0.1-0.1-0.5-0.2-0.8-0.3-0.3-0.1-0.6-0.3-0.8-0.4-0.1-0.1-0.3-0.3-0.4-0.4-0.1-0.2-0.2-0.3-0.2-0.3 0-0.1 0.1-0.1 0.2-0.1q0.2 0 0.2-0.1c0.1 0 0-0.2 0-0.3 0-0.1-0.3-0.6-1-1.9v-0.7c-0.1-0.7-0.1-0.8-0.3-0.9-0.1-0.1-0.2-0.2-0.3-0.2q-0.2 0-0.2 0c0-0.1 0.1-0.2 0.2-0.2 0.1 0 0.2-0.1 0.3-0.1 0.1 0 0.2 0 0.3-0.1 0-0.1 0.2-0.2 0.4-0.2 0.2-0.1 0.3-0.1 0.1-0.1 0-0.1-0.2-0.1-0.3-0.1-0.1 0.1-0.3 0.1-0.3 0.1-0.1 0-0.1 0-0.1-0.3 0-0.1-0.1-0.3-0.1-0.4 0-0.1-0.2-0.2-0.3-0.2-0.2-0.1-0.2-0.1-0.1-0.2 0.1 0 0.2 0 0.6 0 0.2 0 0.5 0 0.7 0.1 0.4 0 0.4 0 0.2-0.1q-0.1-0.1-0.5-0.1c-0.2 0-0.4-0.1-0.4-0.1 0 0-0.1-0.2-0.1-0.3 0-0.3 0-0.4-0.2-0.5-0.1-0.1-0.2-0.3-0.2-0.3q0 0 0.1 0zm-48.4 3.8q0.1 0 0.1 0.1c0 0.1 0 0.2 0 0.4 0 0.1-0.2 0.4-0.5 0.7-0.2 0.2-0.4 0.6-0.5 0.7-0.1 0.2-0.2 0.4-0.3 0.6 0 0.2-0.1 0.6-0.2 1 0 0.4-0.1 0.9-0.2 1-0.1 0.2-0.2 0.3-0.2 0.4-0.1 0-0.2 0.1-0.3 0.1q-0.1 0-0.1 0c0 0 0-0.3 0.1-0.5 0.1-0.3 0.2-0.8 0.3-1.3 0-0.4 0.1-1 0.2-1.2 0.1-0.2 0.2-0.5 0.3-0.7 0.1-0.1 0.3-0.4 0.5-0.6 0.2-0.2 0.4-0.5 0.5-0.5 0.1-0.1 0.3-0.2 0.3-0.2zm63.7 0c0 0 0.2 0.1 0.3 0.2 0.1 0 0.4 0.3 0.6 0.6 0.2 0.2 0.4 0.6 0.5 0.7 0.1 0.1 0.2 0.4 0.2 0.6 0.1 0.2 0.2 0.7 0.2 1.1 0.1 0.5 0.1 0.9 0.3 1.2 0.1 0.3 0.2 0.6 0.2 0.6q-0.1 0-0.2 0c-0.1 0-0.2-0.1-0.3-0.2-0.1 0-0.2-0.2-0.2-0.3-0.1-0.1-0.1-0.5-0.2-0.9 0-0.4-0.1-0.8-0.2-1 0-0.1-0.1-0.4-0.2-0.5-0.1-0.2-0.3-0.5-0.5-0.8-0.2-0.3-0.5-0.6-0.5-0.7-0.1-0.1-0.1-0.3-0.1-0.4q0-0.2 0.1-0.2zm-71.2 0.9q0.1 0 0.1 0c0 0-0.1 0.2-0.2 0.3-0.1 0.2-0.2 0.5-0.2 0.7-0.1 0.2-0.1 0.5-0.1 0.6q0 0.2 0.2 0.6l0.1-0.2c0-0.1 0.2-0.3 0.3-0.4 0.1-0.1 0.3-0.3 0.5-0.4 0.1 0 0.4-0.1 0.7-0.1 0.3 0 0.5 0 0.5 0 0 0-0.2 0.2-0.5 0.5-0.2 0.3-0.5 0.6-0.6 0.8-0.1 0.2-0.2 0.5-0.2 0.7-0.1 0.2-0.1 0.6 0 0.8 0 0.3 0.1 0.6 0.1 0.8 0 0.2 0.2 0.5 0.3 0.8 0.1 0.3 0.4 0.9 0.6 1.4 0.3 0.6 0.7 1.3 0.9 1.7 0.2 0.4 0.4 0.9 0.5 1.2 0.1 0.3 0.2 0.9 0.2 1.2 0 0.3 0 0.8 0 1.1 0 0.3-0.1 0.7-0.1 0.8-0.1 0.1-0.2 0.4-0.3 0.6-0.1 0.1-0.3 0.4-0.4 0.6-0.2 0.2-0.4 0.5-0.6 0.7-0.2 0.2-0.6 0.5-1 0.8-0.3 0.2-1 0.7-1.5 1.1-0.6 0.3-1.3 0.8-1.6 1-0.2 0.2-0.6 0.5-0.8 0.7-0.1 0.2-0.4 0.5-0.4 0.7q-0.2 0.3-0.2 0.6c0 0.3 0.1 0.5 0.2 0.7 0.1 0.2 0.2 0.4 0.4 0.5 0.1 0.1 0.3 0.2 0.5 0.3 0.1 0.1 0.4 0.1 0.6 0.1 0.2 0 0.5-0.1 0.8-0.1 0.2-0.1 0.6-0.3 0.8-0.4 0.2-0.1 0.5-0.2 0.7-0.4 0.2-0.1 0.4-0.2 0.4-0.2 0 0.1-0.2 0.3-0.5 0.6-0.2 0.2-0.7 0.6-0.9 0.8-0.3 0.2-0.7 0.4-0.9 0.5-0.2 0.2-0.6 0.3-0.9 0.4q-0.4 0.1-0.9 0.1c-0.4 0-0.6 0-0.8-0.1-0.2-0.1-0.4-0.2-0.4-0.3q-0.1-0.1 0-0.1c0 0 0.2-0.1 0.3-0.1 0.1 0 0.3-0.1 0.4-0.2 0.1-0.1 0.1-0.2 0.1-0.2 0-0.1-0.1-0.1-0.2-0.2-0.2-0.1-0.3-0.2-0.5-0.5-0.1-0.3-0.2-0.4-0.2-0.8 0-0.5 0.1-0.6 0.3-1 0.1-0.2 0.4-0.7 0.7-1 0.2-0.3 0.6-0.8 0.8-1.1 0.3-0.3 0.6-0.7 0.7-0.9 0.1-0.3 0.2-0.6 0.3-1.5l0.2 0.1q0.2 0.2 0.3 0.5c0 0.2 0.1 0.4 0.1 0.5 0 0.1 0 0.2 0.1 0.2 0 0 0.2-0.2 0.4-0.3 0.2-0.2 0.4-0.5 0.5-0.7 0.1-0.3 0.1-0.4 0.1-0.9 0-0.3 0.1-0.5 0.1-0.5 0 0 0.1 0.1 0.2 0.2 0 0.1 0.1 0.3 0.2 0.4 0 0.1 0 0.4 0 0.6 0 0.1 0 0.3 0 0.3 0 0 0.2-0.1 0.3-0.2 0.2-0.2 0.4-0.4 0.6-0.5 0.1-0.1 0.4-0.4 0.5-0.6 0.2-0.1 0.4-0.5 0.5-0.7 0.1-0.2 0.3-0.6 0.3-0.9 0.1-0.4 0.1-0.5 0-0.9q-0.1-0.4-0.4-0.8c-0.1-0.3-0.4-0.6-0.6-0.7-0.2-0.2-0.6-0.4-0.9-0.6-0.3-0.2-0.9-0.4-1.2-0.6-0.4-0.1-0.8-0.3-1-0.4-0.1 0-0.4-0.3-0.6-0.4-0.2-0.2-0.3-0.4-0.3-0.5q0 0 0.3 0.2c0.2 0.1 0.4 0.2 0.6 0.3 0.2 0 0.4 0.1 0.4 0.1q0-0.1 0-0.1c0 0-0.2-0.1-0.5-0.3-0.2-0.2-0.5-0.4-0.6-0.5-0.1-0.1-0.2-0.2-0.3-0.4-0.1-0.1-0.2-0.2-0.2-0.3 0-0.1 0.1-0.1 0.3 0.1 0.1 0.1 0.3 0.2 0.5 0.3 0.1 0.1 0.5 0.2 0.7 0.3 0.2 0.1 0.5 0.2 0.7 0.3 0.2 0.1 0.4 0.1 0.4 0.1 0 0-0.1-0.1-0.3-0.2-0.1-0.2-0.5-0.4-0.9-0.6-0.3-0.2-0.6-0.4-0.8-0.5-0.1-0.1-0.3-0.3-0.4-0.5-0.1-0.2-0.2-0.4-0.2-0.4 0-0.1 0.1-0.1 0.3 0.1 0.2 0.2 0.4 0.3 0.6 0.4 0.1 0.1 0.3 0.1 0.3 0.1 0 0-0.2-0.3-0.5-0.5-0.3-0.3-0.6-0.7-0.6-0.8-0.1-0.2-0.2-0.4-0.2-0.5 0-0.2 0-0.4 0-0.5 0-0.2 0-0.3 0.1-0.3q0 0 0 0.1c0 0.1 0.1 0.3 0.2 0.5 0.1 0.2 0.2 0.4 0.4 0.5 0.1 0 0.4 0.2 0.6 0.4 0.3 0.1 0.6 0.4 0.9 0.6 0.3 0.3 0.5 0.5 0.5 0.4 0 0-0.1-0.1-0.1-0.2-0.1-0.1-0.4-0.4-0.7-0.7-0.3-0.4-0.5-0.6-0.7-1-0.2-0.4-0.2-0.4-0.2-1.1 0-0.4 0-0.7 0.2-1.1l0.1 0.5c0 0.3 0.1 0.7 0.2 0.8 0 0.2 0.2 0.4 0.3 0.6 0.2 0.1 0.3 0.2 0.3 0.2 0-0.1 0-0.2-0.1-0.2 0-0.1-0.1-0.4-0.2-0.5 0-0.2-0.1-0.6-0.1-0.8 0-0.4 0.1-0.6 0.1-0.9 0.1-0.3 0.3-0.5 0.6-0.8 0.2-0.2 0.5-0.4 0.5-0.4zm78.7 0c0 0 0.2 0.1 0.4 0.3 0.2 0.2 0.4 0.5 0.6 0.7 0.1 0.4 0.2 0.5 0.2 0.9 0 0.4 0 0.6-0.1 0.9 0 0.2-0.1 0.5-0.2 0.6-0.1 0.1-0.1 0.1 0 0.1 0 0 0.2-0.1 0.3-0.2 0.1-0.2 0.2-0.4 0.3-0.7 0.1-0.2 0.2-0.5 0.2-0.6 0-0.1 0-0.2 0-0.3q0.1-0.1 0.1 0c0 0 0.1 0.2 0.1 0.4 0 0.2 0.1 0.5 0.1 0.6 0 0.1-0.1 0.4-0.1 0.6-0.1 0.2-0.2 0.5-0.4 0.7-0.1 0.2-0.4 0.6-0.6 0.8-0.3 0.2-0.5 0.5-0.5 0.6-0.1 0.1-0.1 0.1-0.1 0.2 0 0 0.2-0.2 0.4-0.4 0.3-0.2 0.6-0.5 1-0.7 0.2-0.1 0.6-0.3 0.7-0.5q0.2-0.2 0.3-0.5c0.1-0.2 0.1-0.4 0.2-0.4 0 0 0 0.2 0 0.5 0 0.3 0 0.5-0.1 0.7-0.1 0.2-0.4 0.5-0.7 0.8-0.3 0.3-0.5 0.6-0.5 0.6 0 0 0.2 0 0.3-0.1 0.2-0.1 0.4-0.2 0.6-0.4 0.1-0.1 0.3-0.2 0.3-0.2 0 0.1-0.1 0.2-0.2 0.4-0.1 0.2-0.2 0.4-0.3 0.5-0.1 0.1-0.5 0.4-0.9 0.6-0.4 0.2-0.8 0.4-1 0.6-0.1 0.1-0.2 0.2-0.2 0.2 0 0 0.2 0 0.4-0.1 0.1-0.1 0.5-0.2 0.8-0.3 0.3-0.1 0.6-0.3 0.9-0.5 0.2-0.1 0.5-0.2 0.5-0.2 0 0 0 0.1-0.1 0.2 0 0.1-0.2 0.4-0.4 0.5-0.1 0.2-0.4 0.4-0.7 0.6-0.2 0.1-0.4 0.2-0.4 0.2q0 0.1 0.2 0.1c0-0.1 0.2-0.2 0.4-0.2 0.2-0.1 0.5-0.2 0.6-0.3 0-0.1 0.1-0.1 0.1-0.1 0 0.1-0.1 0.2-0.3 0.4-0.1 0.2-0.4 0.4-0.6 0.5-0.2 0.1-0.6 0.3-0.9 0.4-0.3 0.1-0.8 0.4-1.1 0.5-0.3 0.1-0.7 0.4-0.9 0.5-0.2 0.2-0.4 0.4-0.6 0.6-0.1 0.1-0.3 0.4-0.4 0.5 0 0.1-0.1 0.4-0.2 0.6 0 0.1 0 0.4 0 0.5 0 0.2 0 0.4 0 0.6 0.1 0.3 0.2 0.6 0.3 0.7 0.1 0.2 0.3 0.5 0.5 0.8 0.2 0.2 0.5 0.5 0.8 0.8 0.3 0.2 0.6 0.4 0.6 0.4 0 0 0-0.2 0-0.4 0-0.2 0-0.4 0.1-0.5 0-0.1 0.1-0.3 0.2-0.4 0-0.1 0.1-0.2 0.1-0.2 0.1 0 0.1 0.3 0.1 0.6 0 0.4 0 0.6 0.1 0.8 0.1 0.2 0.4 0.5 0.6 0.7 0.2 0.1 0.3 0.3 0.4 0.3 0 0 0-0.1 0-0.2 0-0.1 0.1-0.3 0.1-0.5 0-0.1 0.2-0.3 0.5-0.7l0.1 0.5c0 0.2 0.1 0.5 0.1 0.7 0.1 0.2 0.2 0.4 0.2 0.5 0.1 0.1 0.4 0.6 0.8 1 0.3 0.4 0.7 1 0.9 1.2 0.1 0.2 0.4 0.6 0.5 0.8 0.1 0.3 0.2 0.4 0.2 0.9 0 0.3-0.1 0.5-0.2 0.7 0 0.2-0.2 0.4-0.3 0.5-0.1 0.1-0.3 0.2-0.3 0.2q-0.1 0-0.1 0.1c0 0 0.1 0.1 0.1 0.2 0.1 0.1 0.3 0.2 0.4 0.2 0.2 0 0.3 0.1 0.3 0.1q0.1 0 0 0.1c0 0.1-0.2 0.2-0.3 0.3-0.3 0.1-0.5 0.1-0.8 0.1-0.3 0-0.7 0-0.8-0.1-0.2 0-0.6-0.2-1-0.3-0.3-0.2-0.8-0.5-1.1-0.7-0.3-0.2-0.7-0.6-0.9-0.8-0.3-0.3-0.4-0.5-0.4-0.5 0.1 0 0.2 0.1 0.4 0.2 0.2 0.1 0.5 0.3 0.9 0.5 0.3 0.1 0.7 0.3 0.8 0.3 0.2 0.1 0.5 0.1 0.6 0.1 0.2 0 0.5-0.1 0.7-0.1 0.2-0.1 0.4-0.2 0.5-0.4 0.2-0.1 0.3-0.4 0.4-0.5 0.1-0.2 0.1-0.5 0.1-0.6 0-0.1 0-0.4-0.1-0.6-0.1-0.1-0.3-0.4-0.5-0.7-0.1-0.2-0.5-0.5-0.9-0.7-0.3-0.3-1-0.8-1.6-1.1-0.6-0.4-1.3-0.9-1.5-1.1-0.3-0.2-0.7-0.5-0.9-0.8-0.3-0.2-0.6-0.6-0.8-0.9-0.2-0.2-0.4-0.7-0.5-0.9-0.1-0.4-0.1-0.6-0.1-1.4 0-0.7 0-1 0.2-1.5 0.1-0.5 0.3-0.9 1-2.3 0.5-0.9 0.9-1.9 1.1-2.2 0.1-0.3 0.2-0.8 0.3-1.1q0.1-0.5 0-1c0-0.5 0-0.6-0.2-1q-0.2-0.4-0.6-0.8c-0.3-0.3-0.5-0.5-0.5-0.5 0 0 0.3 0 0.5 0 0.3 0 0.6 0.1 0.8 0.1 0.1 0.1 0.3 0.3 0.4 0.4 0.2 0.2 0.3 0.4 0.4 0.4q0 0.2 0.1 0.1c0 0 0.1-0.2 0.1-0.3 0-0.2 0-0.4 0-0.7 0-0.2-0.2-0.5-0.3-0.7q-0.2-0.4-0.1-0.4zm-7.7 0.2c0 0 0.2 0.1 0.4 0.3 0.1 0.2 0.4 0.5 0.4 0.7 0.1 0.1 0.2 0.4 0.3 0.6 0.1 0.2 0.2 0.9 0.3 1.6 0.1 0.7 0.3 1.5 0.4 1.8q0.1 0.3 0.4 1h-0.2c0 0-0.2-0.1-0.3-0.1-0.1-0.1-0.2-0.2-0.2-0.2-0.1-0.1-0.1-0.1-0.2 0.2 0 0.2-0.1 0.6-0.1 0.9 0 0.3 0 0.7 0 0.9 0 0.2 0 0.4 0.1 0.5 0 0.1 0 0.1-0.1 0.1-0.1 0-0.2 0-0.3-0.1-0.1-0.1-0.2-0.2-0.2-0.3 0-0.1 0-0.5 0-0.8 0.1-0.3 0.1-0.8 0.2-1.1 0-0.3 0-0.7 0-1-0.1-0.2-0.1-0.4-0.1-0.4 0 0-0.1 0.3-0.1 0.7 0 0.4-0.1 1-0.2 1.3 0 0.4-0.1 0.8-0.2 1-0.1 0.4-0.1 0.5 0 0.7 0 0.1 0.2 0.3 0.3 0.4 0.2 0.1 0.3 0.2 0.5 0.3 0.2 0 0.2 0.1 0.2 0.3 0 0.2-0.1 0.6-0.1 0.9 0 0.3-0.2 0.9-0.3 1.3-0.1 0.3-0.2 0.8-0.2 1.1-0.1 0.2 0 0.6 0 0.8 0 0.2 0.2 0.5 0.3 0.7 0.1 0.2 0.4 0.6 0.5 0.8 0.2 0.3 0.7 0.7 1 1 0.4 0.4 1 0.9 1.5 1.2 0.4 0.4 0.9 0.8 1 1 0.2 0.1 0.4 0.4 0.5 0.6 0.1 0.2 0.2 0.6 0.2 0.8 0.1 0.3 0.1 0.6 0 1.2 0 0.4-0.1 1-0.2 1.3 0 0.3-0.1 0.8-0.1 1 0 0.3 0.1 0.5 0.2 0.7 0.1 0.2 0.3 0.5 0.4 0.6 0.1 0.1 0.4 0.2 0.5 0.3 0.2 0 0.6 0.1 1 0.1 0.3 0.1 1.1 0.1 2.8 0.1v1.4l0.3 0.7c0.2 0.4 0.6 1.2 0.9 1.8 0.4 0.5 0.7 1.2 0.8 1.4 0.1 0.2 0.2 0.5 0.2 0.7 0 0.2 0 0.5 0 0.6 0 0.2-0.2 0.4-0.4 0.7-0.2 0.2-0.3 0.3-0.6 0.4-0.2 0.1-0.3 0.1-0.8 0-0.2-0.1-0.5-0.1-0.6-0.1q-0.2 0-0.3 0.2c-0.1 0.1-0.1 0.2-0.1 0.2q0 0.1-0.1 0.1-0.1 0-0.2-0.1c0 0-0.1-0.1-0.1-0.2 0-0.1 0.1-0.2 0.2-0.3 0-0.1 0.1-0.3 0.1-0.4 0-0.1 0.1-0.3 0.1-0.4 0.1-0.1 0.3-0.2 0.4-0.3 0.2-0.1 0.2-0.2 0.1-0.2-0.1 0-0.2 0-0.3 0 0 0.1-0.2 0.2-0.3 0.3-0.2 0.1-0.3 0.3-0.3 0.4-0.1 0.1-0.2 0.3-0.3 0.4-0.1 0.2-0.3 0.4-0.3 0.5-0.1 0.1-0.1 0.2-0.1 0.2-0.1 0-0.1 0-0.2-0.1 0-0.2 0-0.2 0-0.4 0.1-0.1 0.1-0.3 0.1-0.9l0.3-0.1c0.2-0.1 0.3-0.2 0.4-0.2q0 0 0-0.1c-0.1 0-0.2 0.1-0.4 0.1-0.2 0.1-0.4 0.2-0.5 0.3-0.1 0.1-0.1 0.2-0.1 0.4 0.1 0.3 0 0.3-0.2 0.4-0.1 0.1-0.3 0.2-0.4 0.3-0.2 0.2-0.2 0.2-0.2 0.1 0-0.1 0.1-0.2 0.1-0.3q0.1-0.2 0.1-0.5 0-0.2 0.1-0.5c0.1-0.2 0.3-0.3 0.5-0.4 0.2-0.1 0.5-0.2 0.7-0.2 0.2 0 0.5-0.1 0.6-0.1 0.1-0.1 0.3-0.2 0.4-0.3 0.1-0.1 0.2-0.2 0.2-0.3q0-0.2 0-0.5c-0.1-0.1-0.2-0.5-0.4-0.7-0.1-0.2-0.4-0.5-0.6-0.7-0.1-0.1-0.5-0.4-0.8-0.6-0.2-0.1-0.6-0.3-0.9-0.4q-0.5-0.2-1-0.3c-0.4 0-0.5 0-0.7 0.1-0.2 0.1-0.4 0.2-0.4 0.3-0.1 0.1-0.2 0.3-0.1 0.4 0 0.1 0 0.2-0.2 0.2 0 0-0.2-0.1-0.4-0.2-0.2 0-0.5-0.2-0.7-0.4-0.3-0.2-0.5-0.5-0.8-1.1l-0.1 0.2q-0.1 0.3-0.1 0.8c0 0.6 0 0.6-0.1 0.5-0.1 0-0.2 0-0.4-0.1-0.1-0.1-0.3-0.2-0.3-0.3-0.1-0.1-0.2-0.3-0.3-0.4 0-0.1-0.1-0.4-0.1-0.7 0-0.4 0-0.9 0-1.3 0-0.3 0-0.6 0-0.6 0 0-0.2 0.2-0.3 0.5-0.1 0.2-0.3 0.6-0.5 0.8-0.2 0.2-0.4 0.3-0.4 0.4 0 0-0.1-0.1-0.1-0.3 0-0.1-0.1-0.3-0.1-0.5 0-0.1 0-0.4 0-0.6 0.1-0.3 0.3-0.8 0.5-1.3 0.2-0.5 0.5-1.2 0.5-1.4 0.1-0.3 0.2-0.7 0.2-1.1 0-0.4-0.1-0.8-0.1-1-0.1-0.2-0.1-0.4-0.1-0.4 0 0 0.1 0 0.2 0.1 0.2 0.1 0.3 0.3 0.4 0.5 0.1 0.2 0.2 0.3 0.3 0.3 0-0.1 0-0.2 0-0.3-0.1-0.1-0.1-0.3-0.2-0.4 0-0.1-0.2-0.3-0.3-0.4-0.1-0.1-0.3-0.3-0.5-0.5-0.2-0.1-0.5-0.3-0.7-0.3-0.1-0.1-0.5-0.3-0.8-0.4-0.2-0.1-1-0.3-1.6-0.5-0.7-0.2-1.4-0.4-1.6-0.5-0.2-0.1-0.6-0.2-0.8-0.4-0.2-0.1-0.6-0.4-0.8-0.6q-0.4-0.4-0.7-0.8c-0.1-0.2-0.2-0.5-0.3-0.7 0-0.1 0-0.3-0.1-0.5 0-0.3 0-0.3 0.2-0.3 0.1 0 0.2 0.1 0.4 0.5 0.1 0.3 0.4 0.7 0.5 1 0.2 0.2 0.5 0.5 0.7 0.7 0.2 0.1 0.4 0.3 0.5 0.3 0 0-0.1-0.2-0.3-0.4-0.2-0.2-0.4-0.5-0.5-0.7 0-0.2-0.1-0.5-0.1-0.7-0.1-0.2-0.1-0.5 0-0.6 0-0.2 0-0.3 0.5-0.5 0.3-0.2 0.6-0.4 1.3-1.1l0.1 0.2c0 0.1 0 0.2 0 0.3q0 0.1 0 0.1c0.1 0 0.2 0 0.4-0.1 0.1 0 0.3-0.2 0.5-0.4 0.1-0.2 0.3-0.4 0.4-0.6 0-0.2 0.1-0.4 0.1-0.6 0.1-0.1 0.1-0.2 0-0.2 0 0-0.1 0.2-0.2 0.4-0.1 0.2-0.3 0.4-0.4 0.5 0 0.1-0.2 0.3-0.2 0.3-0.1 0-0.2 0-0.2-0.2-0.1-0.1-0.2-0.3-0.3-0.3-0.1-0.1-0.2-0.3-0.3-0.4 0-0.1-0.1-0.3-0.1-0.6l-0.1 0.2c-0.1 0.2-0.1 0.4-0.1 0.8 0 0.4-0.1 0.6-0.2 0.7-0.1 0.2-0.2 0.3-0.4 0.4-0.1 0.1-0.2 0.1-0.3 0.1 0 0-0.1-0.2-0.1-0.5 0-0.3-0.1-0.7-0.1-0.9-0.2-0.3-0.2-0.3-0.2-0.2-0.1 0.1-0.1 0.4-0.2 0.7-0.1 0.5-0.1 0.6-0.3 0.8-0.1 0.1-0.2 0.2-0.3 0.3-0.1 0-0.3 0.1-0.4 0.1-0.2 0.1-0.2 0-0.2-0.1 0-0.1 0-0.4 0.1-0.7 0-0.4 0-0.6 0-0.6 0 0-0.2 0.2-0.3 0.4-0.2 0.5-0.3 0.5-0.7 0.7-0.2 0.1-0.5 0.2-0.5 0.2q-0.1 0 0-0.1c0-0.1 0-0.3 0.1-0.6 0-0.2 0-0.5 0-0.5 0-0.1-0.2 0.1-0.3 0.3-0.2 0.2-0.5 0.5-0.7 0.6-0.1 0.1-0.4 0.3-0.5 0.4-0.2 0.1-0.4 0.1-0.6 0.2-0.2 0-0.3 0-0.3 0 0 0 0-0.1 0.1-0.3 0.1-0.1 0.2-0.3 0.3-0.5 0-0.2 0.1-0.5 0-0.6 0-0.1 0-0.1-0.4 0.3q-0.4 0.5-0.8 0.6c-0.3 0.2-0.5 0.2-1 0.2l0.2-0.1c0.1-0.1 0.2-0.3 0.3-0.5 0-0.2 0.1-0.3 0-0.4 0 0-0.1 0-0.4 0.1-0.3 0.2-0.4 0.2-0.9 0.2-0.4 0-0.6 0-0.6 0 0 0 0.1-0.1 0.3-0.4l-0.3-0.1c-0.2 0-0.5-0.1-0.6-0.1-0.2-0.1-0.4-0.3-0.5-0.4-0.2-0.2-0.3-0.4-0.5-0.8 0-0.2-0.1-0.6-0.1-0.8-0.1-0.2-0.1-0.5-0.2-0.7 0-0.2-0.1-0.4-0.2-0.5-0.1-0.1-0.3-0.1-0.4-0.1q-0.2 0-0.2-0.1c0-0.1 0.1-0.2 0.2-0.3 0-0.1 0.2-0.1 0.5-0.1 0.2-0.1 0.5-0.1 0.6 0 0 0 0.2 0.1 0.3 0.1 0.1 0.1 0.2 0.1 0.2 0.1q0 0-0.1-0.1c-0.1-0.1-0.2-0.2-0.3-0.2-0.1-0.1-0.2-0.1-0.4-0.1-0.1-0.1-0.2-0.1-0.3-0.2 0-0.1-0.1-0.2-0.2-0.3-0.1 0-0.3-0.1-0.3-0.1-0.2 0-0.2 0-0.1-0.1 0.1 0 0.2-0.1 0.4-0.1q0.1 0 0.4 0.1 0.2 0.1 0.4 0.1c0.1 0 0.3 0 0.4 0 0.1 0.1 0.2 0.2 0.3 0.3 0.2 0.2 0.2 0.2 0.1 0 0 0 0-0.2-0.1-0.3-0.1-0.1-0.3-0.2-0.4-0.3q-0.4-0.1-0.5-0.3c-0.1-0.1-0.2-0.2-0.4-0.3-0.2-0.1-0.2-0.1-0.1-0.2 0.1 0 0.3 0 0.4 0.1 0.2 0 0.4 0 0.6 0q0.3 0 0.4 0.1c0.1 0.1 0.1 0.3 0.2 0.3 0 0.1 0.1 0.6 0.2 1.1 0.1 0.5 0.3 1 0.3 1.1 0.1 0.2 0.2 0.4 0.4 0.5q0.2 0.3 0.6 0.4c0.3 0 0.4 0 0.9 0 0.2-0.1 0.8-0.2 1.2-0.3 0.4-0.1 1.1-0.3 1.5-0.5 0.4-0.2 1.4-0.6 2.3-0.9 0.8-0.4 2-0.9 2.7-1.1 0.6-0.3 1.4-0.6 1.7-0.6 0.3-0.1 0.6-0.2 0.6-0.2 0 0 0 0.2-0.1 0.5 0 0.3 0 0.7 0 0.9 0 0.3 0 0.7 0.1 1 0 0.3 0.1 0.6 0.1 0.7 0 0 0.1-0.4 0.1-1-0.1-0.8 0-1.1 0.1-1.4 0-0.2 0.2-0.6 0.3-0.9 0.1-0.2 0.2-0.6 0.3-0.9 0.1-0.2 0.1-0.6 0.1-0.9 0-0.4 0-0.8-0.1-1-0.1-0.2-0.2-0.7-0.3-1-0.2-0.3-0.3-0.7-0.3-0.8 0-0.3 0-0.3 0.2-0.3 0.2 0 0.3 0 0.4 0.2 0.1 0.2 0.3 0.5 0.4 0.8 0.1 0.2 0.2 0.6 0.3 0.8 0.1 0.2 0.2 0.5 0.2 0.5q0.1 0.1 0-0.2c0-0.2-0.1-0.6-0.2-0.9-0.1-0.3-0.3-0.7-0.4-0.9-0.1-0.2-0.2-0.5-0.2-0.6-0.1-0.1-0.1-0.2 0-0.3 0-0.1 0.1-0.2 0.1-0.2zm-59.5 2.4c0 0 0.2 0.1 0.3 0.1 0.1 0 0.4 0.1 0.5 0.1q0.4 0 0.4 0.1c0 0 0 0.2 0 0.3q0 0.3-0.1 0.5-0.1 0.1-0.3 0.1c-0.1 0-0.2 0-0.3-0.1-0.1-0.1-0.2-0.1-0.2-0.1-0.1 0.1-0.2 0.2-0.2 0.4-0.1 0.2-0.2 0.3-0.3 0.3 0 0-0.2-0.1-0.3-0.3 0-0.2-0.2-0.4-0.2-0.4 0 0-0.1 0.2-0.2 0.3-0.1 0.1-0.2 0.3-0.3 0.3q-0.1 0-0.3-0.1c0-0.1-0.1-0.3-0.2-0.4 0-0.2 0-0.3 0-0.4 0-0.1 0-0.2 0.1-0.3q0.1-0.1 0.5-0.2c0.2 0 0.5-0.1 0.7-0.2 0.2-0.1 0.3-0.1 0.4 0zm56.1 0c0.2 0.1 0.5 0.2 0.7 0.2 0.3 0.1 0.5 0.1 0.5 0.2 0 0.1 0.1 0.2 0.1 0.4 0 0.1-0.1 0.3-0.1 0.5-0.1 0.1-0.2 0.2-0.2 0.3-0.1 0-0.2 0-0.3 0 0 0-0.1-0.2-0.2-0.3 0-0.1-0.1-0.3-0.2-0.3 0 0-0.2 0.2-0.2 0.4-0.1 0.2-0.2 0.3-0.3 0.3 0 0-0.2-0.1-0.2-0.3-0.1-0.2-0.2-0.4-0.3-0.4 0 0-0.1 0-0.2 0.1 0 0.1-0.2 0.1-0.3 0.1 0 0-0.2 0-0.2-0.1-0.1 0-0.2-0.2-0.2-0.3 0-0.1 0-0.2 0-0.6h0.5q0.4-0.1 0.6-0.2c0.2-0.1 0.2-0.1 0.5 0zm-40.5 1.3c0 0 0.3 1 1 4.6v10.1c0 5.6 0 10.2 0 10.3 0 0-0.3-0.1-1.1-0.6v-12.2c0-7.4 0-12.2 0.1-12.2zm19 0.1c0.1 0 0.1 1 0.1 6.5l-2.6 11.2c-1.4 6.2-2.6 11.2-2.6 11.3 0 0.1-0.2 0.1-4.4 0.1l-0.1-0.5c-0.1-0.3-0.1-0.5-0.1-0.6 0-0.1 0.1-0.1 3.2-0.1l0.1-0.2c0-0.2 1.4-6.4 3.2-13.9 1.7-7.5 3.1-13.7 3.1-13.8q0.1 0 0.1 0zm-32 12.8c0.1 0 0.3 0.1 0.4 0.2 0.1 0 0.3 0.2 0.5 0.3 0.1 0.2 0.3 0.4 0.4 0.6 0.1 0.3 0.1 0.3 0 0.2-0.1 0-0.4 0-0.8-0.1-0.4 0-0.8-0.1-1-0.1-0.1-0.1-0.2-0.1-0.2-0.1 0 0.1 0.1 0.2 0.2 0.3 0.2 0.1 0.5 0.3 0.7 0.5 0.2 0.2 0.5 0.4 0.6 0.5 0.1 0.2 0.3 0.5 0.4 0.7 0.2 0.3 0.2 0.5 0.2 0.6 0 0.2 0 0.3-0.1 0.7l-0.2-0.2c-0.1-0.1-0.3-0.3-0.4-0.3-0.1-0.1-0.3-0.1-0.7-0.1l0.2 0.5c0.2 0.3 0.3 0.7 0.3 0.8 0 0.2 0 0.4 0 0.5 0 0.1-0.1 0.3-0.4 0.6l-0.2-0.2c-0.2-0.2-0.3-0.2-0.5-0.2-0.1 0-0.3 0.1-0.4 0.2-0.1 0.1-0.3 0.3-0.4 0.5-0.1 0.1-0.3 0.5-0.4 0.7-0.1 0.3-0.2 0.6-0.2 0.8-0.1 0.2 0 0.5 1.6 4.2l0.3 0.3c0.2 0.1 0.5 0.3 0.7 0.4 0.2 0.1 0.5 0.3 0.7 0.3 0.2 0 0.7 0.1 1.1 0.1 0.3 0.1 0.8 0.1 0.9 0.2 0.2 0 0.4 0.2 0.5 0.2 0.1 0.1 0.2 0.3 0.3 0.4 0 0.2 0 0.4 0 0.6 0 0.2 0 0.4 0.1 0.5 0 0.1 0.1 0.2 0.1 0.3q0 0.1-0.1 0.1c0 0-0.1 0-0.1-0.1-0.1-0.1-0.2-0.2-0.3-0.2-0.1-0.1-0.2-0.2-0.2-0.4 0-0.1 0-0.3 0-0.4-0.1-0.1-0.1-0.3-0.2-0.3q-0.1-0.1-0.2 0 0 0 0.1 0.1c0 0.1 0 0.3 0.1 0.6 0 0.4 0 0.4-0.2 0.6 0 0.1-0.1 0.1-0.2 0.1q0 0 0-0.1c0 0-0.1-0.2-0.2-0.3 0-0.1-0.2-0.2-0.2-0.2q-0.2 0-0.2-0.2 0-0.2-0.1-0.4c-0.1-0.1-0.3-0.2-0.4-0.3q-0.2 0-0.2 0 0 0.1 0.1 0.1c0 0 0.1 0.1 0.2 0.2 0.2 0.1 0.2 0.1 0.2 0.6q0 0.4-0.1 0.5c-0.1 0.1-0.1 0.1-0.2-0.1-0.1-0.1-0.2-0.3-0.3-0.3-0.1-0.1-0.4-0.2-0.6-0.2-0.2 0-0.5-0.1-0.8-0.1-0.3 0-0.6 0-0.7-0.1-0.2 0-0.3-0.1-0.4-0.2-0.1 0-0.6-1-1.3-2.1-0.6-1.2-1.3-2.4-1.5-2.7-0.2-0.5-0.4-0.8-0.7-0.9-0.1-0.2-0.3-0.3-0.4-0.3q-0.1-0.1-0.1-0.1c0-0.1 0.2-0.4 0.5-0.8 0.3-0.4 0.6-1 0.8-1.2 0.1-0.3 0.3-0.6 0.4-0.8 0-0.2 0.1-0.4 0.1-0.4 0-0.1-0.1-0.3-0.1-0.5-0.1-0.1-0.2-0.4-0.3-0.5-0.1-0.2-0.4-0.4-0.5-0.5-0.2-0.1-0.8-0.4-1.4-0.7-0.5-0.2-1-0.4-1-0.4 0-0.1 0.1-0.1 0.2-0.1 0.2-0.1 0.4-0.1 0.8 0.1 0.3 0 0.7 0.2 0.9 0.3 0.2 0.2 0.6 0.4 0.7 0.5 0.2 0.2 0.5 0.4 0.6 0.6 0.2 0.2 0.3 0.3 0.3 0.3 0.1 0 0.1 0 0-0.2 0-0.1-0.1-0.3-0.2-0.5q-0.1-0.4-0.5-0.8c-0.2-0.2-0.6-0.4-0.8-0.5-0.3-0.1-0.5-0.3-0.4-0.3 0 0 0.3-0.1 0.8-0.2 0.4-0.1 1-0.3 1.2-0.4 0.3-0.1 0.7-0.2 0.9-0.3 0.2-0.1 0.6-0.4 0.9-0.5 0.2-0.2 0.5-0.4 0.6-0.4 0.1-0.1 0.3-0.1 0.4-0.1zm50.7 0c0.1 0 0.4 0.2 0.7 0.4 0.3 0.2 0.7 0.4 0.9 0.5 0.2 0.1 0.6 0.3 0.8 0.4 0.2 0 0.8 0.2 1.3 0.3 0.5 0.2 0.9 0.3 1 0.3 0 0-0.2 0.2-0.5 0.3-0.3 0.2-0.6 0.4-0.8 0.6-0.2 0.1-0.4 0.4-0.5 0.6-0.1 0.2-0.2 0.5-0.2 0.7-0.1 0.3-0.1 0.3 0 0.2 0.1-0.1 0.2-0.3 0.3-0.4 0.2-0.2 0.4-0.5 0.7-0.6 0.2-0.2 0.5-0.4 0.7-0.5 0.2-0.1 0.6-0.3 0.8-0.3 0.5-0.2 0.6-0.2 0.8-0.1 0.1 0 0.2 0.1 0.2 0.1q0 0-0.1 0c0 0-0.5 0.3-1.1 0.5-1 0.4-1.2 0.6-1.4 0.8-0.2 0.2-0.4 0.5-0.5 0.6-0.1 0.2-0.1 0.5-0.1 0.7q-0.1 0.2 0.2 0.7c0.1 0.2 0.3 0.7 0.6 1 0.2 0.3 0.5 0.8 0.6 1 0.2 0.2 0.4 0.4 0.4 0.5 0 0-0.1 0-0.2 0.1-0.1 0-0.4 0.2-0.5 0.3-0.2 0.2-0.5 0.6-0.7 1-0.2 0.4-0.8 1.6-1.5 2.7-1 1.7-1.1 2-1.4 2.1-0.2 0.2-0.3 0.2-1 0.2-0.4 0.1-0.8 0.1-1 0.2-0.2 0-0.4 0.1-0.5 0.2 0 0.1-0.1 0.2-0.1 0.3q0 0.1-0.1 0.1c0 0-0.1-0.1-0.2-0.2 0-0.1 0-0.3 0-0.4 0-0.2 0-0.4 0-0.5 0.1-0.1 0.2-0.2 0.3-0.2 0.1-0.1 0.2-0.1 0.2-0.2q0 0-0.1 0c-0.1 0-0.2 0.1-0.3 0.1-0.1 0.1-0.2 0.2-0.3 0.3 0 0.2-0.1 0.3-0.1 0.3 0 0.1-0.1 0.2-0.2 0.3q-0.2 0.2-0.2 0.4c0 0.1-0.1 0.1-0.1 0.1 0 0-0.1 0-0.2-0.1-0.2-0.2-0.2-0.2-0.1-0.7 0-0.2 0-0.5 0.1-0.5q0-0.1 0-0.1c0-0.1-0.1 0-0.2 0q-0.2 0.1-0.2 0.4c-0.1 0.2-0.1 0.4-0.1 0.5 0 0 0 0.1-0.1 0.2-0.1 0-0.2 0.1-0.3 0.2 0 0.1-0.1 0.2-0.1 0.2 0-0.1 0-0.2 0-0.3 0-0.1 0-0.2 0-0.2 0.1-0.1 0.1-0.3 0.1-0.6 0-0.4 0-0.5 0.1-0.7 0.1-0.1 0.3-0.2 0.5-0.3 0.1-0.1 0.4-0.2 0.6-0.2 0.2 0 0.6-0.1 1-0.1 0.4-0.1 0.8-0.1 1-0.2 0.1-0.1 0.5-0.3 1.3-0.8l0.9-2.1c0.7-1.9 0.8-2.1 0.8-2.3-0.1-0.2-0.2-0.5-0.3-0.7-0.1-0.2-0.3-0.5-0.4-0.7-0.1-0.2-0.3-0.4-0.4-0.5-0.1-0.1-0.3-0.2-0.4-0.2-0.2 0-0.3 0-0.7 0.4l-0.2-0.2c-0.1-0.1-0.2-0.3-0.2-0.4 0-0.2 0-0.4 0-0.6 0.1-0.2 0.2-0.5 0.5-1.2h-0.2c-0.2 0-0.4 0-0.5 0.1-0.1 0-0.3 0.1-0.4 0.3-0.2 0.2-0.2 0.2-0.2 0.1-0.1-0.1-0.1-0.3-0.1-0.5 0-0.2 0-0.4 0.2-0.7 0.1-0.2 0.3-0.5 0.4-0.7 0.2-0.1 0.6-0.5 0.9-0.7 0.3-0.2 0.6-0.5 0.6-0.5q0.1-0.1 0-0.1c-0.1 0-0.2 0.1-0.3 0.1-0.1 0-0.5 0.1-0.9 0.1-0.3 0.1-0.7 0.1-0.8 0.1q-0.1 0-0.1 0c0 0 0.1-0.2 0.3-0.4 0.1-0.2 0.3-0.5 0.5-0.6 0.1-0.1 0.3-0.2 0.4-0.2 0.2-0.1 0.3-0.1 0.4-0.1zm-7.5 15.2v1.1h-9.4v-1.2h8.2v-0.4c0-0.2 0-0.3 0-0.4 0 0 0.3 0.2 1.2 0.9zm-28.7-0.6c0 0 0.3 0.1 1.1 0.6v1.1h-6.1l0.1-1.2h4.8v-0.2q0-0.3 0.1-0.3z"/><path class="b" d="m27.8 14.8c-0.1 0.1-0.2 0.1-0.2 0.2q0 0 0.2 0c0.1 0 0.2 0 0.3 0q0.1-0.1 0.1-0.1 0-0.1-0.1-0.1c0 0-0.2 0-0.3 0zm-18.9 22.3c0 0.2-0.2 0.5-0.2 0.7-0.1 0.2-0.1 0.5-0.1 0.7 0 0.1 0.1 0.8 0.1 1.5 0.1 0.6 0.2 1.4 0.2 1.6 0 0.3 0 0.7-0.1 0.9 0 0.1-0.1 0.4-0.2 0.6-0.1 0.2-0.1 0.3-0.1 0.4 0 0 0.1-0.1 0.3-0.3 0.1-0.1 0.3-0.4 0.4-0.6 0.1-0.3 0.1-0.6 0.1-1 0-0.4 0-0.9-0.1-1.6-0.1-0.5-0.1-1.1-0.2-1.4 0-0.2 0-0.7 0.1-0.9 0-0.3 0.1-0.6 0.1-0.7q0-0.1-0.1-0.1c0 0-0.1 0.1-0.2 0.2zm6.6-20.7q-0.2 0.1-0.2 0.2c0 0 0.1 0.2 0.2 0.2 0.1 0.2 0.3 0.2 0.4 0.3 0.1 0 0.3 0 0.3 0 0.1 0.1 0.1 0.2 0.1 0.3 0.1 0.1 0 0.3 0 0.5-0.1 0.1-0.1 0.2-0.1 0.2q0 0.1 0.1 0c0.1-0.1 0.2-0.3 0.3-0.5 0.1-0.2 0.1-0.4 0.1-0.5 0-0.1 0-0.3-0.1-0.4 0-0.1-0.1-0.2-0.2-0.2-0.1-0.1-0.3-0.1-0.4-0.1-0.1 0-0.3 0-0.5 0zm2.9 0c-0.1 0-0.2 0.1-0.3 0.2-0.1 0-0.2 0.2-0.2 0.3-0.1 0.1-0.1 0.2 0 0.3 0 0.1 0.1 0.4 0.2 0.6 0.1 0.2 0.2 0.3 0.3 0.3q0.1 0.1 0 0c0-0.1-0.1-0.3-0.1-0.4-0.1-0.3-0.1-0.4 0-0.5 0 0 0.2-0.1 0.3-0.1q0.3-0.1 0.5-0.2c0.1-0.1 0.1-0.3 0.1-0.3q0-0.1-0.2-0.2c-0.1 0-0.3-0.1-0.3-0.1-0.1 0-0.2 0.1-0.3 0.1zm53.7 0c-0.2 0-0.2 0.1-0.2 0.2 0 0.1 0.1 0.2 0.1 0.3 0.1 0.1 0.3 0.1 0.4 0.2 0.2 0 0.3 0 0.4 0 0 0.1 0.1 0.2 0.1 0.3 0 0.1-0.1 0.3-0.1 0.5-0.1 0.1-0.1 0.2-0.1 0.2q0.1 0.1 0.2 0c0-0.1 0.1-0.3 0.2-0.5 0.1-0.2 0.2-0.4 0.2-0.5 0-0.1-0.1-0.3-0.1-0.4-0.1-0.1-0.2-0.2-0.3-0.2-0.1-0.1-0.3-0.1-0.4-0.1-0.1 0-0.3 0-0.4 0zm2.8 0c-0.1 0-0.2 0.1-0.3 0.2 0 0-0.1 0.2-0.2 0.3-0.1 0.2-0.1 0.2 0 0.5 0.1 0.1 0.2 0.4 0.3 0.5 0.1 0.1 0.2 0.3 0.2 0.3q0.1 0 0.1-0.1c0 0-0.1-0.1-0.2-0.3 0-0.2-0.1-0.4-0.1-0.5 0.1-0.1 0.1-0.2 0.2-0.2 0 0 0.2 0 0.3 0q0.3-0.1 0.4-0.3c0.1-0.1 0.2-0.2 0.2-0.2q0-0.1-0.3-0.2c-0.1 0-0.2-0.1-0.3-0.1 0 0-0.2 0.1-0.3 0.1zm7 20.7c0.1 0.1 0.1 0.4 0.1 0.7 0.1 0.3 0.1 0.7 0 1.1 0 0.3-0.1 0.9-0.1 1.2-0.1 0.4-0.1 0.9-0.1 1.1-0.1 0.2-0.1 0.5 0 0.8 0 0.2 0.1 0.5 0.2 0.7 0.1 0.2 0.3 0.5 0.4 0.6 0.1 0.1 0.2 0.1 0.2 0.1 0 0-0.1-0.2-0.2-0.4 0-0.2-0.1-0.5-0.2-0.9 0-0.3 0-0.6 0-0.7 0-0.1 0.1-0.8 0.2-1.5 0.1-1.2 0.1-1.4 0.1-1.8-0.1-0.3-0.2-0.6-0.2-0.8-0.1-0.1-0.2-0.3-0.3-0.4-0.1-0.1-0.1-0.1-0.1 0.2z"/><path class="a" d="m15.7 16.7q0 0.1 0.1 0.1c0.1 0.1 0.2 0.1 0.3 0.1 0.1 0 0.2 0 0.2-0.1q0 0-0.1 0-0.2 0-0.3-0.1c0 0-0.1-0.1-0.2-0.1q0 0.1 0 0.1zm3 0q-0.1 0.1-0.3 0.1c-0.1 0-0.2 0-0.2 0 0 0.1 0.1 0.1 0.3 0.1 0.1 0 0.2 0 0.3-0.1q0.1 0 0.1-0.1 0 0-0.1-0.1c-0.1 0-0.1 0.1-0.1 0.1zm53.5 0q0 0.1 0.1 0.1c0.1 0.1 0.2 0.1 0.3 0.1 0.1 0 0.2 0 0.3-0.1q0-0.1-0.2 0-0.2 0-0.3-0.1c0 0-0.1-0.1-0.1-0.1q-0.1 0.1-0.1 0.1zm3 0q-0.1 0.1-0.2 0.1c-0.1 0-0.2 0-0.2 0 0 0.1 0.1 0.1 0.2 0.1 0.1 0 0.3 0 0.3-0.1q0.1 0 0.2-0.1-0.1 0-0.2-0.1c0 0-0.1 0.1-0.1 0.1z"/></svg>